<svg viewBox="0.00 0.00 2211.00 1087.48" xmlns="http://www.w3.org/2000/svg" xmlns:xlink="http://www.w3.org/1999/xlink">
<g id="graph0" class="graph" transform="scale(1 1) rotate(0) translate(4 1083.48)">
<g id="a_graph0"><a xlink:title=" ">
<polygon fill="white" stroke="none" points="-4,4 -4,-1083.48 2207,-1083.48 2207,4 -4,4"/>
</a>
</g>
<g id="clust6" class="cluster">
<title>cluster_sailing</title>
<g id="a_clust6"><a xlink:title=" ">
<path fill="whitesmoke" stroke="whitesmoke" d="M1378,-491.2C1378,-491.2 1660,-491.2 1660,-491.2 1666,-491.2 1672,-497.2 1672,-503.2 1672,-503.2 1672,-713.68 1672,-713.68 1672,-719.68 1666,-725.68 1660,-725.68 1660,-725.68 1378,-725.68 1378,-725.68 1372,-725.68 1366,-719.68 1366,-713.68 1366,-713.68 1366,-503.2 1366,-503.2 1366,-497.2 1372,-491.2 1378,-491.2"/>
<text text-anchor="middle" x="1519" y="-499.4" font-family="Helvetica,sans-Serif" font-size="14.00">sailing</text>
</a>
</g>
</g>
<g id="clust7" class="cluster">
<title>cluster_communication</title>
<g id="a_clust7"><a xlink:title=" ">
<path fill="whitesmoke" stroke="whitesmoke" d="M952,-581C952,-581 1176,-581 1176,-581 1182,-581 1188,-587 1188,-593 1188,-593 1188,-920.68 1188,-920.68 1188,-926.68 1182,-932.68 1176,-932.68 1176,-932.68 952,-932.68 952,-932.68 946,-932.68 940,-926.68 940,-920.68 940,-920.68 940,-593 940,-593 940,-587 946,-581 952,-581"/>
<text text-anchor="middle" x="1064" y="-589.2" font-family="Helvetica,sans-Serif" font-size="14.00">interaction</text>
</a>
</g>
</g>
<g id="clust8" class="cluster">
<title>cluster_kitchen</title>
<g id="a_clust8"><a xlink:title=" ">
<path fill="whitesmoke" stroke="whitesmoke" d="M536,-107.8C536,-107.8 920,-107.8 920,-107.8 926,-107.8 932,-113.8 932,-119.8 932,-119.8 932,-713.68 932,-713.68 932,-719.68 926,-725.68 920,-725.68 920,-725.68 536,-725.68 536,-725.68 530,-725.68 524,-719.68 524,-713.68 524,-713.68 524,-119.8 524,-119.8 524,-113.8 530,-107.8 536,-107.8"/>
<text text-anchor="middle" x="728" y="-116" font-family="Helvetica,sans-Serif" font-size="14.00">kitchen</text>
</a>
</g>
</g>
<g id="clust9" class="cluster">
<title>cluster_safety</title>
<g id="a_clust9"><a xlink:title=" ">
<path fill="whitesmoke" stroke="whitesmoke" d="M1991,-581C1991,-581 2171,-581 2171,-581 2177,-581 2183,-587 2183,-593 2183,-593 2183,-770.68 2183,-770.68 2183,-776.68 2177,-782.68 2171,-782.68 2171,-782.68 1991,-782.68 1991,-782.68 1985,-782.68 1979,-776.68 1979,-770.68 1979,-770.68 1979,-593 1979,-593 1979,-587 1985,-581 1991,-581"/>
<text text-anchor="middle" x="2081" y="-589.2" font-family="Helvetica,sans-Serif" font-size="14.00">safety</text>
</a>
</g>
</g>
<g id="clust10" class="cluster">
<title>cluster_maintenance</title>
<g id="a_clust10"><a xlink:title=" ">
<path fill="whitesmoke" stroke="whitesmoke" d="M1742,-267.4C1742,-267.4 1858,-267.4 1858,-267.4 1864,-267.4 1870,-273.4 1870,-279.4 1870,-279.4 1870,-540 1870,-540 1870,-546 1864,-552 1858,-552 1858,-552 1742,-552 1742,-552 1736,-552 1730,-546 1730,-540 1730,-540 1730,-279.4 1730,-279.4 1730,-273.4 1736,-267.4 1742,-267.4"/>
<text text-anchor="middle" x="1800" y="-275.6" font-family="Helvetica,sans-Serif" font-size="14.00">maintenance</text>
</a>
</g>
</g>
<g id="clust11" class="cluster">
<title>cluster_legend</title>
<g id="a_clust11"><a xlink:title=" ">
<polygon fill="white" stroke="black" points="8,-8 8,-88.8 637,-88.8 637,-8 8,-8"/>
<text text-anchor="middle" x="322.5" y="-16.2" font-family="Helvetica,sans-Serif" font-size="14.00">legend</text>
</a>
</g>
</g>
<g id="clust14" class="cluster">
<title>cluster_nature</title>
<g id="a_clust14"><a xlink:title=" ">
<path fill="whitesmoke" stroke="whitesmoke" d="M1105,-187.6C1105,-187.6 1483,-187.6 1483,-187.6 1489,-187.6 1495,-193.6 1495,-199.6 1495,-199.6 1495,-236.4 1495,-236.4 1495,-242.4 1489,-248.4 1483,-248.4 1483,-248.4 1105,-248.4 1105,-248.4 1099,-248.4 1093,-242.4 1093,-236.4 1093,-236.4 1093,-199.6 1093,-199.6 1093,-193.6 1099,-187.6 1105,-187.6"/>
<text text-anchor="middle" x="1294" y="-195.8" font-family="Helvetica,sans-Serif" font-size="14.00">nature</text>
</a>
</g>
</g>
<g id="clust15" class="cluster">
<title>cluster_values</title>
<g id="a_clust15"><a xlink:title=" ">
<path fill="whitesmoke" stroke="whitesmoke" d="M1187,-1010.68C1187,-1010.68 1409,-1010.68 1409,-1010.68 1415,-1010.68 1421,-1016.68 1421,-1022.68 1421,-1022.68 1421,-1059.48 1421,-1059.48 1421,-1065.48 1415,-1071.48 1409,-1071.48 1409,-1071.48 1187,-1071.48 1187,-1071.48 1181,-1071.48 1175,-1065.48 1175,-1059.48 1175,-1059.48 1175,-1022.68 1175,-1022.68 1175,-1016.68 1181,-1010.68 1187,-1010.68"/>
<text text-anchor="middle" x="1298" y="-1054.88" font-family="Helvetica,sans-Serif" font-size="14.00">values</text>
</a>
</g>
</g>

<g id="shower" class="node">
<title>shower</title>
<g id="a_shower"><a xlink:title=" ">
<polygon fill="white" stroke="black" stroke-dasharray="5,2" points="514.12,-633.8 465.88,-633.8 465.88,-613.8 514.12,-613.8 514.12,-633.8"/>
<text text-anchor="middle" x="490" y="-620.8" font-family="Helvetica,sans-Serif" font-size="10.00">shower</text>
</a>
</g>
</g>

<g id="fridge" class="node">
<title>fridge</title>
<g id="a_fridge"><a xlink:title=" ">
<polygon fill="white" stroke="black" stroke-dasharray="5,2" points="1162.51,-544 1121.49,-544 1121.49,-524 1162.51,-524 1162.51,-544"/>
<text text-anchor="middle" x="1142" y="-531" font-family="Helvetica,sans-Serif" font-size="10.00">fridge</text>
</a>
</g>
</g>

<g id="freezer" class="node">
<title>freezer</title>
<g id="a_freezer"><a xlink:title=" ">
<polygon fill="white" stroke="black" stroke-dasharray="5,2" points="1227.56,-544 1180.44,-544 1180.44,-524 1227.56,-524 1227.56,-544"/>
<text text-anchor="middle" x="1204" y="-531" font-family="Helvetica,sans-Serif" font-size="10.00">freezer</text>
</a>
</g>
</g>

<g id="stress" class="node">
<title>stress</title>
<g id="a_stress"><a xlink:title=" ">
<polygon fill="white" stroke="red" stroke-dasharray="5,2" points="1489.33,-924.68 1446.67,-924.68 1446.67,-904.68 1489.33,-904.68 1489.33,-924.68"/>
<text text-anchor="middle" x="1468" y="-911.68" font-family="Helvetica,sans-Serif" font-size="10.00">stress</text>
</a>
</g>
</g>

<g id="accidents" class="node" colorank="0-3">
<title>accidents</title>
<g id="a_accidents"><a xlink:title=" ">
<polygon fill="white" stroke="red" stroke-dasharray="5,2" points="1491.12,-981.68 1432.88,-981.68 1432.88,-961.68 1491.12,-961.68 1491.12,-981.68"/>
<text text-anchor="middle" x="1462" y="-968.68" font-family="Helvetica,sans-Serif" font-size="10.00">accidents</text>
</a>
</g>
</g>

<g id="stress___accidents" class="edge">
<title>stress-&gt;accidents</title>
<path fill="none" stroke="forestgreen" stroke-width="2" d="M1467.01,-924.77C1466.3,-931.26 1465.32,-940.28 1464.41,-948.61"/>
<polygon fill="forestgreen" stroke="forestgreen" stroke-width="2" points="1460.95,-948.07 1463.34,-958.4 1467.9,-948.83 1460.95,-948.07"/>
</g>

<g id="Happiness" class="node" distance="5" colorank="0-6">
<title>Happiness</title>
<g id="a_Happiness"><a xlink:title=" ">
<path fill="#31a354" stroke="black" d="M1405.96,-1038.68C1405.96,-1038.68 1356.04,-1038.68 1356.04,-1038.68 1352.71,-1038.68 1349.37,-1035.35 1349.37,-1032.02 1349.37,-1032.02 1349.37,-1025.35 1349.37,-1025.35 1349.37,-1022.02 1352.71,-1018.68 1356.04,-1018.68 1356.04,-1018.68 1405.96,-1018.68 1405.96,-1018.68 1409.29,-1018.68 1412.63,-1022.02 1412.63,-1025.35 1412.63,-1025.35 1412.63,-1032.02 1412.63,-1032.02 1412.63,-1035.35 1409.29,-1038.68 1405.96,-1038.68"/>
<text text-anchor="middle" x="1381" y="-1025.68" font-family="Helvetica,sans-Serif" font-size="10.00" fill="gold">Happiness</text>
</a>
</g>
</g>

<g id="accidents___Happiness" class="edge">
<title>accidents-&gt;Happiness</title>
<path fill="none" stroke="red" stroke-width="2" stroke-dasharray="5,2" d="M1448.26,-982.01C1436.51,-989.99 1419.31,-1001.67 1405.25,-1011.22"/>
<polygon fill="red" stroke="red" stroke-width="2" points="1403.62,-1008.09 1397.31,-1016.61 1407.55,-1013.89 1403.62,-1008.09"/>
</g>

<g id="waste" class="node">
<title>waste</title>
<g id="a_waste"><a xlink:title=" ">
<polygon fill="white" stroke="red" stroke-dasharray="5,2" points="474.06,-387.2 431.94,-387.2 431.94,-367.2 474.06,-367.2 474.06,-387.2"/>
<text text-anchor="middle" x="453" y="-374.2" font-family="Helvetica,sans-Serif" font-size="10.00">waste</text>
</a>
</g>
</g>

<g id="consume_responsibly" class="node">
<title>consume_responsibly</title>
<g id="a_consume_responsibly"><a xlink:title=" ">
<path fill="#bae4b3" stroke="black" d="M622.29,-867.68C622.29,-867.68 579.71,-867.68 579.71,-867.68 573.71,-867.68 567.71,-861.68 567.71,-855.68 567.71,-855.68 567.71,-823.68 567.71,-823.68 567.71,-817.68 573.71,-811.68 579.71,-811.68 579.71,-811.68 622.29,-811.68 622.29,-811.68 628.29,-811.68 634.29,-817.68 634.29,-823.68 634.29,-823.68 634.29,-855.68 634.29,-855.68 634.29,-861.68 628.29,-867.68 622.29,-867.68"/>
<text text-anchor="middle" x="601" y="-854.68" font-family="Helvetica,sans-Serif" font-size="10.00">consume</text>
<text text-anchor="middle" x="601" y="-842.68" font-family="Helvetica,sans-Serif" font-size="10.00">limited</text>
<text text-anchor="middle" x="601" y="-830.68" font-family="Helvetica,sans-Serif" font-size="10.00">resources</text>
<text text-anchor="middle" x="601" y="-818.68" font-family="Helvetica,sans-Serif" font-size="10.00">responsibly</text>
</a>
</g>
</g>

<g id="waste___consume_responsibly" class="edge">
<title>waste-&gt;consume_responsibly</title>
<path fill="none" stroke="red" stroke-width="2" stroke-dasharray="5,2" d="M437.95,-387.69C422.28,-398.87 400,-419.03 400,-443.2 400,-443.2 400,-443.2 400,-765.68 400,-798.39 495.19,-820.65 554.56,-831.36"/>
<polygon fill="red" stroke="red" stroke-width="2" points="553.92,-834.8 564.37,-833.07 555.12,-827.9 553.92,-834.8"/>
</g>

<g id="pesticides" class="node">
<title>pesticides</title>
<g id="a_pesticides"><a xlink:title=" ">
<polygon fill="white" stroke="red" stroke-dasharray="5,2" points="404.23,-240.4 343.77,-240.4 343.77,-220.4 404.23,-220.4 404.23,-240.4"/>
<text text-anchor="middle" x="374" y="-227.4" font-family="Helvetica,sans-Serif" font-size="10.00">pesticides</text>
</a>
</g>
</g>

<g id="food" class="node">
<title>food</title>
<g id="a_food"><a xlink:title="food provisions">
<polygon fill="#bdd7e7" stroke="black" points="567,-330.2 531.54,-310.2 567,-290.2 602.46,-310.2 567,-330.2"/>
<text text-anchor="middle" x="567" y="-307.2" font-family="Helvetica,sans-Serif" font-size="10.00">food</text>
</a>
</g>
</g>

<g id="pesticides___food" class="edge">
<title>pesticides-&gt;food</title>
<path fill="none" stroke="red" stroke-width="2" stroke-dasharray="5,2" d="M397.28,-240.78C431.67,-254.65 496.17,-280.65 534.99,-296.3"/>
<polygon fill="red" stroke="red" stroke-width="2" points="533.46,-299.46 544.05,-299.95 536.08,-292.96 533.46,-299.46"/>
</g>

<g id="Sustainability" class="node">
<title>Sustainability</title>
<g id="a_Sustainability"><a xlink:title=" ">
<path fill="#31a354" stroke="black" d="M1250.79,-1038.68C1250.79,-1038.68 1189.21,-1038.68 1189.21,-1038.68 1185.87,-1038.68 1182.54,-1035.35 1182.54,-1032.02 1182.54,-1032.02 1182.54,-1025.35 1182.54,-1025.35 1182.54,-1022.02 1185.87,-1018.68 1189.21,-1018.68 1189.21,-1018.68 1250.79,-1018.68 1250.79,-1018.68 1254.13,-1018.68 1257.46,-1022.02 1257.46,-1025.35 1257.46,-1025.35 1257.46,-1032.02 1257.46,-1032.02 1257.46,-1035.35 1254.13,-1038.68 1250.79,-1038.68"/>
<text text-anchor="middle" x="1220" y="-1025.68" font-family="Helvetica,sans-Serif" font-size="10.00" fill="gold">Sustainability</text>
</a>
</g>
</g>

<g id="pesticides___Sustainability" class="edge">
<title>pesticides-&gt;Sustainability</title>
<path fill="none" stroke="red" stroke-width="2" stroke-dasharray="5,2" d="M371.69,-240.43C368.2,-254.86 362,-284.05 362,-309.2 362,-309.2 362,-309.2 362,-972.68 362,-1013.39 985.13,-1024.66 1169.32,-1027.1"/>
<polygon fill="red" stroke="red" stroke-width="2" points="1169.23,-1030.6 1179.28,-1027.23 1169.32,-1023.6 1169.23,-1030.6"/>
</g>

<g id="fossils" class="node">
<title>fossils</title>
<g id="a_fossils"><a xlink:title=" ">
<polygon fill="white" stroke="red" stroke-dasharray="5,2" points="1366.89,-240.4 1323.11,-240.4 1323.11,-220.4 1366.89,-220.4 1366.89,-240.4"/>
<text text-anchor="middle" x="1345" y="-227.4" font-family="Helvetica,sans-Serif" font-size="10.00">fossils</text>
</a>
</g>
</g>

<g id="propulsion" class="node">
<title>propulsion</title>
<g id="a_propulsion"><a xlink:title=" ">
<path fill="white" stroke="black" d="M1430.4,-633.8C1430.4,-633.8 1381.6,-633.8 1381.6,-633.8 1378.26,-633.8 1374.93,-630.47 1374.93,-627.13 1374.93,-627.13 1374.93,-620.47 1374.93,-620.47 1374.93,-617.13 1378.26,-613.8 1381.6,-613.8 1381.6,-613.8 1430.4,-613.8 1430.4,-613.8 1433.74,-613.8 1437.07,-617.13 1437.07,-620.47 1437.07,-620.47 1437.07,-627.13 1437.07,-627.13 1437.07,-630.47 1433.74,-633.8 1430.4,-633.8"/>
<text text-anchor="middle" x="1406" y="-620.8" font-family="Helvetica,sans-Serif" font-size="10.00">propulsion</text>
</a>
</g>
</g>

<g id="fossils___propulsion" class="edge">
<title>fossils-&gt;propulsion</title>
<path fill="none" stroke="forestgreen" stroke-width="2" stroke-dasharray="5,2" d="M1345.19,-240.5C1345.48,-255.03 1346,-284.35 1346,-309.2 1346,-309.2 1346,-309.2 1346,-535 1346,-563.09 1367.19,-588.8 1384.39,-605.04"/>
<polygon fill="forestgreen" stroke="forestgreen" stroke-width="2" points="1381.79,-607.42 1391.59,-611.44 1386.44,-602.19 1381.79,-607.42"/>
</g>

<g id="schedule" class="node">
<title>schedule</title>
<g id="a_schedule"><a xlink:title=" ">
<polygon fill="white" stroke="red" stroke-dasharray="5,2" points="1514.01,-774.68 1457.99,-774.68 1457.99,-754.68 1514.01,-754.68 1514.01,-774.68"/>
<text text-anchor="middle" x="1486" y="-761.68" font-family="Helvetica,sans-Serif" font-size="10.00">schedule</text>
</a>
</g>
</g>

<g id="tourist" class="node">
<title>tourist</title>
<g id="a_tourist"><a xlink:title=" ">
<polygon fill="white" stroke="red" stroke-dasharray="5,2" points="1503.62,-849.68 1460.38,-849.68 1460.38,-829.68 1503.62,-829.68 1503.62,-849.68"/>
<text text-anchor="middle" x="1482" y="-836.68" font-family="Helvetica,sans-Serif" font-size="10.00">tourist</text>
</a>
</g>
</g>

<g id="schedule___tourist" class="edge">
<title>schedule-&gt;tourist</title>
<path fill="none" stroke="forestgreen" stroke-width="2" d="M1485.49,-774.93C1484.93,-785.29 1483.98,-802.47 1483.22,-816.39"/>
<polygon fill="forestgreen" stroke="forestgreen" stroke-width="2" points="1479.73,-816.08 1482.68,-826.26 1486.72,-816.47 1479.73,-816.08"/>
</g>

<g id="tourist___stress" class="edge">
<title>tourist-&gt;stress</title>
<path fill="none" stroke="forestgreen" stroke-width="2" d="M1480.23,-849.93C1478.22,-860.4 1474.88,-877.83 1472.19,-891.82"/>
<polygon fill="forestgreen" stroke="forestgreen" stroke-width="2" points="1468.82,-890.83 1470.37,-901.31 1475.69,-892.15 1468.82,-890.83"/>
</g>

<g id="avoid" class="node">
<title>avoid</title>
<g id="a_avoid"><a xlink:title=" ">
<polygon fill="white" stroke="red" stroke-dasharray="5,2" points="284.95,-70.8 245.05,-70.8 245.05,-50.8 284.95,-50.8 284.95,-70.8"/>
<text text-anchor="middle" x="265" y="-57.8" font-family="Helvetica,sans-Serif" font-size="10.00">avoid</text>
</a>
</g>
</g>

<g id="ltd" class="node">
<title>ltd</title>
<g id="a_ltd"><a xlink:title="limited capacity">
<polygon fill="#bdd7e7" stroke="black" points="347,-80.8 320.44,-60.8 347,-40.8 373.56,-60.8 347,-80.8"/>
<text text-anchor="middle" x="347" y="-57.8" font-family="Helvetica,sans-Serif" font-size="10.00">ltd</text>
</a>
</g>
</g>


<g id="food___waste" class="edge">
<title>food-&gt;waste</title>
<path fill="none" stroke="red" stroke-width="2" stroke-dasharray="5,2" d="M550.18,-320.79C531.89,-331.22 502.37,-348.05 480.66,-360.43"/>
<polygon fill="red" stroke="red" stroke-width="2" points="479.1,-357.29 472.15,-365.28 482.57,-363.37 479.1,-357.29"/>
</g>

<g id="consume_responsibly_f" class="node">
<title>consume_responsibly_f</title>
<g id="a_consume_responsibly_f"><a xlink:title=" ">
<path fill="#bae4b3" stroke="black" d="M587.02,-454.2C587.02,-454.2 540.98,-454.2 540.98,-454.2 537.65,-454.2 534.32,-450.87 534.32,-447.53 534.32,-447.53 534.32,-440.87 534.32,-440.87 534.32,-437.53 537.65,-434.2 540.98,-434.2 540.98,-434.2 587.02,-434.2 587.02,-434.2 590.35,-434.2 593.68,-437.53 593.68,-440.87 593.68,-440.87 593.68,-447.53 593.68,-447.53 593.68,-450.87 590.35,-454.2 587.02,-454.2"/>
<text text-anchor="middle" x="564" y="-441.2" font-family="Helvetica,sans-Serif" font-size="10.00">save food</text>
</a>
</g>
</g>

<g id="food___consume_responsibly_f" class="edge">
<title>food-&gt;consume_responsibly_f</title>
<path fill="none" stroke="forestgreen" stroke-width="2" d="M566.56,-330.39C566.02,-354.42 565.08,-395.5 564.51,-420.9"/>
<polygon fill="forestgreen" stroke="forestgreen" stroke-width="2" points="561.01,-420.69 564.28,-430.77 568.01,-420.85 561.01,-420.69"/>
</g>

<g id="in_one_place" class="node exit" distance="0" colorank="5-6">
<title>in_one_place</title>
<g id="a_in_one_place"><a xlink:title=" ">
<path fill="#edf8e9" stroke="black" d="M799.08,-544C799.08,-544 736.92,-544 736.92,-544 733.58,-544 730.25,-540.67 730.25,-537.33 730.25,-537.33 730.25,-530.67 730.25,-530.67 730.25,-527.33 733.58,-524 736.92,-524 736.92,-524 799.08,-524 799.08,-524 802.42,-524 805.75,-527.33 805.75,-530.67 805.75,-530.67 805.75,-537.33 805.75,-537.33 805.75,-540.67 802.42,-544 799.08,-544"/>
<text text-anchor="middle" x="768" y="-531" font-family="Helvetica,sans-Serif" font-size="10.00">in_one_place</text>
</a>
</g>
</g>

<g id="food___in_one_place" class="edge">
<title>food-&gt;in_one_place</title>
<path fill="none" stroke="forestgreen" stroke-width="2" d="M578.68,-324.08C612.58,-361.49 711.14,-470.26 750.99,-514.23"/>
<polygon fill="forestgreen" stroke="forestgreen" stroke-width="2" points="748.24,-516.4 757.55,-521.46 753.42,-511.7 748.24,-516.4"/>
</g>

<g id="battery" class="node">
<title>battery</title>
<g id="a_battery"><a xlink:title="battery capacity">
<polygon fill="#bdd7e7" stroke="black" points="1271,-464.2 1224.43,-444.2 1271,-424.2 1317.57,-444.2 1271,-464.2"/>
<text text-anchor="middle" x="1271" y="-441.2" font-family="Helvetica,sans-Serif" font-size="10.00">battery</text>
</a>
</g>
</g>

<g id="battery___fridge" class="edge">
<title>battery-&gt;fridge</title>
<path fill="none" stroke="forestgreen" stroke-width="2" stroke-dasharray="5,2" d="M1244.2,-453.15C1222.71,-460.49 1192.67,-473.03 1171,-491.2 1163.98,-497.09 1157.88,-505.07 1153.12,-512.48"/>
<polygon fill="forestgreen" stroke="forestgreen" stroke-width="2" points="1150.17,-510.59 1148.14,-520.99 1156.21,-514.13 1150.17,-510.59"/>
</g>

<g id="battery___freezer" class="edge">
<title>battery-&gt;freezer</title>
<path fill="none" stroke="forestgreen" stroke-width="2" stroke-dasharray="5,2" d="M1259.94,-459.7C1248.7,-474.42 1231.24,-497.31 1218.82,-513.59"/>
<polygon fill="forestgreen" stroke="forestgreen" stroke-width="2" points="1216.28,-511.14 1212.99,-521.21 1221.84,-515.39 1216.28,-511.14"/>
</g>

<g id="cook_smarter" class="node">
<title>cook_smarter</title>
<g id="a_cook_smarter"><a xlink:title=" ">
<path fill="#edf8e9" stroke="black" d="M601.62,-633.8C601.62,-633.8 538.38,-633.8 538.38,-633.8 535.05,-633.8 531.71,-630.47 531.71,-627.13 531.71,-627.13 531.71,-620.47 531.71,-620.47 531.71,-617.13 535.05,-613.8 538.38,-613.8 538.38,-613.8 601.62,-613.8 601.62,-613.8 604.95,-613.8 608.29,-617.13 608.29,-620.47 608.29,-620.47 608.29,-627.13 608.29,-627.13 608.29,-630.47 604.95,-633.8 601.62,-633.8"/>
<text text-anchor="middle" x="570" y="-620.8" font-family="Helvetica,sans-Serif" font-size="10.00">cook_smarter</text>
</a>
</g>
</g>

<g id="battery___cook_smarter" class="edge">
<title>battery-&gt;cook_smarter</title>
<path fill="none" stroke="forestgreen" stroke-width="2" d="M1271.19,-464.64C1270.26,-489.8 1264.45,-532.88 1237,-554 1182.35,-596.04 680.9,-555.09 617,-581 604.93,-585.9 593.9,-595.31 585.56,-603.96"/>
<polygon fill="forestgreen" stroke="forestgreen" stroke-width="2" points="583.16,-601.4 579.13,-611.2 588.39,-606.05 583.16,-601.4"/>
</g>

<g id="el_engines" class="node">
<title>el_engines</title>
<g id="a_el_engines"><a xlink:title=" ">
<path fill="white" stroke="black" d="M1431.52,-544C1431.52,-544 1380.48,-544 1380.48,-544 1377.15,-544 1373.81,-540.67 1373.81,-537.33 1373.81,-537.33 1373.81,-530.67 1373.81,-530.67 1373.81,-527.33 1377.15,-524 1380.48,-524 1380.48,-524 1431.52,-524 1431.52,-524 1434.85,-524 1438.19,-527.33 1438.19,-530.67 1438.19,-530.67 1438.19,-537.33 1438.19,-537.33 1438.19,-540.67 1434.85,-544 1431.52,-544"/>
<text text-anchor="middle" x="1406" y="-531" font-family="Helvetica,sans-Serif" font-size="10.00">el_engines</text>
</a>
</g>
</g>

<g id="battery___el_engines" class="edge">
<title>battery-&gt;el_engines</title>
<path fill="none" stroke="forestgreen" d="M1288.93,-456.86C1312.97,-472.49 1355.71,-500.29 1382.36,-517.62"/>
<polygon fill="forestgreen" stroke="forestgreen" points="1380.15,-520.36 1390.44,-522.88 1383.97,-514.5 1380.15,-520.36"/>
</g>

<g id="water" class="node">
<title>water</title>
<g id="a_water"><a xlink:title="freshwater stores">
<polygon fill="#bdd7e7" stroke="black" points="572,-554 531.55,-534 572,-514 612.45,-534 572,-554"/>
<text text-anchor="middle" x="572" y="-531" font-family="Helvetica,sans-Serif" font-size="10.00">water</text>
</a>
</g>
</g>

<g id="water___shower" class="edge">
<title>water-&gt;shower</title>
<path fill="none" stroke="forestgreen" stroke-width="2" stroke-dasharray="5,2" d="M557.07,-546.68C546.22,-555.53 531.47,-568.3 520,-581 513.94,-587.71 507.99,-595.64 503,-602.78"/>
<polygon fill="forestgreen" stroke="forestgreen" stroke-width="2" points="500.24,-600.62 497.57,-610.87 506.05,-604.52 500.24,-600.62"/>
</g>

<g id="water___cook_smarter" class="edge">
<title>water-&gt;cook_smarter</title>
<path fill="none" stroke="forestgreen" stroke-width="2" d="M571.57,-554.05C571.25,-567.82 570.83,-586.45 570.5,-600.85"/>
<polygon fill="forestgreen" stroke="forestgreen" stroke-width="2" points="567.01,-600.39 570.28,-610.46 574.01,-600.55 567.01,-600.39"/>
</g>

<g id="space" class="node">
<title>space</title>
<g id="a_space"><a xlink:title=" ">
<polygon fill="#bdd7e7" stroke="black" points="1164,-464.2 1121.32,-444.2 1164,-424.2 1206.68,-444.2 1164,-464.2"/>
<text text-anchor="middle" x="1164" y="-441.2" font-family="Helvetica,sans-Serif" font-size="10.00">space</text>
</a>
</g>
</g>

<g id="space___fridge" class="edge">
<title>space-&gt;fridge</title>
<path fill="none" stroke="forestgreen" stroke-width="2" stroke-dasharray="5,2" d="M1159.65,-462.55C1156.16,-476.48 1151.24,-496.14 1147.47,-511.15"/>
<polygon fill="forestgreen" stroke="forestgreen" stroke-width="2" points="1144.08,-510.29 1145.05,-520.84 1150.87,-511.99 1144.08,-510.29"/>
</g>

<g id="space___freezer" class="edge">
<title>space-&gt;freezer</title>
<path fill="none" stroke="forestgreen" stroke-width="2" stroke-dasharray="5,2" d="M1171.34,-461.3C1177.89,-475.69 1187.53,-496.85 1194.64,-512.45"/>
<polygon fill="forestgreen" stroke="forestgreen" stroke-width="2" points="1191.31,-513.58 1198.64,-521.23 1197.68,-510.67 1191.31,-513.58"/>
</g>

<g id="goal" class="node">
<title>goal</title>
<g id="a_goal"><a xlink:title=" ">
<path fill="#74c476" stroke="black" d="M437.79,-70.8C437.79,-70.8 416.21,-70.8 416.21,-70.8 412.88,-70.8 409.55,-67.47 409.55,-64.13 409.55,-64.13 409.55,-57.47 409.55,-57.47 409.55,-54.13 412.88,-50.8 416.21,-50.8 416.21,-50.8 437.79,-50.8 437.79,-50.8 441.12,-50.8 444.45,-54.13 444.45,-57.47 444.45,-57.47 444.45,-64.13 444.45,-64.13 444.45,-67.47 441.12,-70.8 437.79,-70.8"/>
<text text-anchor="middle" x="427" y="-57.8" font-family="Helvetica,sans-Serif" font-size="10.00">goal</text>
</a>
</g>
</g>


<g id="principle" class="node">
<title>principle</title>
<g id="a_principle"><a xlink:title=" ">
<path fill="#bae4b3" stroke="black" d="M526.95,-70.8C526.95,-70.8 487.05,-70.8 487.05,-70.8 483.71,-70.8 480.38,-67.47 480.38,-64.13 480.38,-64.13 480.38,-57.47 480.38,-57.47 480.38,-54.13 483.71,-50.8 487.05,-50.8 487.05,-50.8 526.95,-50.8 526.95,-50.8 530.29,-50.8 533.62,-54.13 533.62,-57.47 533.62,-57.47 533.62,-64.13 533.62,-64.13 533.62,-67.47 530.29,-70.8 526.95,-70.8"/>
<text text-anchor="middle" x="507" y="-57.8" font-family="Helvetica,sans-Serif" font-size="10.00">principle</text>
</a>
</g>
</g>


<g id="Growth" class="node">
<title>Growth</title>
<g id="a_Growth"><a xlink:title=" ">
<path fill="#74c476" stroke="black" d="M1173.45,-924.68C1173.45,-924.68 1138.55,-924.68 1138.55,-924.68 1135.22,-924.68 1131.88,-921.35 1131.88,-918.02 1131.88,-918.02 1131.88,-911.35 1131.88,-911.35 1131.88,-908.02 1135.22,-904.68 1138.55,-904.68 1138.55,-904.68 1173.45,-904.68 1173.45,-904.68 1176.78,-904.68 1180.12,-908.02 1180.12,-911.35 1180.12,-911.35 1180.12,-918.02 1180.12,-918.02 1180.12,-921.35 1176.78,-924.68 1173.45,-924.68"/>
<text text-anchor="middle" x="1156" y="-911.68" font-family="Helvetica,sans-Serif" font-size="10.00">Growth</text>
</a>
</g>
</g>

<g id="Health" class="node">
<title>Health</title>
<g id="a_Health"><a xlink:title=" ">
<path fill="#74c476" stroke="black" d="M1764.79,-633.8C1764.79,-633.8 1733.21,-633.8 1733.21,-633.8 1729.88,-633.8 1726.55,-630.47 1726.55,-627.13 1726.55,-627.13 1726.55,-620.47 1726.55,-620.47 1726.55,-617.13 1729.88,-613.8 1733.21,-613.8 1733.21,-613.8 1764.79,-613.8 1764.79,-613.8 1768.12,-613.8 1771.45,-617.13 1771.45,-620.47 1771.45,-620.47 1771.45,-627.13 1771.45,-627.13 1771.45,-630.47 1768.12,-633.8 1764.79,-633.8"/>
<text text-anchor="middle" x="1749" y="-620.8" font-family="Helvetica,sans-Serif" font-size="10.00">Health</text>
</a>
</g>
</g>

<g id="Autonomy" class="node">
<title>Autonomy</title>
<g id="a_Autonomy"><a xlink:title=" ">
<path fill="#74c476" stroke="black" d="M1306.85,-981.68C1306.85,-981.68 1259.15,-981.68 1259.15,-981.68 1255.82,-981.68 1252.49,-978.35 1252.49,-975.02 1252.49,-975.02 1252.49,-968.35 1252.49,-968.35 1252.49,-965.02 1255.82,-961.68 1259.15,-961.68 1259.15,-961.68 1306.85,-961.68 1306.85,-961.68 1310.18,-961.68 1313.51,-965.02 1313.51,-968.35 1313.51,-968.35 1313.51,-975.02 1313.51,-975.02 1313.51,-978.35 1310.18,-981.68 1306.85,-981.68"/>
<text text-anchor="middle" x="1283" y="-968.68" font-family="Helvetica,sans-Serif" font-size="10.00">Autonomy</text>
</a>
</g>
</g>

<g id="Freedom" class="node">
<title>Freedom</title>
<g id="a_Freedom"><a xlink:title=" ">
<path fill="#31a354" stroke="black" d="M1324.34,-1038.68C1324.34,-1038.68 1281.66,-1038.68 1281.66,-1038.68 1278.33,-1038.68 1274.99,-1035.35 1274.99,-1032.02 1274.99,-1032.02 1274.99,-1025.35 1274.99,-1025.35 1274.99,-1022.02 1278.33,-1018.68 1281.66,-1018.68 1281.66,-1018.68 1324.34,-1018.68 1324.34,-1018.68 1327.67,-1018.68 1331.01,-1022.02 1331.01,-1025.35 1331.01,-1025.35 1331.01,-1032.02 1331.01,-1032.02 1331.01,-1035.35 1327.67,-1038.68 1324.34,-1038.68"/>
<text text-anchor="middle" x="1303" y="-1025.68" font-family="Helvetica,sans-Serif" font-size="10.00" fill="gold">Freedom</text>
</a>
</g>
</g>

<g id="Autonomy___Freedom" class="edge">
<title>Autonomy-&gt;Freedom</title>
<path fill="none" stroke="forestgreen" stroke-width="2" d="M1286.3,-981.77C1288.72,-988.41 1292.1,-997.72 1295.19,-1006.22"/>
<polygon fill="forestgreen" stroke="forestgreen" stroke-width="2" points="1291.88,-1007.36 1298.59,-1015.56 1298.46,-1004.97 1291.88,-1007.36"/>
</g>

<g id="zero_emission" class="node">
<title>zero_emission</title>
<g id="a_zero_emission"><a xlink:title=" ">
<path fill="#74c476" stroke="black" d="M1227.57,-981.68C1227.57,-981.68 1160.43,-981.68 1160.43,-981.68 1157.1,-981.68 1153.76,-978.35 1153.76,-975.02 1153.76,-975.02 1153.76,-968.35 1153.76,-968.35 1153.76,-965.02 1157.1,-961.68 1160.43,-961.68 1160.43,-961.68 1227.57,-961.68 1227.57,-961.68 1230.9,-961.68 1234.24,-965.02 1234.24,-968.35 1234.24,-968.35 1234.24,-975.02 1234.24,-975.02 1234.24,-978.35 1230.9,-981.68 1227.57,-981.68"/>
<text text-anchor="middle" x="1194" y="-968.68" font-family="Helvetica,sans-Serif" font-size="10.00">zero_emission</text>
</a>
</g>
</g>

<g id="zero_emission___Sustainability" class="edge">
<title>zero_emission-&gt;Sustainability</title>
<path fill="none" stroke="forestgreen" stroke-width="2" d="M1198.29,-981.77C1201.51,-988.57 1206.04,-998.16 1210.14,-1006.82"/>
<polygon fill="forestgreen" stroke="forestgreen" stroke-width="2" points="1206.88,-1008.12 1214.32,-1015.67 1213.21,-1005.13 1206.88,-1008.12"/>
</g>

<g id="zero_waste" class="node">
<title>zero_waste</title>
<g id="a_zero_waste"><a xlink:title=" ">
<path fill="#74c476" stroke="black" d="M890.9,-981.68C890.9,-981.68 837.1,-981.68 837.1,-981.68 833.76,-981.68 830.43,-978.35 830.43,-975.02 830.43,-975.02 830.43,-968.35 830.43,-968.35 830.43,-965.02 833.76,-961.68 837.1,-961.68 837.1,-961.68 890.9,-961.68 890.9,-961.68 894.24,-961.68 897.57,-965.02 897.57,-968.35 897.57,-968.35 897.57,-975.02 897.57,-975.02 897.57,-978.35 894.24,-981.68 890.9,-981.68"/>
<text text-anchor="middle" x="864" y="-968.68" font-family="Helvetica,sans-Serif" font-size="10.00">zero_waste</text>
</a>
</g>
</g>

<g id="zero_waste___Sustainability" class="edge">
<title>zero_waste-&gt;Sustainability</title>
<path fill="none" stroke="forestgreen" stroke-width="2" d="M897.81,-977.91C960.69,-987.62 1095.87,-1008.51 1169.57,-1019.89"/>
<polygon fill="forestgreen" stroke="forestgreen" stroke-width="2" points="1168.75,-1023.31 1179.16,-1021.38 1169.81,-1016.39 1168.75,-1023.31"/>
</g>

<g id="Travel" class="node">
<title>Travel</title>
<g id="a_Travel"><a xlink:title=" ">
<path fill="#74c476" stroke="#006d2c" d="M1407.22,-981.68C1407.22,-981.68 1376.78,-981.68 1376.78,-981.68 1373.44,-981.68 1370.11,-978.35 1370.11,-975.02 1370.11,-975.02 1370.11,-968.35 1370.11,-968.35 1370.11,-965.02 1373.44,-961.68 1376.78,-961.68 1376.78,-961.68 1407.22,-961.68 1407.22,-961.68 1410.56,-961.68 1413.89,-965.02 1413.89,-968.35 1413.89,-968.35 1413.89,-975.02 1413.89,-975.02 1413.89,-978.35 1410.56,-981.68 1407.22,-981.68"/>
<text text-anchor="middle" x="1392" y="-968.68" font-family="Helvetica,sans-Serif" font-size="10.00">Travel</text>
</a>
</g>
</g>

<g id="Travel___Freedom" class="edge">
<title>Travel-&gt;Freedom</title>
<path fill="none" stroke="forestgreen" stroke-width="2" d="M1376.9,-982.01C1363.86,-990.07 1344.72,-1001.9 1329.19,-1011.5"/>
<polygon fill="forestgreen" stroke="forestgreen" stroke-width="2" points="1327.41,-1008.48 1320.75,-1016.72 1331.09,-1014.44 1327.41,-1008.48"/>
</g>

<g id="Travel___Happiness" class="edge">
<title>Travel-&gt;Happiness</title>
<path fill="none" stroke="forestgreen" stroke-width="2" d="M1390.18,-981.77C1388.87,-988.33 1387.04,-997.5 1385.35,-1005.91"/>
<polygon fill="forestgreen" stroke="forestgreen" stroke-width="2" points="1381.98,-1004.94 1383.45,-1015.44 1388.84,-1006.32 1381.98,-1004.94"/>
</g>

<g id="Missions" class="node">
<title>Missions</title>
<g id="a_Missions"><a xlink:title=" ">
<path fill="#74c476" stroke="#006d2c" d="M1576.78,-981.68C1576.78,-981.68 1535.22,-981.68 1535.22,-981.68 1531.89,-981.68 1528.55,-978.35 1528.55,-975.02 1528.55,-975.02 1528.55,-968.35 1528.55,-968.35 1528.55,-965.02 1531.89,-961.68 1535.22,-961.68 1535.22,-961.68 1576.78,-961.68 1576.78,-961.68 1580.11,-961.68 1583.45,-965.02 1583.45,-968.35 1583.45,-968.35 1583.45,-975.02 1583.45,-975.02 1583.45,-978.35 1580.11,-981.68 1576.78,-981.68"/>
<text text-anchor="middle" x="1556" y="-968.68" font-family="Helvetica,sans-Serif" font-size="10.00">Missions</text>
</a>
</g>
</g>

<g id="Missions___Happiness" class="edge">
<title>Missions-&gt;Happiness</title>
<path fill="none" stroke="forestgreen" stroke-width="2" d="M1528.27,-981.4C1500.02,-990.28 1455.86,-1004.16 1423.25,-1014.41"/>
<polygon fill="forestgreen" stroke="forestgreen" stroke-width="2" points="1422.32,-1011.03 1413.83,-1017.37 1424.42,-1017.71 1422.32,-1011.03"/>
</g>

<g id="houserule" class="node">
<title>houserule</title>
<g id="a_houserule"><a xlink:title=" ">
<path fill="#edf8e9" stroke="black" d="M622.29,-70.8C622.29,-70.8 575.71,-70.8 575.71,-70.8 572.37,-70.8 569.04,-67.47 569.04,-64.13 569.04,-64.13 569.04,-57.47 569.04,-57.47 569.04,-54.13 572.37,-50.8 575.71,-50.8 575.71,-50.8 622.29,-50.8 622.29,-50.8 625.63,-50.8 628.96,-54.13 628.96,-57.47 628.96,-57.47 628.96,-64.13 628.96,-64.13 628.96,-67.47 625.63,-70.8 622.29,-70.8"/>
<text text-anchor="middle" x="599" y="-57.8" font-family="Helvetica,sans-Serif" font-size="10.00">houserule</text>
</a>
</g>
</g>


<g id="Efficiency" class="node" distance="4" colorank="1-6">
<title>Efficiency</title>
<g id="a_Efficiency"><a xlink:title=" ">
<path fill="#bae4b3" stroke="black" d="M1303.73,-849.68C1303.73,-849.68 1258.27,-849.68 1258.27,-849.68 1254.94,-849.68 1251.6,-846.35 1251.6,-843.02 1251.6,-843.02 1251.6,-836.35 1251.6,-836.35 1251.6,-833.02 1254.94,-829.68 1258.27,-829.68 1258.27,-829.68 1303.73,-829.68 1303.73,-829.68 1307.06,-829.68 1310.4,-833.02 1310.4,-836.35 1310.4,-836.35 1310.4,-843.02 1310.4,-843.02 1310.4,-846.35 1307.06,-849.68 1303.73,-849.68"/>
<text text-anchor="middle" x="1281" y="-836.68" font-family="Helvetica,sans-Serif" font-size="10.00">Efficiency</text>
</a>
</g>
</g>

<g id="wonders_of_nature" class="node">
<title>wonders_of_nature</title>
<g id="a_wonders_of_nature"><a xlink:title=" ">
<path fill="#bae4b3" stroke="black" d="M1480.14,-240.4C1480.14,-240.4 1391.86,-240.4 1391.86,-240.4 1388.53,-240.4 1385.19,-237.07 1385.19,-233.73 1385.19,-233.73 1385.19,-227.07 1385.19,-227.07 1385.19,-223.73 1388.53,-220.4 1391.86,-220.4 1391.86,-220.4 1480.14,-220.4 1480.14,-220.4 1483.47,-220.4 1486.81,-223.73 1486.81,-227.07 1486.81,-227.07 1486.81,-233.73 1486.81,-233.73 1486.81,-237.07 1483.47,-240.4 1480.14,-240.4"/>
<text text-anchor="middle" x="1436" y="-227.4" font-family="Helvetica,sans-Serif" font-size="10.00">wonders_of_nature</text>
</a>
</g>
</g>

<g id="wonders_of_nature___Happiness" class="edge">
<title>wonders_of_nature-&gt;Happiness</title>
<path fill="none" stroke="forestgreen" stroke-width="2" d="M1487.22,-231.21C1658.86,-231.25 2203,-237.05 2203,-309.2 2203,-309.2 2203,-309.2 2203,-972.68 2203,-1011.96 1597.72,-1024.33 1425.95,-1027.05"/>
<polygon fill="forestgreen" stroke="forestgreen" stroke-width="2" points="1425.94,-1023.55 1416,-1027.2 1426.05,-1030.55 1425.94,-1023.55"/>
</g>

<g id="mercilessness_of_nature" class="node" colorank="1-3">
<title>mercilessness_of_nature</title>
<g id="a_mercilessness_of_nature"><a xlink:title=" ">
<path fill="#bae4b3" stroke="black" d="M1318.92,-924.68C1318.92,-924.68 1205.08,-924.68 1205.08,-924.68 1201.75,-924.68 1198.42,-921.35 1198.42,-918.02 1198.42,-918.02 1198.42,-911.35 1198.42,-911.35 1198.42,-908.02 1201.75,-904.68 1205.08,-904.68 1205.08,-904.68 1318.92,-904.68 1318.92,-904.68 1322.25,-904.68 1325.58,-908.02 1325.58,-911.35 1325.58,-911.35 1325.58,-918.02 1325.58,-918.02 1325.58,-921.35 1322.25,-924.68 1318.92,-924.68"/>
<text text-anchor="middle" x="1262" y="-911.68" font-family="Helvetica,sans-Serif" font-size="10.00">mercilessness_of_nature</text>
</a>
</g>
</g>

<g id="mercilessness_of_nature___accidents" class="edge" colorank="1-3">
<title>mercilessness_of_nature-&gt;accidents</title>
<path fill="none" stroke="forestgreen" stroke-width="2" d="M1296.38,-925.14C1330.75,-934.59 1383.63,-949.13 1420.36,-959.23"/>
<polygon fill="forestgreen" stroke="forestgreen" stroke-width="2" points="1419.13,-962.52 1429.7,-961.8 1420.98,-955.77 1419.13,-962.52"/>
</g>

<g id="respect_each_other" class="node exit" distance="4" colorank="1-6">
<title>respect_each_other</title>
<g id="a_respect_each_other"><a xlink:title=" ">
<path fill="#bae4b3" stroke="black" d="M1160.53,-849.68C1160.53,-849.68 1069.47,-849.68 1069.47,-849.68 1066.14,-849.68 1062.8,-846.35 1062.8,-843.02 1062.8,-843.02 1062.8,-836.35 1062.8,-836.35 1062.8,-833.02 1066.14,-829.68 1069.47,-829.68 1069.47,-829.68 1160.53,-829.68 1160.53,-829.68 1163.86,-829.68 1167.2,-833.02 1167.2,-836.35 1167.2,-836.35 1167.2,-843.02 1167.2,-843.02 1167.2,-846.35 1163.86,-849.68 1160.53,-849.68"/>
<text text-anchor="middle" x="1115" y="-836.68" font-family="Helvetica,sans-Serif" font-size="10.00">respect_each_other</text>
</a>
</g>
</g>

<g id="respect_each_other___Happiness" class="edge" distance="4" colorank="1-6">
<title>respect_each_other-&gt;Happiness</title>
<path fill="none" stroke="forestgreen" stroke-width="2" d="M1112.49,-849.99C1108.13,-868.47 1101.54,-909.95 1123,-932.68 1184.67,-997.99 1244.04,-918.87 1323,-961.68 1342.68,-972.36 1358.86,-992.48 1369.08,-1007.72"/>
<polygon fill="forestgreen" stroke="forestgreen" stroke-width="2" points="1366.04,-1009.46 1374.34,-1016.05 1371.96,-1005.73 1366.04,-1009.46"/>
</g>

<g id="respect_the_boat" class="node">
<title>respect_the_boat</title>
<g id="a_respect_the_boat"><a xlink:title=" ">
<path fill="#bae4b3" stroke="black" d="M1854.97,-544C1854.97,-544 1775.03,-544 1775.03,-544 1771.69,-544 1768.36,-540.67 1768.36,-537.33 1768.36,-537.33 1768.36,-530.67 1768.36,-530.67 1768.36,-527.33 1771.69,-524 1775.03,-524 1775.03,-524 1854.97,-524 1854.97,-524 1858.31,-524 1861.64,-527.33 1861.64,-530.67 1861.64,-530.67 1861.64,-537.33 1861.64,-537.33 1861.64,-540.67 1858.31,-544 1854.97,-544"/>
<text text-anchor="middle" x="1815" y="-531" font-family="Helvetica,sans-Serif" font-size="10.00">respect_the_boat</text>
</a>
</g>
</g>

<g id="Boat" class="node">
<title>Boat</title>
<g id="a_Boat"><a xlink:title=" ">
<polygon fill="white" stroke="black" points="1841,-652.08 1789.28,-609.66 1892.72,-609.66 1841,-652.08"/>
<text text-anchor="middle" x="1841" y="-620.8" font-family="Helvetica,sans-Serif" font-size="10.00">Boat</text>
</a>
</g>
</g>

<g id="respect_the_boat___Boat" class="edge">
<title>respect_the_boat-&gt;Boat</title>
<path fill="none" stroke="forestgreen" stroke-width="2" d="M1817.78,-544.4C1821.46,-556.8 1828.07,-579.15 1833.31,-596.82"/>
<polygon fill="forestgreen" stroke="forestgreen" stroke-width="2" points="1829.91,-597.68 1836.11,-606.28 1836.62,-595.69 1829.91,-597.68"/>
</g>

<g id="clean_the_boat" class="node">
<title>clean_the_boat</title>
<g id="a_clean_the_boat"><a xlink:title=" ">
<path fill="#bae4b3" stroke="black" d="M1815.53,-454.2C1815.53,-454.2 1744.47,-454.2 1744.47,-454.2 1741.14,-454.2 1737.8,-450.87 1737.8,-447.53 1737.8,-447.53 1737.8,-440.87 1737.8,-440.87 1737.8,-437.53 1741.14,-434.2 1744.47,-434.2 1744.47,-434.2 1815.53,-434.2 1815.53,-434.2 1818.86,-434.2 1822.2,-437.53 1822.2,-440.87 1822.2,-440.87 1822.2,-447.53 1822.2,-447.53 1822.2,-450.87 1818.86,-454.2 1815.53,-454.2"/>
<text text-anchor="middle" x="1780" y="-441.2" font-family="Helvetica,sans-Serif" font-size="10.00">clean_the_boat</text>
</a>
</g>
</g>

<g id="clean_the_boat___respect_the_boat" class="edge">
<title>clean_the_boat-&gt;respect_the_boat</title>
<path fill="none" stroke="forestgreen" stroke-width="2" d="M1783.75,-454.6C1789.14,-468.13 1799.25,-493.48 1806.51,-511.69"/>
<polygon fill="forestgreen" stroke="forestgreen" stroke-width="2" points="1803.21,-512.87 1810.16,-520.86 1809.71,-510.27 1803.21,-512.87"/>
</g>

<g id="repair_the_boat" class="node">
<title>repair_the_boat</title>
<g id="a_repair_the_boat"><a xlink:title=" ">
<path fill="#bae4b3" stroke="black" d="M1855.36,-387.2C1855.36,-387.2 1782.64,-387.2 1782.64,-387.2 1779.31,-387.2 1775.97,-383.87 1775.97,-380.53 1775.97,-380.53 1775.97,-373.87 1775.97,-373.87 1775.97,-370.53 1779.31,-367.2 1782.64,-367.2 1782.64,-367.2 1855.36,-367.2 1855.36,-367.2 1858.69,-367.2 1862.03,-370.53 1862.03,-373.87 1862.03,-373.87 1862.03,-380.53 1862.03,-380.53 1862.03,-383.87 1858.69,-387.2 1855.36,-387.2"/>
<text text-anchor="middle" x="1819" y="-374.2" font-family="Helvetica,sans-Serif" font-size="10.00">repair_the_boat</text>
</a>
</g>
</g>

<g id="repair_the_boat___respect_the_boat" class="edge">
<title>repair_the_boat-&gt;respect_the_boat</title>
<path fill="none" stroke="forestgreen" stroke-width="2" d="M1826.41,-387.39C1833.01,-396.23 1842.21,-410.26 1846,-424.2 1852.88,-449.5 1853.21,-457.99 1846,-483.2 1842.89,-494.09 1836.62,-504.92 1830.54,-513.69"/>
<polygon fill="forestgreen" stroke="forestgreen" stroke-width="2" points="1827.93,-511.33 1824.74,-521.43 1833.53,-515.53 1827.93,-511.33"/>
</g>

<g id="serve_each_other" class="node exit" distance="3" colorank="2-6">
<title>serve_each_other</title>
<g id="a_serve_each_other"><a xlink:title=" ">
<path fill="#bae4b3" stroke="black" d="M1167.36,-774.68C1167.36,-774.68 1084.64,-774.68 1084.64,-774.68 1081.31,-774.68 1077.97,-771.35 1077.97,-768.02 1077.97,-768.02 1077.97,-761.35 1077.97,-761.35 1077.97,-758.02 1081.31,-754.68 1084.64,-754.68 1084.64,-754.68 1167.36,-754.68 1167.36,-754.68 1170.69,-754.68 1174.03,-758.02 1174.03,-761.35 1174.03,-761.35 1174.03,-768.02 1174.03,-768.02 1174.03,-771.35 1170.69,-774.68 1167.36,-774.68"/>
<text text-anchor="middle" x="1126" y="-761.68" font-family="Helvetica,sans-Serif" font-size="10.00">serve_each_other</text>
</a>
</g>
</g>

<g id="serve_each_other___Efficiency" class="edge" distance="3" colorank="2-6">
<title>serve_each_other-&gt;Efficiency</title>
<path fill="none" stroke="forestgreen" stroke-width="2" d="M1145.95,-775.08C1172.22,-787.45 1218.71,-809.35 1249.7,-823.94"/>
<polygon fill="forestgreen" stroke="forestgreen" stroke-width="2" points="1247.85,-826.94 1258.39,-828.04 1250.84,-820.61 1247.85,-826.94"/>
</g>

<g id="serve_each_other___respect_each_other" class="edge" distance="3" colorank="2-6">
<title>serve_each_other-&gt;respect_each_other</title>
<path fill="none" stroke="forestgreen" stroke-width="2" d="M1124.61,-774.93C1123.03,-785.4 1120.4,-802.83 1118.29,-816.82"/>
<polygon fill="forestgreen" stroke="forestgreen" stroke-width="2" points="1114.9,-815.88 1116.87,-826.29 1121.82,-816.92 1114.9,-815.88"/>
</g>

<g id="prevent_accidents" class="node">
<title>prevent_accidents</title>
<g id="a_prevent_accidents"><a xlink:title=" ">
<path fill="#bae4b3" stroke="black" d="M2077.91,-774.68C2077.91,-774.68 1994.09,-774.68 1994.09,-774.68 1990.75,-774.68 1987.42,-771.35 1987.42,-768.02 1987.42,-768.02 1987.42,-761.35 1987.42,-761.35 1987.42,-758.02 1990.75,-754.68 1994.09,-754.68 1994.09,-754.68 2077.91,-754.68 2077.91,-754.68 2081.25,-754.68 2084.58,-758.02 2084.58,-761.35 2084.58,-761.35 2084.58,-768.02 2084.58,-768.02 2084.58,-771.35 2081.25,-774.68 2077.91,-774.68"/>
<text text-anchor="middle" x="2036" y="-761.68" font-family="Helvetica,sans-Serif" font-size="10.00">prevent_accidents</text>
</a>
</g>
</g>

<g id="prevent_accidents___accidents" class="edge">
<title>prevent_accidents-&gt;accidents</title>
<path fill="none" stroke="red" stroke-width="2" stroke-dasharray="5,2" d="M1986.99,-773.7C1903.29,-788.53 1728.61,-824.43 1592,-885.68 1551.03,-904.05 1508.36,-934.48 1483.54,-953.52"/>
<polygon fill="red" stroke="red" stroke-width="2" points="1481.58,-950.61 1475.84,-959.51 1485.88,-956.13 1481.58,-950.61"/>
</g>

<g id="consume_responsibly___Autonomy" class="edge">
<title>consume_responsibly-&gt;Autonomy</title>
<path fill="none" stroke="forestgreen" stroke-width="2" d="M634.79,-852.07C694.71,-871.79 823.87,-912.15 936,-932.68 1066.73,-956.62 1105.33,-941.16 1239.24,-961.32"/>
<polygon fill="forestgreen" stroke="forestgreen" stroke-width="2" points="1238.66,-964.77 1249.08,-962.85 1239.73,-957.86 1238.66,-964.77"/>
</g>

<g id="consume_responsibly___zero_waste" class="edge">
<title>consume_responsibly-&gt;zero_waste</title>
<path fill="none" stroke="forestgreen" stroke-width="2" d="M634.62,-863.11C669.57,-885.7 726.42,-920.45 779,-943.68 791.32,-949.13 805.09,-953.99 817.89,-958.04"/>
<polygon fill="forestgreen" stroke="forestgreen" stroke-width="2" points="816.8,-961.37 827.38,-960.92 818.83,-954.67 816.8,-961.37"/>
</g>

<g id="consume_responsibly_w" class="node">
<title>consume_responsibly_w</title>
<g id="a_consume_responsibly_w"><a xlink:title=" ">
<path fill="#bae4b3" stroke="black" d="M690.51,-717.68C690.51,-717.68 639.49,-717.68 639.49,-717.68 636.16,-717.68 632.82,-714.35 632.82,-711.02 632.82,-711.02 632.82,-704.35 632.82,-704.35 632.82,-701.02 636.16,-697.68 639.49,-697.68 639.49,-697.68 690.51,-697.68 690.51,-697.68 693.84,-697.68 697.18,-701.02 697.18,-704.35 697.18,-704.35 697.18,-711.02 697.18,-711.02 697.18,-714.35 693.84,-717.68 690.51,-717.68"/>
<text text-anchor="middle" x="665" y="-704.68" font-family="Helvetica,sans-Serif" font-size="10.00">save water</text>
</a>
</g>
</g>

<g id="consume_responsibly_w___consume_responsibly" class="edge">
<title>consume_responsibly_w-&gt;consume_responsibly</title>
<path fill="none" stroke="forestgreen" stroke-width="2" d="M641.54,-718.1C626.4,-725.57 607.92,-737.6 599,-754.68 592.08,-767.95 591.02,-784.08 592.25,-798.64"/>
<polygon fill="forestgreen" stroke="forestgreen" stroke-width="2" points="588.76,-798.97 593.52,-808.44 595.7,-798.07 588.76,-798.97"/>
</g>

<g id="consume_responsibly_f___consume_responsibly" class="edge">
<title>consume_responsibly_f-&gt;consume_responsibly</title>
<path fill="none" stroke="forestgreen" stroke-width="2" d="M533.82,-452.08C496.54,-462.58 438,-486.47 438,-533 438,-533 438,-533 438,-765.68 438,-816.98 506.08,-832.47 554.24,-837"/>
<polygon fill="forestgreen" stroke="forestgreen" stroke-width="2" points="553.97,-840.49 564.21,-837.78 554.51,-833.51 553.97,-840.49"/>
</g>

<g id="consume_responsibly_e" class="node">
<title>consume_responsibly_e</title>
<g id="a_consume_responsibly_e"><a xlink:title=" ">
<path fill="#bae4b3" stroke="black" d="M667.07,-774.68C667.07,-774.68 614.93,-774.68 614.93,-774.68 611.59,-774.68 608.26,-771.35 608.26,-768.02 608.26,-768.02 608.26,-761.35 608.26,-761.35 608.26,-758.02 611.59,-754.68 614.93,-754.68 614.93,-754.68 667.07,-754.68 667.07,-754.68 670.41,-754.68 673.74,-758.02 673.74,-761.35 673.74,-761.35 673.74,-768.02 673.74,-768.02 673.74,-771.35 670.41,-774.68 667.07,-774.68"/>
<text text-anchor="middle" x="641" y="-761.68" font-family="Helvetica,sans-Serif" font-size="10.00">save energ</text>
</a>
</g>
</g>

<g id="consume_responsibly_e___consume_responsibly" class="edge">
<title>consume_responsibly_e-&gt;consume_responsibly</title>
<path fill="none" stroke="forestgreen" stroke-width="2" d="M635.93,-774.93C632.38,-781.42 627.36,-790.59 622.23,-799.95"/>
<polygon fill="forestgreen" stroke="forestgreen" stroke-width="2" points="619.2,-798.19 617.46,-808.64 625.34,-801.55 619.2,-798.19"/>
</g>

<g id="travel_by_wind" class="node">
<title>travel_by_wind</title>
<g id="a_travel_by_wind"><a xlink:title=" ">
<path fill="#bae4b3" stroke="black" d="M1452.69,-717.68C1452.69,-717.68 1383.31,-717.68 1383.31,-717.68 1379.98,-717.68 1376.65,-714.35 1376.65,-711.02 1376.65,-711.02 1376.65,-704.35 1376.65,-704.35 1376.65,-701.02 1379.98,-697.68 1383.31,-697.68 1383.31,-697.68 1452.69,-697.68 1452.69,-697.68 1456.02,-697.68 1459.35,-701.02 1459.35,-704.35 1459.35,-704.35 1459.35,-711.02 1459.35,-711.02 1459.35,-714.35 1456.02,-717.68 1452.69,-717.68"/>
<text text-anchor="middle" x="1418" y="-704.68" font-family="Helvetica,sans-Serif" font-size="10.00">travel_by_wind</text>
</a>
</g>
</g>

<g id="travel_by_wind___schedule" class="edge">
<title>travel_by_wind-&gt;schedule</title>
<path fill="none" stroke="red" stroke-width="2" stroke-dasharray="5,2" d="M1431.61,-718.1C1438.72,-723.15 1447.47,-729.57 1455,-735.68 1458.89,-738.84 1462.93,-742.34 1466.77,-745.75"/>
<polygon fill="red" stroke="red" stroke-width="2" points="1464.2,-748.14 1473.94,-752.29 1468.91,-742.97 1464.2,-748.14"/>
</g>

<g id="travel_by_wind___zero_emission" class="edge">
<title>travel_by_wind-&gt;zero_emission</title>
<path fill="none" stroke="forestgreen" stroke-width="2" d="M1418.44,-718.18C1418.65,-723.35 1418.89,-729.87 1419,-735.68 1419.4,-757.04 1414.08,-761.94 1409,-782.68 1391.32,-854.89 1392.76,-885.89 1335,-932.68 1327.88,-938.46 1283.79,-949.84 1246.78,-958.65"/>
<polygon fill="forestgreen" stroke="forestgreen" stroke-width="2" points="1246.44,-955.13 1237.51,-960.83 1248.05,-961.94 1246.44,-955.13"/>
</g>

<g id="travel_by_wind___Travel" class="edge">
<title>travel_by_wind-&gt;Travel</title>
<path fill="none" stroke="forestgreen" stroke-width="2" d="M1413.23,-717.72C1405.73,-732.81 1392,-764.29 1392,-792.68 1392,-792.68 1392,-792.68 1392,-915.68 1392,-926.46 1392,-938.43 1392,-948.44"/>
<polygon fill="forestgreen" stroke="forestgreen" stroke-width="2" points="1388.5,-948.31 1392,-958.31 1395.5,-948.31 1388.5,-948.31"/>
</g>

<g id="travel_by_wind___consume_responsibly_e" class="edge">
<title>travel_by_wind-&gt;consume_responsibly_e</title>
<path fill="none" stroke="forestgreen" stroke-width="2" d="M1393.97,-718.17C1385.57,-721.09 1375.99,-723.98 1367,-725.68 1300.49,-738.27 835.63,-756.45 686.76,-762.01"/>
<polygon fill="forestgreen" stroke="forestgreen" stroke-width="2" points="687.05,-758.49 677.18,-762.36 687.31,-765.49 687.05,-758.49"/>
</g>

<g id="no_traps" class="node">
<title>no_traps</title>
<g id="a_no_traps"><a xlink:title=" ">
<path fill="#bae4b3" stroke="black" d="M2097.79,-717.68C2097.79,-717.68 2056.21,-717.68 2056.21,-717.68 2052.88,-717.68 2049.54,-714.35 2049.54,-711.02 2049.54,-711.02 2049.54,-704.35 2049.54,-704.35 2049.54,-701.02 2052.88,-697.68 2056.21,-697.68 2056.21,-697.68 2097.79,-697.68 2097.79,-697.68 2101.12,-697.68 2104.46,-701.02 2104.46,-704.35 2104.46,-704.35 2104.46,-711.02 2104.46,-711.02 2104.46,-714.35 2101.12,-717.68 2097.79,-717.68"/>
<text text-anchor="middle" x="2077" y="-704.68" font-family="Helvetica,sans-Serif" font-size="10.00">no_traps</text>
</a>
</g>
</g>

<g id="no_traps___prevent_accidents" class="edge">
<title>no_traps-&gt;prevent_accidents</title>
<path fill="none" stroke="forestgreen" stroke-width="2" d="M2070.23,-717.77C2064.92,-724.89 2057.34,-735.06 2050.66,-744.02"/>
<polygon fill="forestgreen" stroke="forestgreen" stroke-width="2" points="2047.9,-741.87 2044.73,-751.98 2053.51,-746.05 2047.9,-741.87"/>
</g>

<g id="follow" class="node">
<title>follow</title>
<g id="a_follow"><a xlink:title=" ">
<path fill="#bae4b3" stroke="black" d="M1173.12,-717.68C1173.12,-717.68 1144.88,-717.68 1144.88,-717.68 1141.55,-717.68 1138.22,-714.35 1138.22,-711.02 1138.22,-711.02 1138.22,-704.35 1138.22,-704.35 1138.22,-701.02 1141.55,-697.68 1144.88,-697.68 1144.88,-697.68 1173.12,-697.68 1173.12,-697.68 1176.45,-697.68 1179.78,-701.02 1179.78,-704.35 1179.78,-704.35 1179.78,-711.02 1179.78,-711.02 1179.78,-714.35 1176.45,-717.68 1173.12,-717.68"/>
<text text-anchor="middle" x="1159" y="-704.68" font-family="Helvetica,sans-Serif" font-size="10.00">follow</text>
</a>
</g>
</g>

<g id="follow___Efficiency" class="edge">
<title>follow-&gt;Efficiency</title>
<path fill="none" stroke="forestgreen" stroke-width="2" d="M1167.77,-718.03C1187.82,-739.4 1237.29,-792.11 1263.71,-820.26"/>
<polygon fill="forestgreen" stroke="forestgreen" stroke-width="2" points="1260.84,-822.32 1270.23,-827.21 1265.94,-817.53 1260.84,-822.32"/>
</g>

<g id="follow___prevent_accidents" class="edge">
<title>follow-&gt;prevent_accidents</title>
<path fill="none" stroke="forestgreen" stroke-width="2" d="M1180.04,-712.63C1201.37,-716.5 1235.37,-722.3 1265,-725.68 1335.82,-733.78 1353.83,-732.67 1425,-736.68 1625.94,-748.03 1864.28,-757.38 1974.48,-761.46"/>
<polygon fill="forestgreen" stroke="forestgreen" stroke-width="2" points="1974.12,-764.95 1984.25,-761.82 1974.38,-757.96 1974.12,-764.95"/>
</g>

<g id="sort_everything" class="node">
<title>sort_everything</title>
<g id="a_sort_everything"><a xlink:title=" ">
<path fill="#bae4b3" stroke="black" d="M1351.52,-717.68C1351.52,-717.68 1280.48,-717.68 1280.48,-717.68 1277.15,-717.68 1273.82,-714.35 1273.82,-711.02 1273.82,-711.02 1273.82,-704.35 1273.82,-704.35 1273.82,-701.02 1277.15,-697.68 1280.48,-697.68 1280.48,-697.68 1351.52,-697.68 1351.52,-697.68 1354.85,-697.68 1358.18,-701.02 1358.18,-704.35 1358.18,-704.35 1358.18,-711.02 1358.18,-711.02 1358.18,-714.35 1354.85,-717.68 1351.52,-717.68"/>
<text text-anchor="middle" x="1316" y="-704.68" font-family="Helvetica,sans-Serif" font-size="10.00">sort_everything</text>
</a>
</g>
</g>

<g id="sort_everything___Efficiency" class="edge">
<title>sort_everything-&gt;Efficiency</title>
<path fill="none" stroke="forestgreen" stroke-width="2" d="M1313.85,-718.17C1310.24,-733.92 1302.59,-766.45 1295,-793.68 1292.86,-801.37 1290.32,-809.73 1287.99,-817.13"/>
<polygon fill="forestgreen" stroke="forestgreen" stroke-width="2" points="1284.69,-815.95 1284.98,-826.54 1291.36,-818.08 1284.69,-815.95"/>
</g>

<g id="sort_everything___prevent_accidents" class="edge">
<title>sort_everything-&gt;prevent_accidents</title>
<path fill="none" stroke="forestgreen" stroke-width="2" d="M1337.6,-718.18C1345.18,-721.09 1353.83,-723.98 1362,-725.68 1478,-749.82 1831.19,-759.54 1974.55,-762.55"/>
<polygon fill="forestgreen" stroke="forestgreen" stroke-width="2" points="1974.26,-766.05 1984.33,-762.75 1974.4,-759.05 1974.26,-766.05"/>
</g>

<g id="clean_dishes_immediately" class="node">
<title>clean_dishes_immediately</title>
<g id="a_clean_dishes_immediately"><a xlink:title=" ">
<path fill="#edf8e9" stroke="black" d="M658.98,-160.6C658.98,-160.6 539.02,-160.6 539.02,-160.6 535.69,-160.6 532.36,-157.27 532.36,-153.93 532.36,-153.93 532.36,-147.27 532.36,-147.27 532.36,-143.93 535.69,-140.6 539.02,-140.6 539.02,-140.6 658.98,-140.6 658.98,-140.6 662.31,-140.6 665.64,-143.93 665.64,-147.27 665.64,-147.27 665.64,-153.93 665.64,-153.93 665.64,-157.27 662.31,-160.6 658.98,-160.6"/>
<text text-anchor="middle" x="599" y="-147.6" font-family="Helvetica,sans-Serif" font-size="10.00">clean_dishes_immediately</text>
</a>
</g>
</g>


<g id="be_sceptical" class="node">
<title>be_sceptical</title>
<g id="a_be_sceptical"><a xlink:title=" ">
<path fill="#edf8e9" stroke="black" d="M1013.13,-717.68C1013.13,-717.68 954.87,-717.68 954.87,-717.68 951.54,-717.68 948.2,-714.35 948.2,-711.02 948.2,-711.02 948.2,-704.35 948.2,-704.35 948.2,-701.02 951.54,-697.68 954.87,-697.68 954.87,-697.68 1013.13,-697.68 1013.13,-697.68 1016.46,-697.68 1019.8,-701.02 1019.8,-704.35 1019.8,-704.35 1019.8,-711.02 1019.8,-711.02 1019.8,-714.35 1016.46,-717.68 1013.13,-717.68"/>
<text text-anchor="middle" x="984" y="-704.68" font-family="Helvetica,sans-Serif" font-size="10.00">be_sceptical</text>
</a>
</g>
</g>

<g id="suggest" class="node">
<title>suggest</title>
<g id="a_suggest"><a xlink:title=" ">
<path fill="#edf8e9" stroke="black" d="M992.85,-774.68C992.85,-774.68 955.15,-774.68 955.15,-774.68 951.82,-774.68 948.49,-771.35 948.49,-768.02 948.49,-768.02 948.49,-761.35 948.49,-761.35 948.49,-758.02 951.82,-754.68 955.15,-754.68 955.15,-754.68 992.85,-754.68 992.85,-754.68 996.18,-754.68 999.51,-758.02 999.51,-761.35 999.51,-761.35 999.51,-768.02 999.51,-768.02 999.51,-771.35 996.18,-774.68 992.85,-774.68"/>
<text text-anchor="middle" x="974" y="-761.68" font-family="Helvetica,sans-Serif" font-size="10.00">suggest</text>
</a>
</g>
</g>

<g id="be_sceptical___suggest" class="edge">
<title>be_sceptical-&gt;suggest</title>
<path fill="none" stroke="forestgreen" stroke-width="2" d="M982.35,-717.77C981.17,-724.26 979.53,-733.28 978.01,-741.61"/>
<polygon fill="forestgreen" stroke="forestgreen" stroke-width="2" points="974.57,-740.96 976.23,-751.43 981.46,-742.21 974.57,-740.96"/>
</g>

<g id="improvements" class="node">
<title>improvements</title>
<g id="a_improvements"><a xlink:title=" ">
<path fill="white" stroke="black" d="M1037.73,-849.68C1037.73,-849.68 972.27,-849.68 972.27,-849.68 968.93,-849.68 965.6,-846.35 965.6,-843.02 965.6,-843.02 965.6,-836.35 965.6,-836.35 965.6,-833.02 968.93,-829.68 972.27,-829.68 972.27,-829.68 1037.73,-829.68 1037.73,-829.68 1041.07,-829.68 1044.4,-833.02 1044.4,-836.35 1044.4,-836.35 1044.4,-843.02 1044.4,-843.02 1044.4,-846.35 1041.07,-849.68 1037.73,-849.68"/>
<text text-anchor="middle" x="1005" y="-836.68" font-family="Helvetica,sans-Serif" font-size="10.00">improvements</text>
</a>
</g>
</g>

<g id="suggest___improvements" class="edge">
<title>suggest-&gt;improvements</title>
<path fill="none" stroke="forestgreen" stroke-width="2" d="M977.93,-774.93C982.47,-785.62 990.09,-803.56 996.09,-817.69"/>
<polygon fill="forestgreen" stroke="forestgreen" stroke-width="2" points="992.69,-818.66 999.82,-826.5 999.14,-815.92 992.69,-818.66"/>
</g>

<g id="speak" class="node">
<title>speak</title>
<g id="a_speak"><a xlink:title=" ">
<path fill="#edf8e9" stroke="black" d="M1053.68,-774.68C1053.68,-774.68 1024.32,-774.68 1024.32,-774.68 1020.99,-774.68 1017.66,-771.35 1017.66,-768.02 1017.66,-768.02 1017.66,-761.35 1017.66,-761.35 1017.66,-758.02 1020.99,-754.68 1024.32,-754.68 1024.32,-754.68 1053.68,-754.68 1053.68,-754.68 1057.01,-754.68 1060.34,-758.02 1060.34,-761.35 1060.34,-761.35 1060.34,-768.02 1060.34,-768.02 1060.34,-771.35 1057.01,-774.68 1053.68,-774.68"/>
<text text-anchor="middle" x="1039" y="-761.68" font-family="Helvetica,sans-Serif" font-size="10.00">speak</text>
</a>
</g>
</g>

<g id="speak___respect_each_other" class="edge">
<title>speak-&gt;respect_each_other</title>
<path fill="none" stroke="forestgreen" stroke-width="2" d="M1048.63,-774.93C1060.55,-786.39 1081.14,-806.16 1096.23,-820.66"/>
<polygon fill="forestgreen" stroke="forestgreen" stroke-width="2" points="1093.39,-822.78 1103.03,-827.19 1098.24,-817.73 1093.39,-822.78"/>
</g>

<g id="speak___improvements" class="edge">
<title>speak-&gt;improvements</title>
<path fill="none" stroke="forestgreen" stroke-width="2" d="M1034.69,-774.93C1029.71,-785.62 1021.36,-803.56 1014.78,-817.69"/>
<polygon fill="forestgreen" stroke="forestgreen" stroke-width="2" points="1011.71,-816 1010.66,-826.54 1018.05,-818.95 1011.71,-816"/>
</g>

<g id="organic" class="node">
<title>organic</title>
<g id="a_organic"><a xlink:title=" ">
<path fill="#edf8e9" stroke="black" d="M627.73,-240.4C627.73,-240.4 592.27,-240.4 592.27,-240.4 588.93,-240.4 585.6,-237.07 585.6,-233.73 585.6,-233.73 585.6,-227.07 585.6,-227.07 585.6,-223.73 588.93,-220.4 592.27,-220.4 592.27,-220.4 627.73,-220.4 627.73,-220.4 631.07,-220.4 634.4,-223.73 634.4,-227.07 634.4,-227.07 634.4,-233.73 634.4,-233.73 634.4,-237.07 631.07,-240.4 627.73,-240.4"/>
<text text-anchor="middle" x="610" y="-227.4" font-family="Helvetica,sans-Serif" font-size="10.00">organic</text>
</a>
</g>
</g>

<g id="organic___food" class="edge">
<title>organic-&gt;food</title>
<path fill="none" stroke="forestgreen" stroke-width="2" d="M604.9,-240.63C599.11,-251.11 589.4,-268.67 581.26,-283.39"/>
<polygon fill="forestgreen" stroke="forestgreen" stroke-width="2" points="578.42,-281.31 576.64,-291.75 584.54,-284.69 578.42,-281.31"/>
</g>

<g id="vegan" class="node">
<title>vegan</title>
<g id="a_vegan"><a xlink:title=" ">
<path fill="#edf8e9" stroke="black" d="M719.96,-160.6C719.96,-160.6 690.04,-160.6 690.04,-160.6 686.71,-160.6 683.38,-157.27 683.38,-153.93 683.38,-153.93 683.38,-147.27 683.38,-147.27 683.38,-143.93 686.71,-140.6 690.04,-140.6 690.04,-140.6 719.96,-140.6 719.96,-140.6 723.29,-140.6 726.62,-143.93 726.62,-147.27 726.62,-147.27 726.62,-153.93 726.62,-153.93 726.62,-157.27 723.29,-160.6 719.96,-160.6"/>
<text text-anchor="middle" x="705" y="-147.6" font-family="Helvetica,sans-Serif" font-size="10.00">vegan</text>
</a>
</g>
</g>

<g id="vegan___food" class="edge">
<title>vegan-&gt;food</title>
<path fill="none" stroke="forestgreen" stroke-width="2" d="M683.06,-158.24C680.35,-159.05 677.61,-159.85 675,-160.6 631.58,-173.09 605.83,-152.81 577,-187.6 555.96,-212.99 556.81,-252.48 560.71,-279.52"/>
<polygon fill="forestgreen" stroke="forestgreen" stroke-width="2" points="557.2,-279.79 562.35,-289.05 564.1,-278.6 557.2,-279.79"/>
</g>

<g id="cook_for_each_other" class="node exit" distance="1" colorank="4-6">
<title>cook_for_each_other</title>
<g id="a_cook_for_each_other"><a xlink:title=" ">
<path fill="#edf8e9" stroke="black" d="M917.31,-633.8C917.31,-633.8 820.69,-633.8 820.69,-633.8 817.36,-633.8 814.02,-630.47 814.02,-627.13 814.02,-627.13 814.02,-620.47 814.02,-620.47 814.02,-617.13 817.36,-613.8 820.69,-613.8 820.69,-613.8 917.31,-613.8 917.31,-613.8 920.64,-613.8 923.98,-617.13 923.98,-620.47 923.98,-620.47 923.98,-627.13 923.98,-627.13 923.98,-630.47 920.64,-633.8 917.31,-633.8"/>
<text text-anchor="middle" x="869" y="-620.8" font-family="Helvetica,sans-Serif" font-size="10.00">cook_for_each_other</text>
</a>
</g>
</g>

<g id="meals" class="node exit" distance="2" colorank="3-6">
<title>meals</title>
<g id="a_meals"><a xlink:title=" ">
<path fill="white" stroke="black" d="M883.67,-717.68C883.67,-717.68 854.33,-717.68 854.33,-717.68 851,-717.68 847.66,-714.35 847.66,-711.02 847.66,-711.02 847.66,-704.35 847.66,-704.35 847.66,-701.02 851,-697.68 854.33,-697.68 854.33,-697.68 883.67,-697.68 883.67,-697.68 887,-697.68 890.34,-701.02 890.34,-704.35 890.34,-704.35 890.34,-711.02 890.34,-711.02 890.34,-714.35 887,-717.68 883.67,-717.68"/>
<text text-anchor="middle" x="869" y="-704.68" font-family="Helvetica,sans-Serif" font-size="10.00">meals</text>
</a>
</g>
</g>

<g id="cook_for_each_other___meals" class="edge" distance="1" colorank="4-6">
<title>cook_for_each_other-&gt;meals</title>
<path fill="none" stroke="forestgreen" stroke-width="2" d="M869,-634.19C869,-646.35 869,-667.92 869,-684.38"/>
<polygon fill="forestgreen" stroke="forestgreen" stroke-width="2" points="865.5,-684.37 869,-694.37 872.5,-684.37 865.5,-684.37"/>
</g>

<g id="cook_smarter___consume_responsibly_w" class="edge">
<title>cook_smarter-&gt;consume_responsibly_w</title>
<path fill="none" stroke="forestgreen" stroke-width="2" d="M580.9,-634.19C596.36,-647.52 624.95,-672.16 644.46,-688.98"/>
<polygon fill="forestgreen" stroke="forestgreen" stroke-width="2" points="642.08,-691.55 651.94,-695.42 646.65,-686.24 642.08,-691.55"/>
</g>

<g id="cook_smarter___consume_responsibly_e" class="edge">
<title>cook_smarter-&gt;consume_responsibly_e</title>
<path fill="none" stroke="forestgreen" stroke-width="2" d="M574.66,-633.91C585.89,-655.88 614.68,-712.2 630.39,-742.93"/>
<polygon fill="forestgreen" stroke="forestgreen" stroke-width="2" points="627.19,-744.35 634.85,-751.66 633.42,-741.16 627.19,-744.35"/>
</g>

<g id="cook_smarter___meals" class="edge">
<title>cook_smarter-&gt;meals</title>
<path fill="none" stroke="forestgreen" stroke-width="2" d="M583.41,-634.11C592.52,-640.04 605.04,-647.45 617,-652.08 691.78,-681.06 785.31,-696.22 834.73,-702.71"/>
<polygon fill="forestgreen" stroke="forestgreen" stroke-width="2" points="834.08,-706.16 844.44,-703.94 834.96,-699.21 834.08,-706.16"/>
</g>

<g id="in_one_place___cook_for_each_other" class="edge" distance="0" colorank="5-6">
<title>in_one_place-&gt;cook_for_each_other</title>
<path fill="none" stroke="forestgreen" stroke-width="2" d="M778.81,-544.4C795.44,-558.85 827.58,-586.8 848.66,-605.12"/>
<polygon fill="forestgreen" stroke="forestgreen" stroke-width="2" points="846.14,-607.57 855.98,-611.49 850.73,-602.28 846.14,-607.57"/>
</g>

<g id="clean_dishes_with_silicone_spoon" class="node">
<title>clean_dishes_with_silicone_spoon</title>
<g id="a_clean_dishes_with_silicone_spoon"><a xlink:title=" ">
<path fill="#edf8e9" stroke="black" d="M789.05,-633.8C789.05,-633.8 632.95,-633.8 632.95,-633.8 629.61,-633.8 626.28,-630.47 626.28,-627.13 626.28,-627.13 626.28,-620.47 626.28,-620.47 626.28,-617.13 629.61,-613.8 632.95,-613.8 632.95,-613.8 789.05,-613.8 789.05,-613.8 792.39,-613.8 795.72,-617.13 795.72,-620.47 795.72,-620.47 795.72,-627.13 795.72,-627.13 795.72,-630.47 792.39,-633.8 789.05,-633.8"/>
<text text-anchor="middle" x="711" y="-620.8" font-family="Helvetica,sans-Serif" font-size="10.00">clean_dishes_with_silicone_spoon</text>
</a>
</g>
</g>

<g id="clean_dishes_with_silicone_spoon___consume_responsibly_w" class="edge">
<title>clean_dishes_with_silicone_spoon-&gt;consume_responsibly_w</title>
<path fill="none" stroke="forestgreen" stroke-width="2" d="M705.72,-634.19C698.65,-646.78 685.91,-669.46 676.56,-686.11"/>
<polygon fill="forestgreen" stroke="forestgreen" stroke-width="2" points="673.54,-684.33 671.7,-694.76 679.65,-687.76 673.54,-684.33"/>
</g>

<g id="no_alcohol" class="node">
<title>no_alcohol</title>
<g id="a_no_alcohol"><a xlink:title=" ">
<path fill="#edf8e9" stroke="black" d="M1567.52,-544C1567.52,-544 1516.48,-544 1516.48,-544 1513.15,-544 1509.81,-540.67 1509.81,-537.33 1509.81,-537.33 1509.81,-530.67 1509.81,-530.67 1509.81,-527.33 1513.15,-524 1516.48,-524 1516.48,-524 1567.52,-524 1567.52,-524 1570.85,-524 1574.19,-527.33 1574.19,-530.67 1574.19,-530.67 1574.19,-537.33 1574.19,-537.33 1574.19,-540.67 1570.85,-544 1567.52,-544"/>
<text text-anchor="middle" x="1542" y="-531" font-family="Helvetica,sans-Serif" font-size="10.00">no_alcohol</text>
</a>
</g>
</g>

<g id="no_alcohol___prevent_accidents" class="edge">
<title>no_alcohol-&gt;prevent_accidents</title>
<path fill="none" stroke="forestgreen" stroke-width="2" d="M1562.43,-544.49C1568.99,-547.53 1576.3,-550.92 1583,-554 1609.19,-566.06 1621.32,-560.9 1642,-581 1667.25,-605.55 1654.27,-625.19 1677,-652.08 1713.08,-694.78 1727.21,-704.64 1779,-725.68 1842.5,-751.49 1921.18,-760.04 1974.63,-762.74"/>
<polygon fill="forestgreen" stroke="forestgreen" stroke-width="2" points="1974.15,-766.22 1984.29,-763.16 1974.46,-759.23 1974.15,-766.22"/>
</g>

<g id="come_prepared" class="node">
<title>come_prepared</title>
<g id="a_come_prepared"><a xlink:title=" ">
<path fill="#edf8e9" stroke="black" d="M1534.36,-633.8C1534.36,-633.8 1461.64,-633.8 1461.64,-633.8 1458.31,-633.8 1454.98,-630.47 1454.98,-627.13 1454.98,-627.13 1454.98,-620.47 1454.98,-620.47 1454.98,-617.13 1458.31,-613.8 1461.64,-613.8 1461.64,-613.8 1534.36,-613.8 1534.36,-613.8 1537.69,-613.8 1541.02,-617.13 1541.02,-620.47 1541.02,-620.47 1541.02,-627.13 1541.02,-627.13 1541.02,-630.47 1537.69,-633.8 1534.36,-633.8"/>
<text text-anchor="middle" x="1498" y="-620.8" font-family="Helvetica,sans-Serif" font-size="10.00">come_prepared</text>
</a>
</g>
</g>


<g id="come_on_time" class="node">
<title>come_on_time</title>
<g id="a_come_on_time"><a xlink:title=" ">
<path fill="#edf8e9" stroke="black" d="M1113.13,-717.68C1113.13,-717.68 1044.87,-717.68 1044.87,-717.68 1041.54,-717.68 1038.2,-714.35 1038.2,-711.02 1038.2,-711.02 1038.2,-704.35 1038.2,-704.35 1038.2,-701.02 1041.54,-697.68 1044.87,-697.68 1044.87,-697.68 1113.13,-697.68 1113.13,-697.68 1116.46,-697.68 1119.8,-701.02 1119.8,-704.35 1119.8,-704.35 1119.8,-711.02 1119.8,-711.02 1119.8,-714.35 1116.46,-717.68 1113.13,-717.68"/>
<text text-anchor="middle" x="1079" y="-704.68" font-family="Helvetica,sans-Serif" font-size="10.00">come_on_time</text>
</a>
</g>
</g>

<g id="come_on_time___serve_each_other" class="edge">
<title>come_on_time-&gt;serve_each_other</title>
<path fill="none" stroke="forestgreen" stroke-width="2" d="M1086.76,-717.77C1092.98,-725.05 1101.93,-735.52 1109.71,-744.62"/>
<polygon fill="forestgreen" stroke="forestgreen" stroke-width="2" points="1106.95,-746.77 1116.1,-752.1 1112.27,-742.23 1106.95,-746.77"/>
</g>

<g id="bring_all_stuff" class="node">
<title>bring_all_stuff</title>
<g id="a_bring_all_stuff"><a xlink:title=" ">
<path fill="#edf8e9" stroke="black" d="M1548.46,-717.68C1548.46,-717.68 1483.54,-717.68 1483.54,-717.68 1480.2,-717.68 1476.87,-714.35 1476.87,-711.02 1476.87,-711.02 1476.87,-704.35 1476.87,-704.35 1476.87,-701.02 1480.2,-697.68 1483.54,-697.68 1483.54,-697.68 1548.46,-697.68 1548.46,-697.68 1551.8,-697.68 1555.13,-701.02 1555.13,-704.35 1555.13,-704.35 1555.13,-711.02 1555.13,-711.02 1555.13,-714.35 1551.8,-717.68 1548.46,-717.68"/>
<text text-anchor="middle" x="1516" y="-704.68" font-family="Helvetica,sans-Serif" font-size="10.00">bring_all_stuff</text>
</a>
</g>
</g>

<g id="bring_all_stuff___Efficiency" class="edge">
<title>bring_all_stuff-&gt;Efficiency</title>
<path fill="none" stroke="forestgreen" stroke-width="2" d="M1499.1,-718.03C1459.14,-740.14 1358.5,-795.81 1309.16,-823.11"/>
<polygon fill="forestgreen" stroke="forestgreen" stroke-width="2" points="1307.77,-819.88 1300.71,-827.78 1311.16,-826 1307.77,-819.88"/>
</g>

<g id="bring_all_stuff___prevent_accidents" class="edge">
<title>bring_all_stuff-&gt;prevent_accidents</title>
<path fill="none" stroke="forestgreen" stroke-width="2" d="M1539.12,-718.08C1546.91,-720.92 1555.73,-723.78 1564,-725.68 1606.71,-735.51 1618.36,-732.66 1662,-736.68 1771.77,-746.8 1899.96,-755.35 1974.17,-759.98"/>
<polygon fill="forestgreen" stroke="forestgreen" stroke-width="2" points="1973.72,-763.45 1983.92,-760.58 1974.15,-756.47 1973.72,-763.45"/>
</g>

<g id="come_prepared___Efficiency" class="edge">
<title>come_prepared-&gt;Efficiency</title>
<path fill="none" stroke="forestgreen" stroke-width="2" d="M1482.52,-634.16C1472.41,-639.96 1458.76,-647.21 1446,-652.08 1368.51,-681.7 1315.99,-632.25 1265,-697.68 1250.89,-715.79 1265.8,-782.23 1274.95,-817.06"/>
<polygon fill="forestgreen" stroke="forestgreen" stroke-width="2" points="1271.53,-817.79 1277.53,-826.52 1278.28,-815.96 1271.53,-817.79"/>
</g>


<g id="dont_step_on_ropes" class="node">
<title>dont_step_on_ropes</title>
<g id="a_dont_step_on_ropes"><a xlink:title=" ">
<path fill="#edf8e9" stroke="black" d="M2113.93,-454.2C2113.93,-454.2 2020.07,-454.2 2020.07,-454.2 2016.74,-454.2 2013.41,-450.87 2013.41,-447.53 2013.41,-447.53 2013.41,-440.87 2013.41,-440.87 2013.41,-437.53 2016.74,-434.2 2020.07,-434.2 2020.07,-434.2 2113.93,-434.2 2113.93,-434.2 2117.26,-434.2 2120.59,-437.53 2120.59,-440.87 2120.59,-440.87 2120.59,-447.53 2120.59,-447.53 2120.59,-450.87 2117.26,-454.2 2113.93,-454.2"/>
<text text-anchor="middle" x="2067" y="-441.2" font-family="Helvetica,sans-Serif" font-size="10.00">dont_step_on_ropes</text>
</a>
</g>
</g>

<g id="dont_step_on_ropes___respect_the_boat" class="edge">
<title>dont_step_on_ropes-&gt;respect_the_boat</title>
<path fill="none" stroke="forestgreen" stroke-width="2" d="M2036.42,-454.61C2026.41,-457.68 2015.23,-461.1 2005,-464.2 1978.36,-472.28 1971.32,-473.13 1945,-482.2 1912.12,-493.53 1875.25,-508.13 1849.2,-518.76"/>
<polygon fill="forestgreen" stroke="forestgreen" stroke-width="2" points="1848.06,-515.44 1840.14,-522.48 1850.72,-521.92 1848.06,-515.44"/>
</g>

<g id="dont_step_on_ropes___prevent_accidents" class="edge">
<title>dont_step_on_ropes-&gt;prevent_accidents</title>
<path fill="none" stroke="forestgreen" stroke-width="2" d="M2037.77,-454.69C2005.79,-467.13 1959,-492.28 1959,-533 1959,-533 1959,-533 1959,-708.68 1959,-727.37 1974.2,-740.31 1991.1,-748.92"/>
<polygon fill="forestgreen" stroke="forestgreen" stroke-width="2" points="1989.58,-752.08 2000.14,-752.97 1992.44,-745.69 1989.58,-752.08"/>
</g>

<g id="coil_ropes" class="node">
<title>coil_ropes</title>
<g id="a_coil_ropes"><a xlink:title=" ">
<path fill="#edf8e9" stroke="black" d="M2042.12,-633.8C2042.12,-633.8 1993.88,-633.8 1993.88,-633.8 1990.54,-633.8 1987.21,-630.47 1987.21,-627.13 1987.21,-627.13 1987.21,-620.47 1987.21,-620.47 1987.21,-617.13 1990.54,-613.8 1993.88,-613.8 1993.88,-613.8 2042.12,-613.8 2042.12,-613.8 2045.46,-613.8 2048.79,-617.13 2048.79,-620.47 2048.79,-620.47 2048.79,-627.13 2048.79,-627.13 2048.79,-630.47 2045.46,-633.8 2042.12,-633.8"/>
<text text-anchor="middle" x="2018" y="-620.8" font-family="Helvetica,sans-Serif" font-size="10.00">coil_ropes</text>
</a>
</g>
</g>

<g id="coil_ropes___no_traps" class="edge">
<title>coil_ropes-&gt;no_traps</title>
<path fill="none" stroke="forestgreen" stroke-width="2" d="M2024.77,-634.19C2034.02,-647.03 2050.82,-670.35 2062.88,-687.08"/>
<polygon fill="forestgreen" stroke="forestgreen" stroke-width="2" points="2059.86,-688.88 2068.54,-694.94 2065.54,-684.79 2059.86,-688.88"/>
</g>

<g id="dry_and_ventilate" class="node">
<title>dry_and_ventilate</title>
<g id="a_dry_and_ventilate"><a xlink:title="ventilate cabins, ventilate mattresses, wipe cabin walls dry">
<path fill="#edf8e9" stroke="black" d="M1825.81,-320.2C1825.81,-320.2 1744.19,-320.2 1744.19,-320.2 1740.86,-320.2 1737.53,-316.87 1737.53,-313.53 1737.53,-313.53 1737.53,-306.87 1737.53,-306.87 1737.53,-303.53 1740.86,-300.2 1744.19,-300.2 1744.19,-300.2 1825.81,-300.2 1825.81,-300.2 1829.14,-300.2 1832.47,-303.53 1832.47,-306.87 1832.47,-306.87 1832.47,-313.53 1832.47,-313.53 1832.47,-316.87 1829.14,-320.2 1825.81,-320.2"/>
<text text-anchor="middle" x="1785" y="-307.2" font-family="Helvetica,sans-Serif" font-size="10.00">dry_and_ventilate</text>
</a>
</g>
</g>

<g id="dry_and_ventilate___respect_the_boat" class="edge">
<title>dry_and_ventilate-&gt;respect_the_boat</title>
<path fill="none" stroke="forestgreen" stroke-width="2" d="M1778.87,-320.24C1769.61,-335.13 1754.4,-365.35 1767,-387.2 1783.42,-415.66 1814.58,-395.74 1831,-424.2 1846.71,-451.43 1835.59,-488.65 1825.65,-511.74"/>
<polygon fill="forestgreen" stroke="forestgreen" stroke-width="2" points="1822.49,-510.23 1821.43,-520.78 1828.84,-513.2 1822.49,-510.23"/>
</g>

<g id="wipe_cabin_floors_dry" class="node">
<title>wipe_cabin_floors_dry</title>
<g id="a_wipe_cabin_floors_dry"><a xlink:title=" ">
<path fill="#edf8e9" stroke="black" d="M1989.08,-454.2C1989.08,-454.2 1886.92,-454.2 1886.92,-454.2 1883.58,-454.2 1880.25,-450.87 1880.25,-447.53 1880.25,-447.53 1880.25,-440.87 1880.25,-440.87 1880.25,-437.53 1883.58,-434.2 1886.92,-434.2 1886.92,-434.2 1989.08,-434.2 1989.08,-434.2 1992.42,-434.2 1995.75,-437.53 1995.75,-440.87 1995.75,-440.87 1995.75,-447.53 1995.75,-447.53 1995.75,-450.87 1992.42,-454.2 1989.08,-454.2"/>
<text text-anchor="middle" x="1938" y="-441.2" font-family="Helvetica,sans-Serif" font-size="10.00">wipe_cabin_floors_dry</text>
</a>
</g>
</g>

<g id="wipe_cabin_floors_dry___respect_the_boat" class="edge">
<title>wipe_cabin_floors_dry-&gt;respect_the_boat</title>
<path fill="none" stroke="forestgreen" stroke-width="2" d="M1924.84,-454.6C1904.21,-469.32 1864,-498.02 1838.38,-516.31"/>
<polygon fill="forestgreen" stroke="forestgreen" stroke-width="2" points="1836.64,-513.25 1830.53,-521.91 1840.7,-518.95 1836.64,-513.25"/>
</g>

<g id="wipe_cabin_floors_dry___prevent_accidents" class="edge">
<title>wipe_cabin_floors_dry-&gt;prevent_accidents</title>
<path fill="none" stroke="forestgreen" stroke-width="2" d="M1935.85,-454.69C1931.27,-475.7 1921,-527.8 1921,-572 1921,-572 1921,-572 1921,-708.68 1921,-735.74 1947.24,-749.5 1974.64,-756.49"/>
<polygon fill="forestgreen" stroke="forestgreen" stroke-width="2" points="1973.76,-759.88 1984.27,-758.6 1975.25,-753.04 1973.76,-759.88"/>
</g>

<g id="wear_gloves" class="node">
<title>wear_gloves</title>
<g id="a_wear_gloves"><a xlink:title=" ">
<path fill="#edf8e9" stroke="black" d="M1657.4,-544C1657.4,-544 1598.6,-544 1598.6,-544 1595.26,-544 1591.93,-540.67 1591.93,-537.33 1591.93,-537.33 1591.93,-530.67 1591.93,-530.67 1591.93,-527.33 1595.26,-524 1598.6,-524 1598.6,-524 1657.4,-524 1657.4,-524 1660.74,-524 1664.07,-527.33 1664.07,-530.67 1664.07,-530.67 1664.07,-537.33 1664.07,-537.33 1664.07,-540.67 1660.74,-544 1657.4,-544"/>
<text text-anchor="middle" x="1628" y="-531" font-family="Helvetica,sans-Serif" font-size="10.00">wear_gloves</text>
</a>
</g>
</g>

<g id="wear_gloves___Health" class="edge">
<title>wear_gloves-&gt;Health</title>
<path fill="none" stroke="forestgreen" stroke-width="2" d="M1650.21,-544.36C1672.74,-553.96 1704.98,-568.02 1710,-572 1720.65,-580.44 1730.02,-592.39 1736.9,-602.59"/>
<polygon fill="forestgreen" stroke="forestgreen" stroke-width="2" points="1733.84,-604.3 1742.15,-610.87 1739.75,-600.55 1733.84,-604.3"/>
</g>

<g id="wear_gloves___prevent_accidents" class="edge">
<title>wear_gloves-&gt;prevent_accidents</title>
<path fill="none" stroke="forestgreen" stroke-width="2" d="M1642.88,-544.34C1652.85,-551.13 1665.79,-561.02 1675,-572 1700.97,-602.94 1688.43,-624.56 1718,-652.08 1789.88,-718.97 1904.16,-746.12 1974.37,-756.89"/>
<polygon fill="forestgreen" stroke="forestgreen" stroke-width="2" points="1973.55,-760.31 1983.95,-758.28 1974.56,-753.38 1973.55,-760.31"/>
</g>

<g id="wear_lifevest" class="node">
<title>wear_lifevest</title>
<g id="a_wear_lifevest"><a xlink:title=" ">
<path fill="#edf8e9" stroke="black" d="M1626.51,-633.8C1626.51,-633.8 1565.49,-633.8 1565.49,-633.8 1562.15,-633.8 1558.82,-630.47 1558.82,-627.13 1558.82,-627.13 1558.82,-620.47 1558.82,-620.47 1558.82,-617.13 1562.15,-613.8 1565.49,-613.8 1565.49,-613.8 1626.51,-613.8 1626.51,-613.8 1629.85,-613.8 1633.18,-617.13 1633.18,-620.47 1633.18,-620.47 1633.18,-627.13 1633.18,-627.13 1633.18,-630.47 1629.85,-633.8 1626.51,-633.8"/>
<text text-anchor="middle" x="1596" y="-620.8" font-family="Helvetica,sans-Serif" font-size="10.00">wear_lifevest</text>
</a>
</g>
</g>


<g id="wear_lifevest___prevent_accidents" class="edge">
<title>wear_lifevest-&gt;prevent_accidents</title>
<path fill="none" stroke="forestgreen" stroke-width="2" d="M1603.89,-634.12C1625.79,-659.89 1686.6,-730.64 1699,-736.68 1745.96,-759.56 1890.51,-763.68 1974.26,-764.06"/>
<polygon fill="forestgreen" stroke="forestgreen" stroke-width="2" points="1974.12,-767.56 1984.13,-764.09 1974.13,-760.56 1974.12,-767.56"/>
</g>

<g id="wear_helmet" class="node">
<title>wear_helmet</title>
<g id="a_wear_helmet"><a xlink:title=" ">
<path fill="#edf8e9" stroke="black" d="M1639.96,-717.68C1639.96,-717.68 1580.04,-717.68 1580.04,-717.68 1576.71,-717.68 1573.37,-714.35 1573.37,-711.02 1573.37,-711.02 1573.37,-704.35 1573.37,-704.35 1573.37,-701.02 1576.71,-697.68 1580.04,-697.68 1580.04,-697.68 1639.96,-697.68 1639.96,-697.68 1643.29,-697.68 1646.63,-701.02 1646.63,-704.35 1646.63,-704.35 1646.63,-711.02 1646.63,-711.02 1646.63,-714.35 1643.29,-717.68 1639.96,-717.68"/>
<text text-anchor="middle" x="1610" y="-704.68" font-family="Helvetica,sans-Serif" font-size="10.00">wear_helmet</text>
</a>
</g>
</g>


<g id="wear_helmet___prevent_accidents" class="edge">
<title>wear_helmet-&gt;prevent_accidents</title>
<path fill="none" stroke="forestgreen" stroke-width="2" d="M1625.95,-718.08C1637.71,-724.52 1654.32,-732.59 1670,-736.68 1725.77,-751.23 1885.49,-758.7 1974.4,-761.83"/>
<polygon fill="forestgreen" stroke="forestgreen" stroke-width="2" points="1974.1,-765.32 1984.22,-762.17 1974.34,-758.33 1974.1,-765.32"/>
</g>

<g id="clip_in" class="node">
<title>clip_in</title>
<g id="a_clip_in"><a xlink:title=" ">
<path fill="#edf8e9" stroke="black" d="M2024.51,-717.68C2024.51,-717.68 1993.49,-717.68 1993.49,-717.68 1990.16,-717.68 1986.83,-714.35 1986.83,-711.02 1986.83,-711.02 1986.83,-704.35 1986.83,-704.35 1986.83,-701.02 1990.16,-697.68 1993.49,-697.68 1993.49,-697.68 2024.51,-697.68 2024.51,-697.68 2027.84,-697.68 2031.17,-701.02 2031.17,-704.35 2031.17,-704.35 2031.17,-711.02 2031.17,-711.02 2031.17,-714.35 2027.84,-717.68 2024.51,-717.68"/>
<text text-anchor="middle" x="2009" y="-704.68" font-family="Helvetica,sans-Serif" font-size="10.00">clip_in</text>
</a>
</g>
</g>

<g id="clip_in___prevent_accidents" class="edge">
<title>clip_in-&gt;prevent_accidents</title>
<path fill="none" stroke="forestgreen" stroke-width="2" d="M2013.46,-717.77C2016.8,-724.57 2021.51,-734.16 2025.76,-742.82"/>
<polygon fill="forestgreen" stroke="forestgreen" stroke-width="2" points="2022.56,-744.25 2030.11,-751.69 2028.85,-741.17 2022.56,-744.25"/>
</g>

<g id="move_in_safe_areas" class="node">
<title>move_in_safe_areas</title>
<g id="a_move_in_safe_areas"><a xlink:title=" ">
<path fill="#edf8e9" stroke="black" d="M2168.75,-633.8C2168.75,-633.8 2073.25,-633.8 2073.25,-633.8 2069.91,-633.8 2066.58,-630.47 2066.58,-627.13 2066.58,-627.13 2066.58,-620.47 2066.58,-620.47 2066.58,-617.13 2069.91,-613.8 2073.25,-613.8 2073.25,-613.8 2168.75,-613.8 2168.75,-613.8 2172.09,-613.8 2175.42,-617.13 2175.42,-620.47 2175.42,-620.47 2175.42,-627.13 2175.42,-627.13 2175.42,-630.47 2172.09,-633.8 2168.75,-633.8"/>
<text text-anchor="middle" x="2121" y="-620.8" font-family="Helvetica,sans-Serif" font-size="10.00">move_in_safe_areas</text>
</a>
</g>
</g>

<g id="move_in_safe_areas___prevent_accidents" class="edge">
<title>move_in_safe_areas-&gt;prevent_accidents</title>
<path fill="none" stroke="forestgreen" stroke-width="2" d="M2123.07,-634.13C2126.75,-653.19 2132.32,-697.18 2113,-725.68 2106.05,-735.94 2095.49,-743.54 2084.4,-749.13"/>
<polygon fill="forestgreen" stroke="forestgreen" stroke-width="2" points="2083.29,-745.8 2075.56,-753.04 2086.12,-752.2 2083.29,-745.8"/>
</g>

<g id="el_engines___propulsion" class="edge">
<title>el_engines-&gt;propulsion</title>
<path fill="none" stroke="forestgreen" d="M1406,-544.4C1406,-558.06 1406,-583.77 1406,-602.02"/>
<polygon fill="forestgreen" stroke="forestgreen" points="1402.5,-601.96 1406,-611.96 1409.5,-601.96 1402.5,-601.96"/>
</g>

<g id="propulsion___travel_by_wind" class="edge">
<title>propulsion-&gt;travel_by_wind</title>
<path fill="none" stroke="forestgreen" stroke-width="2" d="M1407.38,-634.19C1409.17,-646.41 1412.35,-668.14 1414.77,-684.63"/>
<polygon fill="forestgreen" stroke="forestgreen" stroke-width="2" points="1411.29,-685.02 1416.2,-694.41 1418.21,-684 1411.29,-685.02"/>
</g>

<g id="sails" class="node">
<title>sails</title>
<g id="a_sails"><a xlink:title=" ">
<path fill="white" stroke="black" d="M1485.34,-544C1485.34,-544 1462.66,-544 1462.66,-544 1459.33,-544 1456,-540.67 1456,-537.33 1456,-537.33 1456,-530.67 1456,-530.67 1456,-527.33 1459.33,-524 1462.66,-524 1462.66,-524 1485.34,-524 1485.34,-524 1488.67,-524 1492,-527.33 1492,-530.67 1492,-530.67 1492,-537.33 1492,-537.33 1492,-540.67 1488.67,-544 1485.34,-544"/>
<text text-anchor="middle" x="1474" y="-531" font-family="Helvetica,sans-Serif" font-size="10.00">sails</text>
</a>
</g>
</g>

<g id="sails___propulsion" class="edge">
<title>sails-&gt;propulsion</title>
<path fill="none" stroke="forestgreen" stroke-width="2" d="M1466.72,-544.4C1455.88,-558.39 1435.26,-585.02 1421.08,-603.33"/>
<polygon fill="forestgreen" stroke="forestgreen" stroke-width="2" points="1418.43,-601.03 1415.08,-611.08 1423.97,-605.32 1418.43,-601.03"/>
</g>

<g id="rules" class="node">
<title>rules</title>
<g id="a_rules"><a xlink:title=" ">
<polygon fill="white" stroke="black" points="1046.5,-633.8 1012.16,-633.8 1012.16,-613.8 1049.84,-613.8 1049.84,-630.47 1046.5,-633.8"/>
<polyline fill="none" stroke="black" points="1046.5,-633.8 1046.5,-630.47"/>
<polyline fill="none" stroke="black" points="1049.84,-630.47 1046.5,-630.47"/>
<text text-anchor="middle" x="1031" y="-620.8" font-family="Helvetica,sans-Serif" font-size="10.00">rules</text>
</a>
</g>
</g>

<g id="rules___follow" class="edge">
<title>rules-&gt;follow</title>
<path fill="none" stroke="forestgreen" stroke-width="2" d="M1045.68,-634.19C1067.19,-647.95 1107.55,-673.77 1133.85,-690.59"/>
<polygon fill="forestgreen" stroke="forestgreen" stroke-width="2" points="1131.63,-693.33 1141.94,-695.77 1135.4,-687.43 1131.63,-693.33"/>
<text text-anchor="middle" x="1129.33" y="-672.48" font-family="Times,serif" font-size="8.00">short term</text>
</g>

<g id="rules___be_sceptical" class="edge">
<title>rules-&gt;be_sceptical</title>
<path fill="none" stroke="forestgreen" stroke-width="2" d="M1025.61,-634.19C1018.38,-646.78 1005.37,-669.46 995.81,-686.11"/>
<polygon fill="forestgreen" stroke="forestgreen" stroke-width="2" points="992.78,-684.36 990.84,-694.78 998.85,-687.84 992.78,-684.36"/>
</g>

<g id="improvements___Growth" class="edge">
<title>improvements-&gt;Growth</title>
<path fill="none" stroke="forestgreen" stroke-width="2" d="M1021.16,-850.01C1030.63,-855.37 1042.88,-862.12 1054,-867.68 1076.34,-878.85 1101.97,-890.41 1121.95,-899.14"/>
<polygon fill="forestgreen" stroke="forestgreen" stroke-width="2" points="1120.53,-902.34 1131.1,-903.11 1123.32,-895.92 1120.53,-902.34"/>
</g>

<g id="meals___serve_each_other" class="edge" distance="2" colorank="3-6">
<title>meals-&gt;serve_each_other</title>
<path fill="none" stroke="forestgreen" stroke-width="2" d="M890.66,-714.48C903.75,-717.91 920.79,-722.23 936,-725.68 978.99,-735.43 1027.76,-745.16 1065.12,-752.33"/>
<polygon fill="forestgreen" stroke="forestgreen" stroke-width="2" points="1064.38,-755.75 1074.86,-754.19 1065.69,-748.87 1064.38,-755.75"/>
</g>



<g id="i1___i2" class="edge">
<title>i1-&gt;i2</title>
<path fill="none" stroke="forestgreen" stroke-width="2" d="M150.37,-60.8C161.04,-60.8 176.76,-60.8 190.04,-60.8"/>
<polygon fill="forestgreen" stroke="forestgreen" stroke-width="2" points="189.63,-64.3 199.63,-60.8 189.63,-57.3 189.63,-64.3"/>
<text text-anchor="middle" x="176.5" y="-50.6" font-family="Times,serif" font-size="8.00">contributes</text>
</g>



<g id="i3___i4" class="edge">
<title>i3-&gt;i4</title>
<path fill="none" stroke="red" stroke-width="2" stroke-dasharray="5,2" d="M40.16,-60.8C48.76,-60.8 60.61,-60.8 71.17,-60.8"/>
<polygon fill="red" stroke="red" stroke-width="2" points="70.92,-64.3 80.92,-60.8 70.92,-57.3 70.92,-64.3"/>
<text text-anchor="middle" x="62" y="-50.6" font-family="Times,serif" font-size="8.00">prevents</text>
</g>

<g id="Wind" class="node">
<title>Wind</title>
<g id="a_Wind"><a xlink:title=" ">
<path fill="white" stroke="black" d="M1298.72,-240.4C1298.72,-240.4 1273.28,-240.4 1273.28,-240.4 1269.94,-240.4 1266.61,-237.07 1266.61,-233.73 1266.61,-233.73 1266.61,-227.07 1266.61,-227.07 1266.61,-223.73 1269.94,-220.4 1273.28,-220.4 1273.28,-220.4 1298.72,-220.4 1298.72,-220.4 1302.06,-220.4 1305.39,-223.73 1305.39,-227.07 1305.39,-227.07 1305.39,-233.73 1305.39,-233.73 1305.39,-237.07 1302.06,-240.4 1298.72,-240.4"/>
<text text-anchor="middle" x="1286" y="-227.4" font-family="Helvetica,sans-Serif" font-size="10.00">Wind</text>
</a>
</g>
</g>

<g id="Wind___sails" class="edge">
<title>Wind-&gt;sails</title>
<path fill="none" stroke="forestgreen" stroke-width="2" d="M1300.94,-240.87C1305.12,-243.41 1309.69,-246.09 1314,-248.4 1369.83,-278.4 1443,-245.82 1443,-309.2 1443,-309.2 1443,-309.2 1443,-445.2 1443,-469.28 1453.49,-495.06 1462.27,-512.41"/>
<polygon fill="forestgreen" stroke="forestgreen" stroke-width="2" points="1459.06,-513.83 1466.88,-520.97 1465.22,-510.51 1459.06,-513.83"/>
</g>

<g id="turbine" class="node">
<title>turbine</title>
<g id="a_turbine"><a xlink:title=" ">
<path fill="white" stroke="black" d="M1307.62,-387.2C1307.62,-387.2 1274.38,-387.2 1274.38,-387.2 1271.05,-387.2 1267.71,-383.87 1267.71,-380.53 1267.71,-380.53 1267.71,-373.87 1267.71,-373.87 1267.71,-370.53 1271.05,-367.2 1274.38,-367.2 1274.38,-367.2 1307.62,-367.2 1307.62,-367.2 1310.95,-367.2 1314.29,-370.53 1314.29,-373.87 1314.29,-373.87 1314.29,-380.53 1314.29,-380.53 1314.29,-383.87 1310.95,-387.2 1307.62,-387.2"/>
<text text-anchor="middle" x="1291" y="-374.2" font-family="Helvetica,sans-Serif" font-size="10.00">turbine</text>
</a>
</g>
</g>

<g id="Wind___turbine" class="edge">
<title>Wind-&gt;turbine</title>
<path fill="none" stroke="forestgreen" stroke-width="2" d="M1286.31,-240.46C1287.09,-262.9 1289.11,-321.6 1290.23,-353.98"/>
<polygon fill="forestgreen" stroke="forestgreen" stroke-width="2" points="1286.73,-353.87 1290.57,-363.75 1293.72,-353.63 1286.73,-353.87"/>
</g>

<g id="Risk" class="node" colorank="2-3">
<title>Risk</title>
<g id="a_Risk"><a xlink:title=" ">
<path fill="white" stroke="black" d="M1190.06,-240.4C1190.06,-240.4 1167.94,-240.4 1167.94,-240.4 1164.61,-240.4 1161.28,-237.07 1161.28,-233.73 1161.28,-233.73 1161.28,-227.07 1161.28,-227.07 1161.28,-223.73 1164.61,-220.4 1167.94,-220.4 1167.94,-220.4 1190.06,-220.4 1190.06,-220.4 1193.39,-220.4 1196.72,-223.73 1196.72,-227.07 1196.72,-227.07 1196.72,-233.73 1196.72,-233.73 1196.72,-237.07 1193.39,-240.4 1190.06,-240.4"/>
<text text-anchor="middle" x="1179" y="-227.4" font-family="Helvetica,sans-Serif" font-size="10.00">Risk</text>
</a>
</g>
</g>

<g id="Risk___mercilessness_of_nature" class="edge" colorank="2-3">
<title>Risk-&gt;mercilessness_of_nature</title>
<path fill="none" stroke="forestgreen" stroke-width="2" d="M1164.41,-240.69C1139.88,-256.84 1093,-290.17 1093,-309.2 1093,-309.2 1093,-309.2 1093,-483.2 1093,-515.78 1089.7,-530.24 1112,-554 1137.68,-581.36 1167.52,-552.56 1192,-581 1276.42,-679.09 1206.75,-743.45 1243,-867.68 1245.45,-876.08 1248.93,-885.03 1252.25,-892.78"/>
<polygon fill="forestgreen" stroke="forestgreen" stroke-width="2" points="1248.93,-893.93 1256.22,-901.62 1255.32,-891.07 1248.93,-893.93"/>
</g>

<g id="Sun" class="node">
<title>Sun</title>
<g id="a_Sun"><a xlink:title=" ">
<path fill="white" stroke="black" d="M1242.23,-240.4C1242.23,-240.4 1221.77,-240.4 1221.77,-240.4 1218.44,-240.4 1215.1,-237.07 1215.1,-233.73 1215.1,-233.73 1215.1,-227.07 1215.1,-227.07 1215.1,-223.73 1218.44,-220.4 1221.77,-220.4 1221.77,-220.4 1242.23,-220.4 1242.23,-220.4 1245.56,-220.4 1248.9,-223.73 1248.9,-227.07 1248.9,-227.07 1248.9,-233.73 1248.9,-233.73 1248.9,-237.07 1245.56,-240.4 1242.23,-240.4"/>
<text text-anchor="middle" x="1232" y="-227.4" font-family="Helvetica,sans-Serif" font-size="10.00">Sun</text>
</a>
</g>
</g>

<g id="panels" class="node">
<title>panels</title>
<g id="a_panels"><a xlink:title=" ">
<path fill="white" stroke="black" d="M1243.07,-387.2C1243.07,-387.2 1210.93,-387.2 1210.93,-387.2 1207.6,-387.2 1204.27,-383.87 1204.27,-380.53 1204.27,-380.53 1204.27,-373.87 1204.27,-373.87 1204.27,-370.53 1207.6,-367.2 1210.93,-367.2 1210.93,-367.2 1243.07,-367.2 1243.07,-367.2 1246.4,-367.2 1249.73,-370.53 1249.73,-373.87 1249.73,-373.87 1249.73,-380.53 1249.73,-380.53 1249.73,-383.87 1246.4,-387.2 1243.07,-387.2"/>
<text text-anchor="middle" x="1227" y="-374.2" font-family="Helvetica,sans-Serif" font-size="10.00">panels</text>
</a>
</g>
</g>

<g id="Sun___panels" class="edge">
<title>Sun-&gt;panels</title>
<path fill="none" stroke="forestgreen" stroke-width="2" d="M1231.69,-240.46C1230.91,-262.9 1228.89,-321.6 1227.77,-353.98"/>
<polygon fill="forestgreen" stroke="forestgreen" stroke-width="2" points="1224.28,-353.63 1227.43,-363.75 1231.27,-353.87 1224.28,-353.63"/>
</g>

<g id="solar_stove" class="node">
<title>solar_stove</title>
<g id="a_solar_stove"><a xlink:title=" ">
<path fill="white" stroke="black" d="M1029.9,-544C1029.9,-544 976.1,-544 976.1,-544 972.76,-544 969.43,-540.67 969.43,-537.33 969.43,-537.33 969.43,-530.67 969.43,-530.67 969.43,-527.33 972.76,-524 976.1,-524 976.1,-524 1029.9,-524 1029.9,-524 1033.24,-524 1036.57,-527.33 1036.57,-530.67 1036.57,-530.67 1036.57,-537.33 1036.57,-537.33 1036.57,-540.67 1033.24,-544 1029.9,-544"/>
<text text-anchor="middle" x="1003" y="-531" font-family="Helvetica,sans-Serif" font-size="10.00">solar_stove</text>
</a>
</g>
</g>

<g id="Sun___solar_stove" class="edge">
<title>Sun-&gt;solar_stove</title>
<path fill="none" stroke="forestgreen" stroke-width="2" d="M1224.9,-240.76C1192.9,-282.89 1061.87,-455.46 1017.65,-513.7"/>
<polygon fill="forestgreen" stroke="forestgreen" stroke-width="2" points="1015.11,-511.26 1011.85,-521.34 1020.69,-515.49 1015.11,-511.26"/>
</g>

<g id="Water" class="node">
<title>Water</title>
<g id="a_Water"><a xlink:title=" ">
<path fill="white" stroke="black" d="M1136.67,-240.4C1136.67,-240.4 1107.33,-240.4 1107.33,-240.4 1104,-240.4 1100.67,-237.07 1100.67,-233.73 1100.67,-233.73 1100.67,-227.07 1100.67,-227.07 1100.67,-223.73 1104,-220.4 1107.33,-220.4 1107.33,-220.4 1136.67,-220.4 1136.67,-220.4 1140,-220.4 1143.33,-223.73 1143.33,-227.07 1143.33,-227.07 1143.33,-233.73 1143.33,-233.73 1143.33,-237.07 1140,-240.4 1136.67,-240.4"/>
<text text-anchor="middle" x="1122" y="-227.4" font-family="Helvetica,sans-Serif" font-size="10.00">Water</text>
</a>
</g>
</g>

<g id="Water___water" class="edge">
<title>Water-&gt;water</title>
<path fill="none" stroke="forestgreen" stroke-width="2" d="M1100.57,-232.75C1035.24,-237.44 843,-255.77 843,-309.2 843,-309.2 843,-309.2 843,-445.2 843,-457.3 684.55,-502.23 609.97,-522.71"/>
<polygon fill="forestgreen" stroke="forestgreen" stroke-width="2" points="609.14,-519.31 600.41,-525.32 610.98,-526.06 609.14,-519.31"/>
</g>

<g id="Boat___Missions" class="edge">
<title>Boat-&gt;Missions</title>
<path fill="none" stroke="forestgreen" stroke-width="2" d="M1821.89,-636.93C1791.34,-656.21 1729.52,-694.82 1676,-725.68 1645.33,-743.37 1606,-728.28 1606,-763.68 1606,-763.68 1606,-763.68 1606,-915.68 1606,-931.25 1594.89,-944.37 1583.15,-953.88"/>
<polygon fill="forestgreen" stroke="forestgreen" stroke-width="2" points="1581.43,-950.8 1575.38,-959.5 1585.53,-956.47 1581.43,-950.8"/>
</g>

<g id="Boat___travel_by_wind" class="edge">
<title>Boat-&gt;travel_by_wind</title>
<path fill="none" stroke="forestgreen" stroke-width="2" d="M1820.37,-635.74C1808.8,-641.44 1793.93,-648.04 1780,-652.08 1649.37,-690.05 1608.69,-676.03 1472.34,-697.06"/>
<polygon fill="forestgreen" stroke="forestgreen" stroke-width="2" points="1472.04,-693.57 1462.71,-698.59 1473.14,-700.48 1472.04,-693.57"/>
</g>

<g id="turbine___battery" class="edge">
<title>turbine-&gt;battery</title>
<path fill="none" stroke="forestgreen" stroke-width="2" d="M1288.13,-387.51C1286.01,-394.42 1282.99,-404.23 1280.08,-413.7"/>
<polygon fill="forestgreen" stroke="forestgreen" stroke-width="2" points="1276.75,-412.62 1277.15,-423.2 1283.44,-414.68 1276.75,-412.62"/>
</g>

<g id="panels___battery" class="edge">
<title>panels-&gt;battery</title>
<path fill="none" stroke="forestgreen" stroke-width="2" d="M1233.3,-387.51C1238.63,-395.38 1246.52,-407.03 1253.7,-417.65"/>
<polygon fill="forestgreen" stroke="forestgreen" stroke-width="2" points="1250.6,-419.3 1259.1,-425.62 1256.4,-415.38 1250.6,-419.3"/>
</g>

<g id="solar_stove___cook_smarter" class="edge">
<title>solar_stove-&gt;cook_smarter</title>
<path fill="none" stroke="forestgreen" stroke-width="2" d="M974.26,-544.46C962.52,-547.98 948.73,-551.68 936,-554 796.02,-579.53 747.74,-524.85 617,-581 605.03,-586.14 594.01,-595.57 585.65,-604.17"/>
<polygon fill="forestgreen" stroke="forestgreen" stroke-width="2" points="583.29,-601.57 579.19,-611.34 588.49,-606.25 583.29,-601.57"/>
</g>

<g id="squat" class="node">
<title>squat</title>
<g id="a_squat"><a xlink:title=" ">
<path fill="white" stroke="black" d="M1715.56,-544C1715.56,-544 1688.44,-544 1688.44,-544 1685.1,-544 1681.77,-540.67 1681.77,-537.33 1681.77,-537.33 1681.77,-530.67 1681.77,-530.67 1681.77,-527.33 1685.1,-524 1688.44,-524 1688.44,-524 1715.56,-524 1715.56,-524 1718.9,-524 1722.23,-527.33 1722.23,-530.67 1722.23,-530.67 1722.23,-537.33 1722.23,-537.33 1722.23,-540.67 1718.9,-544 1715.56,-544"/>
<text text-anchor="middle" x="1702" y="-531" font-family="Helvetica,sans-Serif" font-size="10.00">squat</text>
</a>
</g>
</g>

<g id="squat___Health" class="edge">
<title>squat-&gt;Health</title>
<path fill="none" stroke="forestgreen" stroke-width="2" d="M1712.64,-544.39C1719.91,-551.34 1729.24,-561.42 1735,-572 1739.82,-580.86 1743.09,-591.51 1745.24,-600.76"/>
<polygon fill="forestgreen" stroke="forestgreen" stroke-width="2" points="1741.77,-601.22 1747.13,-610.35 1748.63,-599.87 1741.77,-601.22"/>
</g>
</g>
</svg>