<svg viewBox="0.00 0.00 1915.82 1055.28" xmlns="http://www.w3.org/2000/svg" xmlns:xlink="http://www.w3.org/1999/xlink">
<g id="graph0" class="graph" transform="scale(1 1) rotate(0) translate(4 1051.28)">
<g id="a_graph0"><a xlink:title=" ">
<polygon fill="white" stroke="none" points="-4,4 -4,-1051.28 1911.82,-1051.28 1911.82,4 -4,4"/>
</a>
</g>
<g id="clust6" class="cluster">
<title>cluster_sailing</title>
<g id="a_clust6"><a xlink:title=" ">
<path fill="whitesmoke" stroke="whitesmoke" d="M1108.23,-411.4C1108.23,-411.4 1390.23,-411.4 1390.23,-411.4 1396.23,-411.4 1402.23,-417.4 1402.23,-423.4 1402.23,-423.4 1402.23,-642.48 1402.23,-642.48 1402.23,-648.48 1396.23,-654.48 1390.23,-654.48 1390.23,-654.48 1108.23,-654.48 1108.23,-654.48 1102.23,-654.48 1096.23,-648.48 1096.23,-642.48 1096.23,-642.48 1096.23,-423.4 1096.23,-423.4 1096.23,-417.4 1102.23,-411.4 1108.23,-411.4"/>
<text text-anchor="middle" x="1249.23" y="-419.6" font-family="Helvetica,sans-Serif" font-size="14.00">sailing</text>
</a>
</g>
</g>
<g id="clust7" class="cluster">
<title>cluster_communication</title>
<g id="a_clust7"><a xlink:title=" ">
<path fill="whitesmoke" stroke="whitesmoke" d="M720.23,-509.8C720.23,-509.8 944.23,-509.8 944.23,-509.8 950.23,-509.8 956.23,-515.8 956.23,-521.8 956.23,-521.8 956.23,-774.48 956.23,-774.48 956.23,-780.48 950.23,-786.48 944.23,-786.48 944.23,-786.48 720.23,-786.48 720.23,-786.48 714.23,-786.48 708.23,-780.48 708.23,-774.48 708.23,-774.48 708.23,-521.8 708.23,-521.8 708.23,-515.8 714.23,-509.8 720.23,-509.8"/>
<text text-anchor="middle" x="832.23" y="-518" font-family="Helvetica,sans-Serif" font-size="14.00">interaction</text>
</a>
</g>
</g>
<g id="clust8" class="cluster">
<title>cluster_kitchen</title>
<g id="a_clust8"><a xlink:title=" ">
<path fill="whitesmoke" stroke="whitesmoke" d="M192.23,-18C192.23,-18 576.23,-18 576.23,-18 582.23,-18 588.23,-24 588.23,-30 588.23,-30 588.23,-642.48 588.23,-642.48 588.23,-648.48 582.23,-654.48 576.23,-654.48 576.23,-654.48 192.23,-654.48 192.23,-654.48 186.23,-654.48 180.23,-648.48 180.23,-642.48 180.23,-642.48 180.23,-30 180.23,-30 180.23,-24 186.23,-18 192.23,-18"/>
<text text-anchor="middle" x="384.23" y="-26.2" font-family="Helvetica,sans-Serif" font-size="14.00">kitchen</text>
</a>
</g>
</g>
<g id="clust9" class="cluster">
<title>cluster_safety</title>
<g id="a_clust9"><a xlink:title=" ">
<path fill="whitesmoke" stroke="whitesmoke" d="M1688.23,-509.8C1688.23,-509.8 1868.23,-509.8 1868.23,-509.8 1874.23,-509.8 1880.23,-515.8 1880.23,-521.8 1880.23,-521.8 1880.23,-699.48 1880.23,-699.48 1880.23,-705.48 1874.23,-711.48 1868.23,-711.48 1868.23,-711.48 1688.23,-711.48 1688.23,-711.48 1682.23,-711.48 1676.23,-705.48 1676.23,-699.48 1676.23,-699.48 1676.23,-521.8 1676.23,-521.8 1676.23,-515.8 1682.23,-509.8 1688.23,-509.8"/>
<text text-anchor="middle" x="1778.23" y="-518" font-family="Helvetica,sans-Serif" font-size="14.00">safety</text>
</a>
</g>
</g>
<g id="clust10" class="cluster">
<title>cluster_maintenance</title>
<g id="a_clust10"><a xlink:title=" ">
<path fill="whitesmoke" stroke="whitesmoke" d="M1588.23,-187.6C1588.23,-187.6 1704.23,-187.6 1704.23,-187.6 1710.23,-187.6 1716.23,-193.6 1716.23,-199.6 1716.23,-199.6 1716.23,-460.2 1716.23,-460.2 1716.23,-466.2 1710.23,-472.2 1704.23,-472.2 1704.23,-472.2 1588.23,-472.2 1588.23,-472.2 1582.23,-472.2 1576.23,-466.2 1576.23,-460.2 1576.23,-460.2 1576.23,-199.6 1576.23,-199.6 1576.23,-193.6 1582.23,-187.6 1588.23,-187.6"/>
<text text-anchor="middle" x="1646.23" y="-195.8" font-family="Helvetica,sans-Serif" font-size="14.00">maintenance</text>
</a>
</g>
</g>
<g id="clust11" class="cluster">
<title>cluster_legend</title>
<g id="a_clust11"><a xlink:title=" ">
<polygon fill="white" stroke="black" points="923.23,-8 923.23,-88.8 1552.23,-88.8 1552.23,-8 923.23,-8"/>
<text text-anchor="middle" x="1237.73" y="-16.2" font-family="Helvetica,sans-Serif" font-size="14.00">legend</text>
</a>
</g>
</g>
<g id="clust14" class="cluster">
<title>cluster_nature</title>
<g id="a_clust14"><a xlink:title=" ">
<path fill="whitesmoke" stroke="whitesmoke" d="M658.23,-107.8C658.23,-107.8 1036.23,-107.8 1036.23,-107.8 1042.23,-107.8 1048.23,-113.8 1048.23,-119.8 1048.23,-119.8 1048.23,-156.6 1048.23,-156.6 1048.23,-162.6 1042.23,-168.6 1036.23,-168.6 1036.23,-168.6 658.23,-168.6 658.23,-168.6 652.23,-168.6 646.23,-162.6 646.23,-156.6 646.23,-156.6 646.23,-119.8 646.23,-119.8 646.23,-113.8 652.23,-107.8 658.23,-107.8"/>
<text text-anchor="middle" x="847.23" y="-116" font-family="Helvetica,sans-Serif" font-size="14.00">nature</text>
</a>
</g>
</g>
<g id="clust15" class="cluster">
<title>cluster_values</title>
<g id="a_clust15"><a xlink:title=" ">
<path fill="whitesmoke" stroke="whitesmoke" d="M690.23,-939.48C690.23,-939.48 906.23,-939.48 906.23,-939.48 912.23,-939.48 918.23,-945.48 918.23,-951.48 918.23,-951.48 918.23,-988.28 918.23,-988.28 918.23,-994.28 912.23,-1000.28 906.23,-1000.28 906.23,-1000.28 690.23,-1000.28 690.23,-1000.28 684.23,-1000.28 678.23,-994.28 678.23,-988.28 678.23,-988.28 678.23,-951.48 678.23,-951.48 678.23,-945.48 684.23,-939.48 690.23,-939.48"/>
<text text-anchor="middle" x="798.23" y="-983.68" font-family="Helvetica,sans-Serif" font-size="14.00">values</text>
</a>
</g>
</g>

<g id="shower" class="node">
<title>shower</title>
<g id="a_shower"><a xlink:title=" ">
<polygon fill="white" stroke="black" stroke-dasharray="5,2" points="170.35,-562.6 122.12,-562.6 122.12,-542.6 170.35,-542.6 170.35,-562.6"/>
<text text-anchor="middle" x="146.23" y="-549.6" font-family="Helvetica,sans-Serif" font-size="10.00">shower</text>
</a>
</g>
</g>

<g id="fridge" class="node">
<title>fridge</title>
<g id="a_fridge"><a xlink:title=" ">
<polygon fill="white" stroke="black" stroke-dasharray="5,2" points="702.74,-464.2 661.73,-464.2 661.73,-444.2 702.74,-444.2 702.74,-464.2"/>
<text text-anchor="middle" x="682.23" y="-451.2" font-family="Helvetica,sans-Serif" font-size="10.00">fridge</text>
</a>
</g>
</g>

<g id="freezer" class="node">
<title>freezer</title>
<g id="a_freezer"><a xlink:title=" ">
<polygon fill="white" stroke="black" stroke-dasharray="5,2" points="643.8,-464.2 596.67,-464.2 596.67,-444.2 643.8,-444.2 643.8,-464.2"/>
<text text-anchor="middle" x="620.23" y="-451.2" font-family="Helvetica,sans-Serif" font-size="10.00">freezer</text>
</a>
</g>
</g>

<g id="stress" class="node">
<title>stress</title>
<g id="a_stress"><a xlink:title=" ">
<polygon fill="white" stroke="red" stroke-dasharray="5,2" points="1544.57,-853.48 1501.9,-853.48 1501.9,-833.48 1544.57,-833.48 1544.57,-853.48"/>
<text text-anchor="middle" x="1523.23" y="-840.48" font-family="Helvetica,sans-Serif" font-size="10.00">stress</text>
</a>
</g>
</g>

<g id="accidents" class="node exit">
<title>accidents</title>
<g id="a_accidents"><a xlink:title=" ">
<polygon fill="white" stroke="red" stroke-dasharray="5,2" points="1643.36,-910.48 1585.11,-910.48 1585.11,-890.48 1643.36,-890.48 1643.36,-910.48"/>
<text text-anchor="middle" x="1614.23" y="-897.48" font-family="Helvetica,sans-Serif" font-size="10.00">accidents</text>
</a>
</g>
</g>

<g id="stress___accidents" class="edge">
<title>stress-&gt;accidents</title>
<path fill="none" stroke="forestgreen" stroke-width="2" d="M1538.67,-853.81C1552.14,-861.95 1571.96,-873.93 1587.92,-883.58"/>
<polygon fill="forestgreen" stroke="forestgreen" stroke-width="2" points="1585.76,-886.37 1596.13,-888.54 1589.38,-880.37 1585.76,-886.37"/>
</g>

<g id="Freedom" class="node">
<title>Freedom</title>
<g id="a_Freedom"><a xlink:title=" ">
<path fill="#31a354" stroke="black" d="M903.57,-967.48C903.57,-967.48 860.89,-967.48 860.89,-967.48 857.56,-967.48 854.23,-964.15 854.23,-960.82 854.23,-960.82 854.23,-954.15 854.23,-954.15 854.23,-950.82 857.56,-947.48 860.89,-947.48 860.89,-947.48 903.57,-947.48 903.57,-947.48 906.91,-947.48 910.24,-950.82 910.24,-954.15 910.24,-954.15 910.24,-960.82 910.24,-960.82 910.24,-964.15 906.91,-967.48 903.57,-967.48"/>
<text text-anchor="middle" x="882.23" y="-954.48" font-family="Helvetica,sans-Serif" font-size="10.00" fill="gold">Freedom</text>
</a>
</g>
</g>

<g id="accidents___Freedom" class="edge">
<title>accidents-&gt;Freedom</title>
<path fill="none" stroke="red" stroke-width="2" stroke-dasharray="5,2" d="M1584.63,-903.71C1470.08,-912.32 1055.68,-943.45 923.23,-953.4"/>
<polygon fill="red" stroke="red" stroke-width="2" points="923.34,-949.89 913.63,-954.13 923.86,-956.87 923.34,-949.89"/>
</g>

<g id="waste" class="node">
<title>waste</title>
<g id="a_waste"><a xlink:title=" ">
<polygon fill="white" stroke="red" stroke-dasharray="5,2" points="130.3,-307.4 88.17,-307.4 88.17,-287.4 130.3,-287.4 130.3,-307.4"/>
<text text-anchor="middle" x="109.23" y="-294.4" font-family="Helvetica,sans-Serif" font-size="10.00">waste</text>
</a>
</g>
</g>

<g id="consume_responsibly" class="node">
<title>consume_responsibly</title>
<g id="a_consume_responsibly"><a xlink:title=" ">
<path fill="#bae4b3" stroke="black" d="M260.52,-796.48C260.52,-796.48 217.94,-796.48 217.94,-796.48 211.94,-796.48 205.94,-790.48 205.94,-784.48 205.94,-784.48 205.94,-752.48 205.94,-752.48 205.94,-746.48 211.94,-740.48 217.94,-740.48 217.94,-740.48 260.52,-740.48 260.52,-740.48 266.52,-740.48 272.52,-746.48 272.52,-752.48 272.52,-752.48 272.52,-784.48 272.52,-784.48 272.52,-790.48 266.52,-796.48 260.52,-796.48"/>
<text text-anchor="middle" x="239.23" y="-783.48" font-family="Helvetica,sans-Serif" font-size="10.00">consume</text>
<text text-anchor="middle" x="239.23" y="-771.48" font-family="Helvetica,sans-Serif" font-size="10.00">limited</text>
<text text-anchor="middle" x="239.23" y="-759.48" font-family="Helvetica,sans-Serif" font-size="10.00">resources</text>
<text text-anchor="middle" x="239.23" y="-747.48" font-family="Helvetica,sans-Serif" font-size="10.00">responsibly</text>
</a>
</g>
</g>

<g id="waste___consume_responsibly" class="edge">
<title>waste-&gt;consume_responsibly</title>
<path fill="none" stroke="red" stroke-width="2" stroke-dasharray="5,2" d="M94.19,-307.89C78.52,-319.07 56.23,-339.23 56.23,-363.4 56.23,-363.4 56.23,-363.4 56.23,-694.48 56.23,-753.26 138.68,-766.02 192.9,-768.06"/>
<polygon fill="red" stroke="red" stroke-width="2" points="192.56,-771.55 202.64,-768.29 192.73,-764.56 192.56,-771.55"/>
</g>

<g id="pesticides" class="node">
<title>pesticides</title>
<g id="a_pesticides"><a xlink:title=" ">
<polygon fill="white" stroke="red" stroke-dasharray="5,2" points="60.47,-160.6 0,-160.6 0,-140.6 60.47,-140.6 60.47,-160.6"/>
<text text-anchor="middle" x="30.23" y="-147.6" font-family="Helvetica,sans-Serif" font-size="10.00">pesticides</text>
</a>
</g>
</g>

<g id="food" class="node">
<title>food</title>
<g id="a_food"><a xlink:title="food provisions">
<polygon fill="#bdd7e7" stroke="black" points="223.23,-250.4 187.77,-230.4 223.23,-210.4 258.7,-230.4 223.23,-250.4"/>
<text text-anchor="middle" x="223.23" y="-227.4" font-family="Helvetica,sans-Serif" font-size="10.00">food</text>
</a>
</g>
</g>

<g id="pesticides___food" class="edge">
<title>pesticides-&gt;food</title>
<path fill="none" stroke="red" stroke-width="2" stroke-dasharray="5,2" d="M53.51,-160.98C87.91,-174.85 152.4,-200.85 191.22,-216.5"/>
<polygon fill="red" stroke="red" stroke-width="2" points="189.7,-219.66 200.28,-220.15 192.32,-213.16 189.7,-219.66"/>
</g>

<g id="Sustainability" class="node">
<title>Sustainability</title>
<g id="a_Sustainability"><a xlink:title=" ">
<path fill="#31a354" stroke="black" d="M754.03,-967.48C754.03,-967.48 692.44,-967.48 692.44,-967.48 689.11,-967.48 685.77,-964.15 685.77,-960.82 685.77,-960.82 685.77,-954.15 685.77,-954.15 685.77,-950.82 689.11,-947.48 692.44,-947.48 692.44,-947.48 754.03,-947.48 754.03,-947.48 757.36,-947.48 760.69,-950.82 760.69,-954.15 760.69,-954.15 760.69,-960.82 760.69,-960.82 760.69,-964.15 757.36,-967.48 754.03,-967.48"/>
<text text-anchor="middle" x="723.23" y="-954.48" font-family="Helvetica,sans-Serif" font-size="10.00" fill="gold">Sustainability</text>
</a>
</g>
</g>

<g id="pesticides___Sustainability" class="edge">
<title>pesticides-&gt;Sustainability</title>
<path fill="none" stroke="red" stroke-width="2" stroke-dasharray="5,2" d="M27.92,-160.63C24.43,-175.06 18.23,-204.25 18.23,-229.4 18.23,-229.4 18.23,-229.4 18.23,-901.48 18.23,-934.32 510.81,-950.69 672.5,-955.18"/>
<polygon fill="red" stroke="red" stroke-width="2" points="672.21,-958.67 682.3,-955.45 672.4,-951.68 672.21,-958.67"/>
</g>

<g id="fossils" class="node">
<title>fossils</title>
<g id="a_fossils"><a xlink:title=" ">
<polygon fill="white" stroke="red" stroke-dasharray="5,2" points="986.13,-160.6 942.34,-160.6 942.34,-140.6 986.13,-140.6 986.13,-160.6"/>
<text text-anchor="middle" x="964.23" y="-147.6" font-family="Helvetica,sans-Serif" font-size="10.00">fossils</text>
</a>
</g>
</g>

<g id="propulsion" class="node">
<title>propulsion</title>
<g id="a_propulsion"><a xlink:title=" ">
<path fill="white" stroke="black" d="M1188.64,-562.6C1188.64,-562.6 1139.83,-562.6 1139.83,-562.6 1136.5,-562.6 1133.16,-559.27 1133.16,-555.93 1133.16,-555.93 1133.16,-549.27 1133.16,-549.27 1133.16,-545.93 1136.5,-542.6 1139.83,-542.6 1139.83,-542.6 1188.64,-542.6 1188.64,-542.6 1191.97,-542.6 1195.31,-545.93 1195.31,-549.27 1195.31,-549.27 1195.31,-555.93 1195.31,-555.93 1195.31,-559.27 1191.97,-562.6 1188.64,-562.6"/>
<text text-anchor="middle" x="1164.23" y="-549.6" font-family="Helvetica,sans-Serif" font-size="10.00">propulsion</text>
</a>
</g>
</g>

<g id="fossils___propulsion" class="edge">
<title>fossils-&gt;propulsion</title>
<path fill="none" stroke="forestgreen" stroke-width="2" stroke-dasharray="5,2" d="M978.87,-161.04C983.89,-163.88 989.64,-166.74 995.23,-168.6 1086.17,-198.89 1422.23,-133.55 1422.23,-229.4 1422.23,-229.4 1422.23,-229.4 1422.23,-455.2 1422.23,-467.14 1413.82,-468.67 1403.23,-474.2 1323.99,-515.62 1284.27,-468 1205.23,-509.8 1194.99,-515.22 1185.73,-524.1 1178.62,-532.29"/>
<polygon fill="forestgreen" stroke="forestgreen" stroke-width="2" points="1176.02,-529.95 1172.5,-539.94 1181.48,-534.32 1176.02,-529.95"/>
</g>

<g id="schedule" class="node">
<title>schedule</title>
<g id="a_schedule"><a xlink:title=" ">
<polygon fill="white" stroke="red" stroke-dasharray="5,2" points="1316.25,-703.48 1260.22,-703.48 1260.22,-683.48 1316.25,-683.48 1316.25,-703.48"/>
<text text-anchor="middle" x="1288.23" y="-690.48" font-family="Helvetica,sans-Serif" font-size="10.00">schedule</text>
</a>
</g>
</g>

<g id="tourist" class="node">
<title>tourist</title>
<g id="a_tourist"><a xlink:title=" ">
<polygon fill="white" stroke="red" stroke-dasharray="5,2" points="1316.85,-778.48 1273.62,-778.48 1273.62,-758.48 1316.85,-758.48 1316.85,-778.48"/>
<text text-anchor="middle" x="1295.23" y="-765.48" font-family="Helvetica,sans-Serif" font-size="10.00">tourist</text>
</a>
</g>
</g>

<g id="schedule___tourist" class="edge">
<title>schedule-&gt;tourist</title>
<path fill="none" stroke="forestgreen" stroke-width="2" d="M1289.12,-703.73C1290.11,-714.09 1291.76,-731.27 1293.1,-745.19"/>
<polygon fill="forestgreen" stroke="forestgreen" stroke-width="2" points="1289.6,-745.45 1294.04,-755.07 1296.57,-744.78 1289.6,-745.45"/>
</g>

<g id="tourist___stress" class="edge">
<title>tourist-&gt;stress</title>
<path fill="none" stroke="forestgreen" stroke-width="2" d="M1317.1,-776.48C1356.93,-789.24 1441.6,-816.35 1489.1,-831.55"/>
<polygon fill="forestgreen" stroke="forestgreen" stroke-width="2" points="1487.96,-834.87 1498.56,-834.58 1490.1,-828.2 1487.96,-834.87"/>
</g>

<g id="avoid" class="node">
<title>avoid</title>
<g id="a_avoid"><a xlink:title=" ">
<polygon fill="white" stroke="red" stroke-dasharray="5,2" points="1200.19,-70.8 1160.28,-70.8 1160.28,-50.8 1200.19,-50.8 1200.19,-70.8"/>
<text text-anchor="middle" x="1180.23" y="-57.8" font-family="Helvetica,sans-Serif" font-size="10.00">avoid</text>
</a>
</g>
</g>

<g id="ltd" class="node">
<title>ltd</title>
<g id="a_ltd"><a xlink:title="limited capacity">
<polygon fill="#bdd7e7" stroke="black" points="1262.23,-80.8 1235.67,-60.8 1262.23,-40.8 1288.8,-60.8 1262.23,-80.8"/>
<text text-anchor="middle" x="1262.23" y="-57.8" font-family="Helvetica,sans-Serif" font-size="10.00">ltd</text>
</a>
</g>
</g>


<g id="food___waste" class="edge">
<title>food-&gt;waste</title>
<path fill="none" stroke="red" stroke-width="2" stroke-dasharray="5,2" d="M206.41,-240.99C188.12,-251.42 158.6,-268.25 136.89,-280.63"/>
<polygon fill="red" stroke="red" stroke-width="2" points="135.34,-277.49 128.38,-285.48 138.8,-283.57 135.34,-277.49"/>
</g>

<g id="consume_responsibly_f" class="node">
<title>consume_responsibly_f</title>
<g id="a_consume_responsibly_f"><a xlink:title=" ">
<path fill="#bae4b3" stroke="black" d="M243.25,-374.4C243.25,-374.4 197.22,-374.4 197.22,-374.4 193.89,-374.4 190.55,-371.07 190.55,-367.73 190.55,-367.73 190.55,-361.07 190.55,-361.07 190.55,-357.73 193.89,-354.4 197.22,-354.4 197.22,-354.4 243.25,-354.4 243.25,-354.4 246.58,-354.4 249.92,-357.73 249.92,-361.07 249.92,-361.07 249.92,-367.73 249.92,-367.73 249.92,-371.07 246.58,-374.4 243.25,-374.4"/>
<text text-anchor="middle" x="220.23" y="-361.4" font-family="Helvetica,sans-Serif" font-size="10.00">save food</text>
</a>
</g>
</g>

<g id="food___consume_responsibly_f" class="edge">
<title>food-&gt;consume_responsibly_f</title>
<path fill="none" stroke="forestgreen" stroke-width="2" d="M222.8,-250.59C222.25,-274.62 221.32,-315.7 220.74,-341.1"/>
<polygon fill="forestgreen" stroke="forestgreen" stroke-width="2" points="217.24,-340.89 220.52,-350.97 224.24,-341.05 217.24,-340.89"/>
</g>

<g id="in_one_place" class="node">
<title>in_one_place</title>
<g id="a_in_one_place"><a xlink:title=" ">
<path fill="#edf8e9" stroke="black" d="M421.32,-464.2C421.32,-464.2 359.15,-464.2 359.15,-464.2 355.82,-464.2 352.49,-460.87 352.49,-457.53 352.49,-457.53 352.49,-450.87 352.49,-450.87 352.49,-447.53 355.82,-444.2 359.15,-444.2 359.15,-444.2 421.32,-444.2 421.32,-444.2 424.65,-444.2 427.98,-447.53 427.98,-450.87 427.98,-450.87 427.98,-457.53 427.98,-457.53 427.98,-460.87 424.65,-464.2 421.32,-464.2"/>
<text text-anchor="middle" x="390.23" y="-451.2" font-family="Helvetica,sans-Serif" font-size="10.00">in_one_place</text>
</a>
</g>
</g>

<g id="food___in_one_place" class="edge">
<title>food-&gt;in_one_place</title>
<path fill="none" stroke="forestgreen" stroke-width="2" d="M233.43,-244.94C261.9,-282.76 342.36,-389.61 375.59,-433.75"/>
<polygon fill="forestgreen" stroke="forestgreen" stroke-width="2" points="372.67,-435.69 381.48,-441.57 378.26,-431.48 372.67,-435.69"/>
</g>

<g id="battery" class="node">
<title>battery</title>
<g id="a_battery"><a xlink:title="battery capacity">
<polygon fill="#bdd7e7" stroke="black" points="746.23,-384.4 699.66,-364.4 746.23,-344.4 792.81,-364.4 746.23,-384.4"/>
<text text-anchor="middle" x="746.23" y="-361.4" font-family="Helvetica,sans-Serif" font-size="10.00">battery</text>
</a>
</g>
</g>

<g id="battery___fridge" class="edge">
<title>battery-&gt;fridge</title>
<path fill="none" stroke="forestgreen" stroke-width="2" stroke-dasharray="5,2" d="M735.46,-380.16C730.51,-386.94 724.57,-395.07 719.23,-402.4 711.74,-412.68 703.4,-424.13 696.53,-433.56"/>
<polygon fill="forestgreen" stroke="forestgreen" stroke-width="2" points="693.89,-431.24 690.83,-441.39 699.55,-435.36 693.89,-431.24"/>
</g>

<g id="battery___freezer" class="edge">
<title>battery-&gt;freezer</title>
<path fill="none" stroke="forestgreen" stroke-width="2" stroke-dasharray="5,2" d="M721.27,-373.96C701.2,-381.65 673.04,-394.36 652.23,-411.4 644.81,-417.48 638.09,-425.61 632.75,-433.07"/>
<polygon fill="forestgreen" stroke="forestgreen" stroke-width="2" points="629.87,-431.09 627.26,-441.36 635.7,-434.96 629.87,-431.09"/>
</g>

<g id="cook_smarter" class="node">
<title>cook_smarter</title>
<g id="a_cook_smarter"><a xlink:title=" ">
<path fill="#edf8e9" stroke="black" d="M257.86,-562.6C257.86,-562.6 194.61,-562.6 194.61,-562.6 191.28,-562.6 187.95,-559.27 187.95,-555.93 187.95,-555.93 187.95,-549.27 187.95,-549.27 187.95,-545.93 191.28,-542.6 194.61,-542.6 194.61,-542.6 257.86,-542.6 257.86,-542.6 261.19,-542.6 264.52,-545.93 264.52,-549.27 264.52,-549.27 264.52,-555.93 264.52,-555.93 264.52,-559.27 261.19,-562.6 257.86,-562.6"/>
<text text-anchor="middle" x="226.23" y="-549.6" font-family="Helvetica,sans-Serif" font-size="10.00">cook_smarter</text>
</a>
</g>
</g>

<g id="battery___cook_smarter" class="edge">
<title>battery-&gt;cook_smarter</title>
<path fill="none" stroke="forestgreen" stroke-width="2" d="M746.3,-384.69C745.24,-409.67 739.28,-452.57 712.23,-474.2 674.01,-504.76 318.23,-490.57 273.23,-509.8 261.25,-514.92 250.23,-524.35 241.88,-532.95"/>
<polygon fill="forestgreen" stroke="forestgreen" stroke-width="2" points="239.51,-530.35 235.42,-540.13 244.71,-535.03 239.51,-530.35"/>
</g>

<g id="el_engines" class="node">
<title>el_engines</title>
<g id="a_el_engines"><a xlink:title=" ">
<path fill="white" stroke="black" d="M1161.75,-464.2C1161.75,-464.2 1110.71,-464.2 1110.71,-464.2 1107.38,-464.2 1104.05,-460.87 1104.05,-457.53 1104.05,-457.53 1104.05,-450.87 1104.05,-450.87 1104.05,-447.53 1107.38,-444.2 1110.71,-444.2 1110.71,-444.2 1161.75,-444.2 1161.75,-444.2 1165.09,-444.2 1168.42,-447.53 1168.42,-450.87 1168.42,-450.87 1168.42,-457.53 1168.42,-457.53 1168.42,-460.87 1165.09,-464.2 1161.75,-464.2"/>
<text text-anchor="middle" x="1136.23" y="-451.2" font-family="Helvetica,sans-Serif" font-size="10.00">el_engines</text>
</a>
</g>
</g>

<g id="battery___el_engines" class="edge">
<title>battery-&gt;el_engines</title>
<path fill="none" stroke="forestgreen" stroke-width="2" d="M768.23,-375.28C788.01,-383.82 818.07,-395.94 845.23,-403.4 930.75,-426.88 1033.6,-441.37 1091.29,-448.3"/>
<polygon fill="forestgreen" stroke="forestgreen" stroke-width="2" points="1090.57,-451.74 1100.91,-449.43 1091.39,-444.78 1090.57,-451.74"/>
</g>

<g id="water" class="node">
<title>water</title>
<g id="a_water"><a xlink:title="freshwater stores">
<polygon fill="#bdd7e7" stroke="black" points="228.23,-474.2 187.78,-454.2 228.23,-434.2 268.69,-454.2 228.23,-474.2"/>
<text text-anchor="middle" x="228.23" y="-451.2" font-family="Helvetica,sans-Serif" font-size="10.00">water</text>
</a>
</g>
</g>

<g id="water___shower" class="edge">
<title>water-&gt;shower</title>
<path fill="none" stroke="forestgreen" stroke-width="2" stroke-dasharray="5,2" d="M215.31,-467.75C204.46,-478.53 188.76,-494.68 176.23,-509.8 170.47,-516.76 164.58,-524.74 159.56,-531.86"/>
<polygon fill="forestgreen" stroke="forestgreen" stroke-width="2" points="156.83,-529.65 154.04,-539.87 162.59,-533.62 156.83,-529.65"/>
</g>

<g id="water___cook_smarter" class="edge">
<title>water-&gt;cook_smarter</title>
<path fill="none" stroke="forestgreen" stroke-width="2" d="M227.84,-474.25C227.51,-490.12 227.04,-512.75 226.69,-529.43"/>
<polygon fill="forestgreen" stroke="forestgreen" stroke-width="2" points="223.2,-529.15 226.49,-539.22 230.2,-529.29 223.2,-529.15"/>
</g>

<g id="space" class="node">
<title>space</title>
<g id="a_space"><a xlink:title=" ">
<polygon fill="#bdd7e7" stroke="black" points="639.23,-384.4 596.55,-364.4 639.23,-344.4 681.92,-364.4 639.23,-384.4"/>
<text text-anchor="middle" x="639.23" y="-361.4" font-family="Helvetica,sans-Serif" font-size="10.00">space</text>
</a>
</g>
</g>

<g id="space___fridge" class="edge">
<title>space-&gt;fridge</title>
<path fill="none" stroke="forestgreen" stroke-width="2" stroke-dasharray="5,2" d="M646.92,-381.1C653.94,-395.43 664.37,-416.72 672.08,-432.46"/>
<polygon fill="forestgreen" stroke="forestgreen" stroke-width="2" points="668.9,-433.93 676.44,-441.37 675.19,-430.85 668.9,-433.93"/>
</g>

<g id="space___freezer" class="edge">
<title>space-&gt;freezer</title>
<path fill="none" stroke="forestgreen" stroke-width="2" stroke-dasharray="5,2" d="M635.48,-382.75C632.46,-396.68 628.21,-416.34 624.96,-431.35"/>
<polygon fill="forestgreen" stroke="forestgreen" stroke-width="2" points="621.56,-430.51 622.87,-441.02 628.41,-431.99 621.56,-430.51"/>
</g>

<g id="goal" class="node">
<title>goal</title>
<g id="a_goal"><a xlink:title=" ">
<path fill="#74c476" stroke="black" d="M1353.02,-70.8C1353.02,-70.8 1331.45,-70.8 1331.45,-70.8 1328.11,-70.8 1324.78,-67.47 1324.78,-64.13 1324.78,-64.13 1324.78,-57.47 1324.78,-57.47 1324.78,-54.13 1328.11,-50.8 1331.45,-50.8 1331.45,-50.8 1353.02,-50.8 1353.02,-50.8 1356.35,-50.8 1359.69,-54.13 1359.69,-57.47 1359.69,-57.47 1359.69,-64.13 1359.69,-64.13 1359.69,-67.47 1356.35,-70.8 1353.02,-70.8"/>
<text text-anchor="middle" x="1342.23" y="-57.8" font-family="Helvetica,sans-Serif" font-size="10.00">goal</text>
</a>
</g>
</g>


<g id="principle" class="node">
<title>principle</title>
<g id="a_principle"><a xlink:title=" ">
<path fill="#bae4b3" stroke="black" d="M1442.19,-70.8C1442.19,-70.8 1402.28,-70.8 1402.28,-70.8 1398.95,-70.8 1395.61,-67.47 1395.61,-64.13 1395.61,-64.13 1395.61,-57.47 1395.61,-57.47 1395.61,-54.13 1398.95,-50.8 1402.28,-50.8 1402.28,-50.8 1442.19,-50.8 1442.19,-50.8 1445.52,-50.8 1448.85,-54.13 1448.85,-57.47 1448.85,-57.47 1448.85,-64.13 1448.85,-64.13 1448.85,-67.47 1445.52,-70.8 1442.19,-70.8"/>
<text text-anchor="middle" x="1422.23" y="-57.8" font-family="Helvetica,sans-Serif" font-size="10.00">principle</text>
</a>
</g>
</g>


<g id="Growth" class="node">
<title>Growth</title>
<g id="a_Growth"><a xlink:title=" ">
<path fill="#74c476" stroke="black" d="M764.68,-853.48C764.68,-853.48 729.78,-853.48 729.78,-853.48 726.45,-853.48 723.12,-850.15 723.12,-846.82 723.12,-846.82 723.12,-840.15 723.12,-840.15 723.12,-836.82 726.45,-833.48 729.78,-833.48 729.78,-833.48 764.68,-833.48 764.68,-833.48 768.02,-833.48 771.35,-836.82 771.35,-840.15 771.35,-840.15 771.35,-846.82 771.35,-846.82 771.35,-850.15 768.02,-853.48 764.68,-853.48"/>
<text text-anchor="middle" x="747.23" y="-840.48" font-family="Helvetica,sans-Serif" font-size="10.00">Growth</text>
</a>
</g>
</g>

<g id="Health" class="node">
<title>Health</title>
<g id="a_Health"><a xlink:title=" ">
<path fill="#74c476" stroke="black" d="M610.02,-910.48C610.02,-910.48 578.45,-910.48 578.45,-910.48 575.11,-910.48 571.78,-907.15 571.78,-903.82 571.78,-903.82 571.78,-897.15 571.78,-897.15 571.78,-893.82 575.11,-890.48 578.45,-890.48 578.45,-890.48 610.02,-890.48 610.02,-890.48 613.35,-890.48 616.69,-893.82 616.69,-897.15 616.69,-897.15 616.69,-903.82 616.69,-903.82 616.69,-907.15 613.35,-910.48 610.02,-910.48"/>
<text text-anchor="middle" x="594.23" y="-897.48" font-family="Helvetica,sans-Serif" font-size="10.00">Health</text>
</a>
</g>
</g>

<g id="Health___Sustainability" class="edge">
<title>Health-&gt;Sustainability</title>
<path fill="none" stroke="forestgreen" stroke-width="2" d="M604.23,-910.95C611.08,-916.99 620.64,-924.59 630.23,-929.48 643.55,-936.28 658.84,-941.61 673.13,-945.68"/>
<polygon fill="forestgreen" stroke="forestgreen" stroke-width="2" points="671.86,-948.96 682.42,-948.15 673.66,-942.2 671.86,-948.96"/>
</g>

<g id="Autonomy" class="node">
<title>Autonomy</title>
<g id="a_Autonomy"><a xlink:title=" ">
<path fill="#74c476" stroke="black" d="M760.08,-910.48C760.08,-910.48 712.39,-910.48 712.39,-910.48 709.06,-910.48 705.72,-907.15 705.72,-903.82 705.72,-903.82 705.72,-897.15 705.72,-897.15 705.72,-893.82 709.06,-890.48 712.39,-890.48 712.39,-890.48 760.08,-890.48 760.08,-890.48 763.41,-890.48 766.75,-893.82 766.75,-897.15 766.75,-897.15 766.75,-903.82 766.75,-903.82 766.75,-907.15 763.41,-910.48 760.08,-910.48"/>
<text text-anchor="middle" x="736.23" y="-897.48" font-family="Helvetica,sans-Serif" font-size="10.00">Autonomy</text>
</a>
</g>
</g>

<g id="Autonomy___Freedom" class="edge">
<title>Autonomy-&gt;Freedom</title>
<path fill="none" stroke="forestgreen" stroke-width="2" d="M765.66,-910.9C787.76,-918.17 818.65,-928.77 845.23,-939.48 847.13,-940.25 849.06,-941.05 851.01,-941.89"/>
<polygon fill="forestgreen" stroke="forestgreen" stroke-width="2" points="849.47,-945.03 860.03,-945.9 852.32,-938.64 849.47,-945.03"/>
</g>

<g id="zero_emission" class="node">
<title>zero_emission</title>
<g id="a_zero_emission"><a xlink:title=" ">
<path fill="#74c476" stroke="black" d="M1027.8,-910.48C1027.8,-910.48 960.66,-910.48 960.66,-910.48 957.33,-910.48 954,-907.15 954,-903.82 954,-903.82 954,-897.15 954,-897.15 954,-893.82 957.33,-890.48 960.66,-890.48 960.66,-890.48 1027.8,-890.48 1027.8,-890.48 1031.14,-890.48 1034.47,-893.82 1034.47,-897.15 1034.47,-897.15 1034.47,-903.82 1034.47,-903.82 1034.47,-907.15 1031.14,-910.48 1027.8,-910.48"/>
<text text-anchor="middle" x="994.23" y="-897.48" font-family="Helvetica,sans-Serif" font-size="10.00">zero_emission</text>
</a>
</g>
</g>

<g id="zero_emission___Sustainability" class="edge">
<title>zero_emission-&gt;Sustainability</title>
<path fill="none" stroke="forestgreen" stroke-width="2" d="M953.51,-906.04C908.06,-911.66 832.58,-922.59 769.23,-939.48 765.61,-940.45 761.87,-941.59 758.16,-942.81"/>
<polygon fill="forestgreen" stroke="forestgreen" stroke-width="2" points="757,-939.51 748.75,-946.14 759.34,-946.11 757,-939.51"/>
</g>

<g id="zero_waste" class="node">
<title>zero_waste</title>
<g id="a_zero_waste"><a xlink:title=" ">
<path fill="#74c476" stroke="black" d="M535.14,-910.48C535.14,-910.48 481.33,-910.48 481.33,-910.48 478,-910.48 474.67,-907.15 474.67,-903.82 474.67,-903.82 474.67,-897.15 474.67,-897.15 474.67,-893.82 478,-890.48 481.33,-890.48 481.33,-890.48 535.14,-890.48 535.14,-890.48 538.47,-890.48 541.8,-893.82 541.8,-897.15 541.8,-897.15 541.8,-903.82 541.8,-903.82 541.8,-907.15 538.47,-910.48 535.14,-910.48"/>
<text text-anchor="middle" x="508.23" y="-897.48" font-family="Helvetica,sans-Serif" font-size="10.00">zero_waste</text>
</a>
</g>
</g>

<g id="zero_waste___Sustainability" class="edge">
<title>zero_waste-&gt;Sustainability</title>
<path fill="none" stroke="forestgreen" stroke-width="2" d="M542.3,-910.2C577.77,-919.27 633.68,-933.57 673.96,-943.88"/>
<polygon fill="forestgreen" stroke="forestgreen" stroke-width="2" points="672.96,-947.24 683.51,-946.32 674.69,-940.45 672.96,-947.24"/>
</g>

<g id="Travel" class="node">
<title>Travel</title>
<g id="a_Travel"><a xlink:title=" ">
<path fill="#74c476" stroke="#006d2c" d="M1230.46,-910.48C1230.46,-910.48 1200.01,-910.48 1200.01,-910.48 1196.68,-910.48 1193.34,-907.15 1193.34,-903.82 1193.34,-903.82 1193.34,-897.15 1193.34,-897.15 1193.34,-893.82 1196.68,-890.48 1200.01,-890.48 1200.01,-890.48 1230.46,-890.48 1230.46,-890.48 1233.79,-890.48 1237.13,-893.82 1237.13,-897.15 1237.13,-897.15 1237.13,-903.82 1237.13,-903.82 1237.13,-907.15 1233.79,-910.48 1230.46,-910.48"/>
<text text-anchor="middle" x="1215.23" y="-897.48" font-family="Helvetica,sans-Serif" font-size="10.00">Travel</text>
</a>
</g>
</g>

<g id="Travel___Freedom" class="edge">
<title>Travel-&gt;Freedom</title>
<path fill="none" stroke="forestgreen" stroke-width="2" d="M1192.87,-905.18C1137.66,-914.3 994.25,-937.98 923.26,-949.71"/>
<polygon fill="forestgreen" stroke="forestgreen" stroke-width="2" points="922.77,-946.24 913.47,-951.32 923.91,-953.15 922.77,-946.24"/>
</g>

<g id="Missions" class="node">
<title>Missions</title>
<g id="a_Missions"><a xlink:title=" ">
<path fill="#74c476" stroke="#006d2c" d="M1110.02,-910.48C1110.02,-910.48 1068.45,-910.48 1068.45,-910.48 1065.12,-910.48 1061.79,-907.15 1061.79,-903.82 1061.79,-903.82 1061.79,-897.15 1061.79,-897.15 1061.79,-893.82 1065.12,-890.48 1068.45,-890.48 1068.45,-890.48 1110.02,-890.48 1110.02,-890.48 1113.35,-890.48 1116.68,-893.82 1116.68,-897.15 1116.68,-897.15 1116.68,-903.82 1116.68,-903.82 1116.68,-907.15 1113.35,-910.48 1110.02,-910.48"/>
<text text-anchor="middle" x="1089.23" y="-897.48" font-family="Helvetica,sans-Serif" font-size="10.00">Missions</text>
</a>
</g>
</g>

<g id="Solidarity" class="node">
<title>Solidarity</title>
<g id="a_Solidarity"><a xlink:title=" ">
<path fill="#31a354" stroke="black" d="M829.13,-967.48C829.13,-967.48 785.34,-967.48 785.34,-967.48 782,-967.48 778.67,-964.15 778.67,-960.82 778.67,-960.82 778.67,-954.15 778.67,-954.15 778.67,-950.82 782,-947.48 785.34,-947.48 785.34,-947.48 829.13,-947.48 829.13,-947.48 832.46,-947.48 835.8,-950.82 835.8,-954.15 835.8,-954.15 835.8,-960.82 835.8,-960.82 835.8,-964.15 832.46,-967.48 829.13,-967.48"/>
<text text-anchor="middle" x="807.23" y="-954.48" font-family="Helvetica,sans-Serif" font-size="10.00" fill="gold">Solidarity</text>
</a>
</g>
</g>

<g id="Missions___Solidarity" class="edge">
<title>Missions-&gt;Solidarity</title>
<path fill="none" stroke="forestgreen" stroke-width="2" d="M1061.54,-907.12C1055.52,-908.29 1049.17,-909.47 1043.23,-910.48 955.57,-925.47 930.63,-914.65 845.23,-939.48 842.63,-940.24 839.98,-941.14 837.34,-942.13"/>
<polygon fill="forestgreen" stroke="forestgreen" stroke-width="2" points="836.06,-938.87 828.19,-945.96 838.77,-945.32 836.06,-938.87"/>
</g>

<g id="houserule" class="node">
<title>houserule</title>
<g id="a_houserule"><a xlink:title=" ">
<path fill="#edf8e9" stroke="black" d="M1537.53,-70.8C1537.53,-70.8 1490.94,-70.8 1490.94,-70.8 1487.61,-70.8 1484.27,-67.47 1484.27,-64.13 1484.27,-64.13 1484.27,-57.47 1484.27,-57.47 1484.27,-54.13 1487.61,-50.8 1490.94,-50.8 1490.94,-50.8 1537.53,-50.8 1537.53,-50.8 1540.86,-50.8 1544.19,-54.13 1544.19,-57.47 1544.19,-57.47 1544.19,-64.13 1544.19,-64.13 1544.19,-67.47 1540.86,-70.8 1537.53,-70.8"/>
<text text-anchor="middle" x="1514.23" y="-57.8" font-family="Helvetica,sans-Serif" font-size="10.00">houserule</text>
</a>
</g>
</g>


<g id="Efficiency" class="node">
<title>Efficiency</title>
<g id="a_Efficiency"><a xlink:title=" ">
<path fill="#bae4b3" stroke="black" d="M1046.96,-778.48C1046.96,-778.48 1001.5,-778.48 1001.5,-778.48 998.17,-778.48 994.84,-775.15 994.84,-771.82 994.84,-771.82 994.84,-765.15 994.84,-765.15 994.84,-761.82 998.17,-758.48 1001.5,-758.48 1001.5,-758.48 1046.96,-758.48 1046.96,-758.48 1050.3,-758.48 1053.63,-761.82 1053.63,-765.15 1053.63,-765.15 1053.63,-771.82 1053.63,-771.82 1053.63,-775.15 1050.3,-778.48 1046.96,-778.48"/>
<text text-anchor="middle" x="1024.23" y="-765.48" font-family="Helvetica,sans-Serif" font-size="10.00">Efficiency</text>
</a>
</g>
</g>

<g id="wonders_of_nature" class="node">
<title>wonders_of_nature</title>
<g id="a_wonders_of_nature"><a xlink:title=" ">
<path fill="#bae4b3" stroke="black" d="M917.37,-160.6C917.37,-160.6 829.09,-160.6 829.09,-160.6 825.76,-160.6 822.43,-157.27 822.43,-153.93 822.43,-153.93 822.43,-147.27 822.43,-147.27 822.43,-143.93 825.76,-140.6 829.09,-140.6 829.09,-140.6 917.37,-140.6 917.37,-140.6 920.71,-140.6 924.04,-143.93 924.04,-147.27 924.04,-147.27 924.04,-153.93 924.04,-153.93 924.04,-157.27 920.71,-160.6 917.37,-160.6"/>
<text text-anchor="middle" x="873.23" y="-147.6" font-family="Helvetica,sans-Serif" font-size="10.00">wonders_of_nature</text>
</a>
</g>
</g>

<g id="wonders_of_nature___Sustainability" class="edge">
<title>wonders_of_nature-&gt;Sustainability</title>
<path fill="none" stroke="forestgreen" stroke-width="2" d="M871,-160.92C866.74,-178.51 856.99,-217.77 847.23,-250.4 829.23,-310.59 830.14,-328.12 802.23,-384.4 780.8,-427.63 772.48,-437.44 741.23,-474.2 726.45,-491.59 717.51,-491.24 704.23,-509.8 668.22,-560.14 644.23,-573.59 644.23,-635.48 644.23,-635.48 644.23,-635.48 644.23,-901.48 644.23,-920.54 659.91,-933.53 677.29,-942.08"/>
<polygon fill="forestgreen" stroke="forestgreen" stroke-width="2" points="675.47,-945.11 686.04,-945.87 678.25,-938.68 675.47,-945.11"/>
</g>

<g id="mercilessness_of_nature" class="node exit">
<title>mercilessness_of_nature</title>
<g id="a_mercilessness_of_nature"><a xlink:title=" ">
<path fill="#bae4b3" stroke="black" d="M1901.15,-240.4C1901.15,-240.4 1787.32,-240.4 1787.32,-240.4 1783.98,-240.4 1780.65,-237.07 1780.65,-233.73 1780.65,-233.73 1780.65,-227.07 1780.65,-227.07 1780.65,-223.73 1783.98,-220.4 1787.32,-220.4 1787.32,-220.4 1901.15,-220.4 1901.15,-220.4 1904.48,-220.4 1907.82,-223.73 1907.82,-227.07 1907.82,-227.07 1907.82,-233.73 1907.82,-233.73 1907.82,-237.07 1904.48,-240.4 1901.15,-240.4"/>
<text text-anchor="middle" x="1844.23" y="-227.4" font-family="Helvetica,sans-Serif" font-size="10.00">mercilessness_of_nature</text>
</a>
</g>
</g>

<g id="mercilessness_of_nature___accidents" class="edge">
<title>mercilessness_of_nature-&gt;accidents</title>
<path fill="none" stroke="forestgreen" stroke-width="2" d="M1860.43,-240.88C1876.97,-251.92 1900.23,-271.82 1900.23,-296.4 1900.23,-296.4 1900.23,-296.4 1900.23,-844.48 1900.23,-893.48 1736.35,-899.81 1656.69,-900"/>
<polygon fill="forestgreen" stroke="forestgreen" stroke-width="2" points="1656.8,-896.5 1646.79,-899.98 1656.78,-903.5 1656.8,-896.5"/>
</g>

<g id="respect_each_other" class="node">
<title>respect_each_other</title>
<g id="a_respect_each_other"><a xlink:title=" ">
<path fill="#bae4b3" stroke="black" d="M916.76,-778.48C916.76,-778.48 825.7,-778.48 825.7,-778.48 822.37,-778.48 819.04,-775.15 819.04,-771.82 819.04,-771.82 819.04,-765.15 819.04,-765.15 819.04,-761.82 822.37,-758.48 825.7,-758.48 825.7,-758.48 916.76,-758.48 916.76,-758.48 920.1,-758.48 923.43,-761.82 923.43,-765.15 923.43,-765.15 923.43,-771.82 923.43,-771.82 923.43,-775.15 920.1,-778.48 916.76,-778.48"/>
<text text-anchor="middle" x="871.23" y="-765.48" font-family="Helvetica,sans-Serif" font-size="10.00">respect_each_other</text>
</a>
</g>
</g>

<g id="respect_each_other___Solidarity" class="edge">
<title>respect_each_other-&gt;Solidarity</title>
<path fill="none" stroke="forestgreen" stroke-width="2" d="M868.06,-778.76C858.29,-807.3 828.5,-894.35 814.56,-935.07"/>
<polygon fill="forestgreen" stroke="forestgreen" stroke-width="2" points="811.33,-933.7 811.41,-944.29 817.96,-935.96 811.33,-933.7"/>
</g>

<g id="respect_the_boat" class="node">
<title>respect_the_boat</title>
<g id="a_respect_the_boat"><a xlink:title=" ">
<path fill="#bae4b3" stroke="black" d="M1690.21,-464.2C1690.21,-464.2 1610.26,-464.2 1610.26,-464.2 1606.93,-464.2 1603.59,-460.87 1603.59,-457.53 1603.59,-457.53 1603.59,-450.87 1603.59,-450.87 1603.59,-447.53 1606.93,-444.2 1610.26,-444.2 1610.26,-444.2 1690.21,-444.2 1690.21,-444.2 1693.54,-444.2 1696.87,-447.53 1696.87,-450.87 1696.87,-450.87 1696.87,-457.53 1696.87,-457.53 1696.87,-460.87 1693.54,-464.2 1690.21,-464.2"/>
<text text-anchor="middle" x="1650.23" y="-451.2" font-family="Helvetica,sans-Serif" font-size="10.00">respect_the_boat</text>
</a>
</g>
</g>

<g id="Boat" class="node">
<title>Boat</title>
<g id="a_Boat"><a xlink:title=" ">
<polygon fill="white" stroke="black" points="1462.23,-580.88 1410.51,-538.46 1513.95,-538.46 1462.23,-580.88"/>
<text text-anchor="middle" x="1462.23" y="-549.6" font-family="Helvetica,sans-Serif" font-size="10.00">Boat</text>
</a>
</g>
</g>

<g id="respect_the_boat___Boat" class="edge">
<title>respect_the_boat-&gt;Boat</title>
<path fill="none" stroke="forestgreen" stroke-width="2" d="M1631.87,-464.62C1601.49,-480.19 1540.18,-511.63 1500.19,-532.14"/>
<polygon fill="forestgreen" stroke="forestgreen" stroke-width="2" points="1498.76,-528.94 1491.46,-536.61 1501.96,-535.16 1498.76,-528.94"/>
</g>

<g id="clean_the_boat" class="node">
<title>clean_the_boat</title>
<g id="a_clean_the_boat"><a xlink:title=" ">
<path fill="#bae4b3" stroke="black" d="M1661.76,-374.4C1661.76,-374.4 1590.7,-374.4 1590.7,-374.4 1587.37,-374.4 1584.04,-371.07 1584.04,-367.73 1584.04,-367.73 1584.04,-361.07 1584.04,-361.07 1584.04,-357.73 1587.37,-354.4 1590.7,-354.4 1590.7,-354.4 1661.76,-354.4 1661.76,-354.4 1665.1,-354.4 1668.43,-357.73 1668.43,-361.07 1668.43,-361.07 1668.43,-367.73 1668.43,-367.73 1668.43,-371.07 1665.1,-374.4 1661.76,-374.4"/>
<text text-anchor="middle" x="1626.23" y="-361.4" font-family="Helvetica,sans-Serif" font-size="10.00">clean_the_boat</text>
</a>
</g>
</g>

<g id="clean_the_boat___respect_the_boat" class="edge">
<title>clean_the_boat-&gt;respect_the_boat</title>
<path fill="none" stroke="forestgreen" stroke-width="2" d="M1628.8,-374.8C1632.47,-388.2 1639.3,-413.18 1644.26,-431.36"/>
<polygon fill="forestgreen" stroke="forestgreen" stroke-width="2" points="1640.87,-432.23 1646.89,-440.95 1647.63,-430.38 1640.87,-432.23"/>
</g>

<g id="repair_the_boat" class="node">
<title>repair_the_boat</title>
<g id="a_repair_the_boat"><a xlink:title=" ">
<path fill="#bae4b3" stroke="black" d="M1701.59,-307.4C1701.59,-307.4 1628.87,-307.4 1628.87,-307.4 1625.54,-307.4 1622.21,-304.07 1622.21,-300.73 1622.21,-300.73 1622.21,-294.07 1622.21,-294.07 1622.21,-290.73 1625.54,-287.4 1628.87,-287.4 1628.87,-287.4 1701.59,-287.4 1701.59,-287.4 1704.93,-287.4 1708.26,-290.73 1708.26,-294.07 1708.26,-294.07 1708.26,-300.73 1708.26,-300.73 1708.26,-304.07 1704.93,-307.4 1701.59,-307.4"/>
<text text-anchor="middle" x="1665.23" y="-294.4" font-family="Helvetica,sans-Serif" font-size="10.00">repair_the_boat</text>
</a>
</g>
</g>

<g id="repair_the_boat___respect_the_boat" class="edge">
<title>repair_the_boat-&gt;respect_the_boat</title>
<path fill="none" stroke="forestgreen" stroke-width="2" d="M1672.64,-307.59C1679.25,-316.43 1688.44,-330.46 1692.23,-344.4 1699.11,-369.7 1701.23,-378.77 1692.23,-403.4 1687.88,-415.31 1679.28,-426.34 1671,-434.98"/>
<polygon fill="forestgreen" stroke="forestgreen" stroke-width="2" points="1668.65,-432.38 1663.86,-441.83 1673.5,-437.43 1668.65,-432.38"/>
</g>

<g id="serve_each_other" class="node">
<title>serve_each_other</title>
<g id="a_serve_each_other"><a xlink:title=" ">
<path fill="#bae4b3" stroke="black" d="M941.59,-703.48C941.59,-703.48 858.87,-703.48 858.87,-703.48 855.54,-703.48 852.21,-700.15 852.21,-696.82 852.21,-696.82 852.21,-690.15 852.21,-690.15 852.21,-686.82 855.54,-683.48 858.87,-683.48 858.87,-683.48 941.59,-683.48 941.59,-683.48 944.93,-683.48 948.26,-686.82 948.26,-690.15 948.26,-690.15 948.26,-696.82 948.26,-696.82 948.26,-700.15 944.93,-703.48 941.59,-703.48"/>
<text text-anchor="middle" x="900.23" y="-690.48" font-family="Helvetica,sans-Serif" font-size="10.00">serve_each_other</text>
</a>
</g>
</g>

<g id="serve_each_other___Efficiency" class="edge">
<title>serve_each_other-&gt;Efficiency</title>
<path fill="none" stroke="forestgreen" stroke-width="2" d="M916.19,-703.88C936.65,-715.92 972.44,-736.99 997.19,-751.56"/>
<polygon fill="forestgreen" stroke="forestgreen" stroke-width="2" points="995.34,-754.53 1005.73,-756.59 998.89,-748.5 995.34,-754.53"/>
</g>

<g id="serve_each_other___respect_each_other" class="edge">
<title>serve_each_other-&gt;respect_each_other</title>
<path fill="none" stroke="forestgreen" stroke-width="2" d="M896.56,-703.73C892.36,-714.31 885.33,-732 879.74,-746.06"/>
<polygon fill="forestgreen" stroke="forestgreen" stroke-width="2" points="876.53,-744.68 876.09,-755.27 883.03,-747.27 876.53,-744.68"/>
</g>

<g id="prevent_accidents" class="node">
<title>prevent_accidents</title>
<g id="a_prevent_accidents"><a xlink:title=" ">
<path fill="#bae4b3" stroke="black" d="M1775.15,-703.48C1775.15,-703.48 1691.32,-703.48 1691.32,-703.48 1687.99,-703.48 1684.65,-700.15 1684.65,-696.82 1684.65,-696.82 1684.65,-690.15 1684.65,-690.15 1684.65,-686.82 1687.99,-683.48 1691.32,-683.48 1691.32,-683.48 1775.15,-683.48 1775.15,-683.48 1778.48,-683.48 1781.81,-686.82 1781.81,-690.15 1781.81,-690.15 1781.81,-696.82 1781.81,-696.82 1781.81,-700.15 1778.48,-703.48 1775.15,-703.48"/>
<text text-anchor="middle" x="1733.23" y="-690.48" font-family="Helvetica,sans-Serif" font-size="10.00">prevent_accidents</text>
</a>
</g>
</g>

<g id="prevent_accidents___accidents" class="edge">
<title>prevent_accidents-&gt;accidents</title>
<path fill="none" stroke="red" stroke-width="2" stroke-dasharray="5,2" d="M1727.81,-703.83C1709.77,-734.91 1651.47,-835.34 1626.15,-878.96"/>
<polygon fill="red" stroke="red" stroke-width="2" points="1623.2,-877.06 1621.21,-887.47 1629.26,-880.58 1623.2,-877.06"/>
</g>

<g id="consume_responsibly___Autonomy" class="edge">
<title>consume_responsibly-&gt;Autonomy</title>
<path fill="none" stroke="forestgreen" stroke-width="2" d="M272.97,-773.02C335.86,-780.19 474.83,-798.78 587.23,-833.48 630.52,-846.85 677.95,-869.32 707.41,-884.27"/>
<polygon fill="forestgreen" stroke="forestgreen" stroke-width="2" points="705.68,-887.32 716.17,-888.78 708.89,-881.09 705.68,-887.32"/>
</g>

<g id="consume_responsibly___zero_waste" class="edge">
<title>consume_responsibly-&gt;zero_waste</title>
<path fill="none" stroke="forestgreen" stroke-width="2" d="M272.76,-785.69C325.32,-811.09 426.38,-859.93 477.3,-884.53"/>
<polygon fill="forestgreen" stroke="forestgreen" stroke-width="2" points="475.56,-887.58 486.09,-888.78 478.61,-881.28 475.56,-887.58"/>
</g>

<g id="consume_responsibly_w" class="node">
<title>consume_responsibly_w</title>
<g id="a_consume_responsibly_w"><a xlink:title=" ">
<path fill="#bae4b3" stroke="black" d="M333.74,-646.48C333.74,-646.48 282.72,-646.48 282.72,-646.48 279.39,-646.48 276.06,-643.15 276.06,-639.82 276.06,-639.82 276.06,-633.15 276.06,-633.15 276.06,-629.82 279.39,-626.48 282.72,-626.48 282.72,-626.48 333.74,-626.48 333.74,-626.48 337.08,-626.48 340.41,-629.82 340.41,-633.15 340.41,-633.15 340.41,-639.82 340.41,-639.82 340.41,-643.15 337.08,-646.48 333.74,-646.48"/>
<text text-anchor="middle" x="308.23" y="-633.48" font-family="Helvetica,sans-Serif" font-size="10.00">save water</text>
</a>
</g>
</g>

<g id="consume_responsibly_w___consume_responsibly" class="edge">
<title>consume_responsibly_w-&gt;consume_responsibly</title>
<path fill="none" stroke="forestgreen" stroke-width="2" d="M285.3,-646.84C270.18,-654.34 251.52,-666.44 242.23,-683.48 235.07,-696.63 233.17,-712.73 233.46,-727.31"/>
<polygon fill="forestgreen" stroke="forestgreen" stroke-width="2" points="229.95,-727.35 234.07,-737.11 236.94,-726.92 229.95,-727.35"/>
</g>

<g id="consume_responsibly_f___consume_responsibly" class="edge">
<title>consume_responsibly_f-&gt;consume_responsibly</title>
<path fill="none" stroke="forestgreen" stroke-width="2" d="M190.05,-372.28C152.78,-382.78 94.23,-406.67 94.23,-453.2 94.23,-453.2 94.23,-453.2 94.23,-694.48 94.23,-739.44 150.52,-756.71 192.96,-763.35"/>
<polygon fill="forestgreen" stroke="forestgreen" stroke-width="2" points="192.22,-766.78 202.6,-764.67 193.17,-759.85 192.22,-766.78"/>
</g>

<g id="consume_responsibly_e" class="node">
<title>consume_responsibly_e</title>
<g id="a_consume_responsibly_e"><a xlink:title=" ">
<path fill="#bae4b3" stroke="black" d="M310.31,-703.48C310.31,-703.48 258.16,-703.48 258.16,-703.48 254.83,-703.48 251.5,-700.15 251.5,-696.82 251.5,-696.82 251.5,-690.15 251.5,-690.15 251.5,-686.82 254.83,-683.48 258.16,-683.48 258.16,-683.48 310.31,-683.48 310.31,-683.48 313.64,-683.48 316.97,-686.82 316.97,-690.15 316.97,-690.15 316.97,-696.82 316.97,-696.82 316.97,-700.15 313.64,-703.48 310.31,-703.48"/>
<text text-anchor="middle" x="284.23" y="-690.48" font-family="Helvetica,sans-Serif" font-size="10.00">save energ</text>
</a>
</g>
</g>

<g id="consume_responsibly_e___consume_responsibly" class="edge">
<title>consume_responsibly_e-&gt;consume_responsibly</title>
<path fill="none" stroke="forestgreen" stroke-width="2" d="M278.53,-703.73C274.49,-710.29 268.76,-719.59 262.92,-729.05"/>
<polygon fill="forestgreen" stroke="forestgreen" stroke-width="2" points="259.97,-727.17 257.71,-737.52 265.93,-730.84 259.97,-727.17"/>
</g>

<g id="travel_by_wind" class="node">
<title>travel_by_wind</title>
<g id="a_travel_by_wind"><a xlink:title=" ">
<path fill="#bae4b3" stroke="black" d="M1197.92,-646.48C1197.92,-646.48 1128.55,-646.48 1128.55,-646.48 1125.22,-646.48 1121.88,-643.15 1121.88,-639.82 1121.88,-639.82 1121.88,-633.15 1121.88,-633.15 1121.88,-629.82 1125.22,-626.48 1128.55,-626.48 1128.55,-626.48 1197.92,-626.48 1197.92,-626.48 1201.25,-626.48 1204.59,-629.82 1204.59,-633.15 1204.59,-633.15 1204.59,-639.82 1204.59,-639.82 1204.59,-643.15 1201.25,-646.48 1197.92,-646.48"/>
<text text-anchor="middle" x="1163.23" y="-633.48" font-family="Helvetica,sans-Serif" font-size="10.00">travel_by_wind</text>
</a>
</g>
</g>

<g id="travel_by_wind___schedule" class="edge">
<title>travel_by_wind-&gt;schedule</title>
<path fill="none" stroke="red" stroke-width="2" stroke-dasharray="5,2" d="M1184.72,-646.94C1204.16,-655.49 1233.07,-668.21 1255.4,-678.04"/>
<polygon fill="red" stroke="red" stroke-width="2" points="1253.69,-681.11 1264.26,-681.93 1256.51,-674.7 1253.69,-681.11"/>
</g>

<g id="travel_by_wind___zero_emission" class="edge">
<title>travel_by_wind-&gt;zero_emission</title>
<path fill="none" stroke="forestgreen" stroke-width="2" d="M1140.52,-646.96C1123.18,-655.89 1102.23,-671.1 1102.23,-692.48 1102.23,-692.48 1102.23,-692.48 1102.23,-844.48 1102.23,-859.7 1067.79,-875.27 1037.8,-885.94"/>
<polygon fill="forestgreen" stroke="forestgreen" stroke-width="2" points="1036.95,-882.53 1028.63,-889.08 1039.22,-889.15 1036.95,-882.53"/>
</g>

<g id="travel_by_wind___Travel" class="edge">
<title>travel_by_wind-&gt;Travel</title>
<path fill="none" stroke="forestgreen" stroke-width="2" d="M1165.08,-646.81C1172.48,-684.05 1200,-822.74 1210.82,-877.27"/>
<polygon fill="forestgreen" stroke="forestgreen" stroke-width="2" points="1207.38,-877.9 1212.76,-887.03 1214.25,-876.54 1207.38,-877.9"/>
</g>

<g id="travel_by_wind___consume_responsibly_e" class="edge">
<title>travel_by_wind-&gt;consume_responsibly_e</title>
<path fill="none" stroke="forestgreen" stroke-width="2" d="M1131.95,-646.95C1121.06,-649.86 1108.7,-652.76 1097.23,-654.48 947.53,-677.02 478.82,-688.45 330.04,-691.58"/>
<polygon fill="forestgreen" stroke="forestgreen" stroke-width="2" points="330.41,-688.07 320.49,-691.78 330.56,-695.07 330.41,-688.07"/>
</g>

<g id="no_traps" class="node">
<title>no_traps</title>
<g id="a_no_traps"><a xlink:title=" ">
<path fill="#bae4b3" stroke="black" d="M1862.03,-646.48C1862.03,-646.48 1820.44,-646.48 1820.44,-646.48 1817.11,-646.48 1813.78,-643.15 1813.78,-639.82 1813.78,-639.82 1813.78,-633.15 1813.78,-633.15 1813.78,-629.82 1817.11,-626.48 1820.44,-626.48 1820.44,-626.48 1862.03,-626.48 1862.03,-626.48 1865.36,-626.48 1868.69,-629.82 1868.69,-633.15 1868.69,-633.15 1868.69,-639.82 1868.69,-639.82 1868.69,-643.15 1865.36,-646.48 1862.03,-646.48"/>
<text text-anchor="middle" x="1841.23" y="-633.48" font-family="Helvetica,sans-Serif" font-size="10.00">no_traps</text>
</a>
</g>
</g>

<g id="no_traps___prevent_accidents" class="edge">
<title>no_traps-&gt;prevent_accidents</title>
<path fill="none" stroke="forestgreen" stroke-width="2" d="M1822.91,-646.81C1806.54,-655.15 1782.26,-667.52 1763.09,-677.28"/>
<polygon fill="forestgreen" stroke="forestgreen" stroke-width="2" points="1761.66,-674.08 1754.34,-681.73 1764.84,-680.32 1761.66,-674.08"/>
</g>

<g id="follow" class="node">
<title>follow</title>
<g id="a_follow"><a xlink:title=" ">
<path fill="#bae4b3" stroke="black" d="M941.35,-646.48C941.35,-646.48 913.12,-646.48 913.12,-646.48 909.78,-646.48 906.45,-643.15 906.45,-639.82 906.45,-639.82 906.45,-633.15 906.45,-633.15 906.45,-629.82 909.78,-626.48 913.12,-626.48 913.12,-626.48 941.35,-626.48 941.35,-626.48 944.68,-626.48 948.02,-629.82 948.02,-633.15 948.02,-633.15 948.02,-639.82 948.02,-639.82 948.02,-643.15 944.68,-646.48 941.35,-646.48"/>
<text text-anchor="middle" x="927.23" y="-633.48" font-family="Helvetica,sans-Serif" font-size="10.00">follow</text>
</a>
</g>
</g>

<g id="follow___Efficiency" class="edge">
<title>follow-&gt;Efficiency</title>
<path fill="none" stroke="forestgreen" stroke-width="2" d="M934.21,-646.83C949.94,-667.91 988.45,-719.53 1009.65,-747.94"/>
<polygon fill="forestgreen" stroke="forestgreen" stroke-width="2" points="1006.73,-749.87 1015.51,-755.79 1012.34,-745.69 1006.73,-749.87"/>
</g>

<g id="follow___prevent_accidents" class="edge">
<title>follow-&gt;prevent_accidents</title>
<path fill="none" stroke="forestgreen" stroke-width="2" d="M948.47,-643.83C961.78,-647.54 979.37,-651.99 995.23,-654.48 1066.96,-665.78 1085.74,-661.34 1158.23,-665.48 1345.05,-676.17 1566.19,-685.67 1671.51,-690"/>
<polygon fill="forestgreen" stroke="forestgreen" stroke-width="2" points="1671.21,-693.49 1681.35,-690.4 1671.5,-686.5 1671.21,-693.49"/>
</g>

<g id="sort_everything" class="node">
<title>sort_everything</title>
<g id="a_sort_everything"><a xlink:title=" ">
<path fill="#bae4b3" stroke="black" d="M1081.75,-646.48C1081.75,-646.48 1010.72,-646.48 1010.72,-646.48 1007.38,-646.48 1004.05,-643.15 1004.05,-639.82 1004.05,-639.82 1004.05,-633.15 1004.05,-633.15 1004.05,-629.82 1007.38,-626.48 1010.72,-626.48 1010.72,-626.48 1081.75,-626.48 1081.75,-626.48 1085.09,-626.48 1088.42,-629.82 1088.42,-633.15 1088.42,-633.15 1088.42,-639.82 1088.42,-639.82 1088.42,-643.15 1085.09,-646.48 1081.75,-646.48"/>
<text text-anchor="middle" x="1046.23" y="-633.48" font-family="Helvetica,sans-Serif" font-size="10.00">sort_everything</text>
</a>
</g>
</g>

<g id="sort_everything___Efficiency" class="edge">
<title>sort_everything-&gt;Efficiency</title>
<path fill="none" stroke="forestgreen" stroke-width="2" d="M1045.99,-646.76C1045.44,-662.48 1043.68,-695.31 1038.23,-722.48 1036.67,-730.31 1034.26,-738.7 1031.89,-746.09"/>
<polygon fill="forestgreen" stroke="forestgreen" stroke-width="2" points="1028.61,-744.86 1028.68,-755.46 1035.23,-747.13 1028.61,-744.86"/>
</g>

<g id="sort_everything___prevent_accidents" class="edge">
<title>sort_everything-&gt;prevent_accidents</title>
<path fill="none" stroke="forestgreen" stroke-width="2" d="M1067.84,-646.96C1075.41,-649.88 1084.07,-652.77 1092.23,-654.48 1201.63,-677.41 1532.96,-687.74 1671.4,-691.13"/>
<polygon fill="forestgreen" stroke="forestgreen" stroke-width="2" points="1671.08,-694.63 1681.16,-691.37 1671.24,-687.63 1671.08,-694.63"/>
</g>

<g id="be_sceptical" class="node">
<title>be_sceptical</title>
<g id="a_be_sceptical"><a xlink:title=" ">
<path fill="#edf8e9" stroke="black" d="M781.36,-646.48C781.36,-646.48 723.11,-646.48 723.11,-646.48 719.77,-646.48 716.44,-643.15 716.44,-639.82 716.44,-639.82 716.44,-633.15 716.44,-633.15 716.44,-629.82 719.77,-626.48 723.11,-626.48 723.11,-626.48 781.36,-626.48 781.36,-626.48 784.7,-626.48 788.03,-629.82 788.03,-633.15 788.03,-633.15 788.03,-639.82 788.03,-639.82 788.03,-643.15 784.7,-646.48 781.36,-646.48"/>
<text text-anchor="middle" x="752.23" y="-633.48" font-family="Helvetica,sans-Serif" font-size="10.00">be_sceptical</text>
</a>
</g>
</g>

<g id="suggest" class="node">
<title>suggest</title>
<g id="a_suggest"><a xlink:title=" ">
<path fill="#edf8e9" stroke="black" d="M767.08,-703.48C767.08,-703.48 729.39,-703.48 729.39,-703.48 726.06,-703.48 722.72,-700.15 722.72,-696.82 722.72,-696.82 722.72,-690.15 722.72,-690.15 722.72,-686.82 726.06,-683.48 729.39,-683.48 729.39,-683.48 767.08,-683.48 767.08,-683.48 770.41,-683.48 773.75,-686.82 773.75,-690.15 773.75,-690.15 773.75,-696.82 773.75,-696.82 773.75,-700.15 770.41,-703.48 767.08,-703.48"/>
<text text-anchor="middle" x="748.23" y="-690.48" font-family="Helvetica,sans-Serif" font-size="10.00">suggest</text>
</a>
</g>
</g>

<g id="be_sceptical___suggest" class="edge">
<title>be_sceptical-&gt;suggest</title>
<path fill="none" stroke="forestgreen" stroke-width="2" d="M751.57,-646.57C751.1,-653.06 750.45,-662.08 749.84,-670.41"/>
<polygon fill="forestgreen" stroke="forestgreen" stroke-width="2" points="746.36,-669.96 749.13,-680.19 753.34,-670.47 746.36,-669.96"/>
</g>

<g id="improvements" class="node">
<title>improvements</title>
<g id="a_improvements"><a xlink:title=" ">
<path fill="white" stroke="black" d="M793.97,-778.48C793.97,-778.48 728.5,-778.48 728.5,-778.48 725.17,-778.48 721.83,-775.15 721.83,-771.82 721.83,-771.82 721.83,-765.15 721.83,-765.15 721.83,-761.82 725.17,-758.48 728.5,-758.48 728.5,-758.48 793.97,-758.48 793.97,-758.48 797.3,-758.48 800.63,-761.82 800.63,-765.15 800.63,-765.15 800.63,-771.82 800.63,-771.82 800.63,-775.15 797.3,-778.48 793.97,-778.48"/>
<text text-anchor="middle" x="761.23" y="-765.48" font-family="Helvetica,sans-Serif" font-size="10.00">improvements</text>
</a>
</g>
</g>

<g id="suggest___improvements" class="edge">
<title>suggest-&gt;improvements</title>
<path fill="none" stroke="forestgreen" stroke-width="2" d="M749.88,-703.73C751.75,-714.2 754.85,-731.63 757.34,-745.62"/>
<polygon fill="forestgreen" stroke="forestgreen" stroke-width="2" points="753.83,-745.87 759.03,-755.1 760.72,-744.64 753.83,-745.87"/>
</g>

<g id="speak" class="node">
<title>speak</title>
<g id="a_speak"><a xlink:title=" ">
<path fill="#edf8e9" stroke="black" d="M827.91,-703.48C827.91,-703.48 798.56,-703.48 798.56,-703.48 795.22,-703.48 791.89,-700.15 791.89,-696.82 791.89,-696.82 791.89,-690.15 791.89,-690.15 791.89,-686.82 795.22,-683.48 798.56,-683.48 798.56,-683.48 827.91,-683.48 827.91,-683.48 831.24,-683.48 834.58,-686.82 834.58,-690.15 834.58,-690.15 834.58,-696.82 834.58,-696.82 834.58,-700.15 831.24,-703.48 827.91,-703.48"/>
<text text-anchor="middle" x="813.23" y="-690.48" font-family="Helvetica,sans-Serif" font-size="10.00">speak</text>
</a>
</g>
</g>

<g id="speak___respect_each_other" class="edge">
<title>speak-&gt;respect_each_other</title>
<path fill="none" stroke="forestgreen" stroke-width="2" d="M820.58,-703.73C829.42,-714.86 844.5,-733.84 855.92,-748.2"/>
<polygon fill="forestgreen" stroke="forestgreen" stroke-width="2" points="852.92,-750.06 861.88,-755.71 858.4,-745.71 852.92,-750.06"/>
</g>

<g id="speak___improvements" class="edge">
<title>speak-&gt;improvements</title>
<path fill="none" stroke="forestgreen" stroke-width="2" d="M806.65,-703.73C798.8,-714.75 785.46,-733.47 775.27,-747.78"/>
<polygon fill="forestgreen" stroke="forestgreen" stroke-width="2" points="772.64,-745.44 769.69,-755.62 778.34,-749.5 772.64,-745.44"/>
</g>

<g id="ask" class="node">
<title>ask</title>
<g id="a_ask"><a xlink:title=" ">
<path fill="#edf8e9" stroke="black" d="M741.35,-562.6C741.35,-562.6 723.12,-562.6 723.12,-562.6 719.79,-562.6 716.45,-559.27 716.45,-555.93 716.45,-555.93 716.45,-549.27 716.45,-549.27 716.45,-545.93 719.79,-542.6 723.12,-542.6 723.12,-542.6 741.35,-542.6 741.35,-542.6 744.68,-542.6 748.01,-545.93 748.01,-549.27 748.01,-549.27 748.01,-555.93 748.01,-555.93 748.01,-559.27 744.68,-562.6 741.35,-562.6"/>
<text text-anchor="middle" x="732.23" y="-549.6" font-family="Helvetica,sans-Serif" font-size="10.00">ask</text>
</a>
</g>
</g>

<g id="ask___Growth" class="edge">
<title>ask-&gt;Growth</title>
<path fill="none" stroke="forestgreen" stroke-width="2" d="M727.98,-562.78C721.94,-576.35 711.19,-602.73 707.23,-626.48 699.82,-670.98 684.1,-713.96 713.23,-796.48 716.69,-806.29 723.01,-815.76 729.27,-823.54"/>
<polygon fill="forestgreen" stroke="forestgreen" stroke-width="2" points="726.56,-825.76 735.77,-830.99 731.83,-821.15 726.56,-825.76"/>
</g>

<g id="exercise" class="node">
<title>exercise</title>
<g id="a_exercise"><a xlink:title=" ">
<path fill="#edf8e9" stroke="black" d="M571.19,-853.48C571.19,-853.48 531.28,-853.48 531.28,-853.48 527.95,-853.48 524.62,-850.15 524.62,-846.82 524.62,-846.82 524.62,-840.15 524.62,-840.15 524.62,-836.82 527.95,-833.48 531.28,-833.48 531.28,-833.48 571.19,-833.48 571.19,-833.48 574.52,-833.48 577.85,-836.82 577.85,-840.15 577.85,-840.15 577.85,-846.82 577.85,-846.82 577.85,-850.15 574.52,-853.48 571.19,-853.48"/>
<text text-anchor="middle" x="551.23" y="-840.48" font-family="Helvetica,sans-Serif" font-size="10.00">exercise</text>
</a>
</g>
</g>

<g id="exercise___Health" class="edge">
<title>exercise-&gt;Health</title>
<path fill="none" stroke="forestgreen" stroke-width="2" d="M558.33,-853.57C563.96,-860.77 572.03,-871.09 579.1,-880.12"/>
<polygon fill="forestgreen" stroke="forestgreen" stroke-width="2" points="576.2,-882.1 585.11,-887.82 581.71,-877.79 576.2,-882.1"/>
</g>

<g id="organic" class="node">
<title>organic</title>
<g id="a_organic"><a xlink:title=" ">
<path fill="#edf8e9" stroke="black" d="M273.97,-160.6C273.97,-160.6 238.5,-160.6 238.5,-160.6 235.17,-160.6 231.83,-157.27 231.83,-153.93 231.83,-153.93 231.83,-147.27 231.83,-147.27 231.83,-143.93 235.17,-140.6 238.5,-140.6 238.5,-140.6 273.97,-140.6 273.97,-140.6 277.3,-140.6 280.63,-143.93 280.63,-147.27 280.63,-147.27 280.63,-153.93 280.63,-153.93 280.63,-157.27 277.3,-160.6 273.97,-160.6"/>
<text text-anchor="middle" x="256.23" y="-147.6" font-family="Helvetica,sans-Serif" font-size="10.00">organic</text>
</a>
</g>
</g>

<g id="organic___food" class="edge">
<title>organic-&gt;food</title>
<path fill="none" stroke="forestgreen" stroke-width="2" d="M252.32,-160.83C248.04,-170.92 240.98,-187.56 234.89,-201.92"/>
<polygon fill="forestgreen" stroke="forestgreen" stroke-width="2" points="231.75,-200.37 231.06,-210.94 238.19,-203.1 231.75,-200.37"/>
</g>

<g id="vegan" class="node">
<title>vegan</title>
<g id="a_vegan"><a xlink:title=" ">
<path fill="#edf8e9" stroke="black" d="M228.19,-70.8C228.19,-70.8 198.28,-70.8 198.28,-70.8 194.94,-70.8 191.61,-67.47 191.61,-64.13 191.61,-64.13 191.61,-57.47 191.61,-57.47 191.61,-54.13 194.94,-50.8 198.28,-50.8 198.28,-50.8 228.19,-50.8 228.19,-50.8 231.52,-50.8 234.86,-54.13 234.86,-57.47 234.86,-57.47 234.86,-64.13 234.86,-64.13 234.86,-67.47 231.52,-70.8 228.19,-70.8"/>
<text text-anchor="middle" x="213.23" y="-57.8" font-family="Helvetica,sans-Serif" font-size="10.00">vegan</text>
</a>
</g>
</g>

<g id="vegan___food" class="edge">
<title>vegan-&gt;food</title>
<path fill="none" stroke="forestgreen" stroke-width="2" d="M213.8,-71.29C215.23,-95.21 219.02,-158.82 221.34,-197.68"/>
<polygon fill="forestgreen" stroke="forestgreen" stroke-width="2" points="217.84,-197.73 221.93,-207.5 224.83,-197.31 217.84,-197.73"/>
</g>

<g id="cook_for_each_other" class="node">
<title>cook_for_each_other</title>
<g id="a_cook_for_each_other"><a xlink:title=" ">
<path fill="#edf8e9" stroke="black" d="M573.54,-562.6C573.54,-562.6 476.92,-562.6 476.92,-562.6 473.59,-562.6 470.26,-559.27 470.26,-555.93 470.26,-555.93 470.26,-549.27 470.26,-549.27 470.26,-545.93 473.59,-542.6 476.92,-542.6 476.92,-542.6 573.54,-542.6 573.54,-542.6 576.88,-542.6 580.21,-545.93 580.21,-549.27 580.21,-549.27 580.21,-555.93 580.21,-555.93 580.21,-559.27 576.88,-562.6 573.54,-562.6"/>
<text text-anchor="middle" x="525.23" y="-549.6" font-family="Helvetica,sans-Serif" font-size="10.00">cook_for_each_other</text>
</a>
</g>
</g>

<g id="meals" class="node">
<title>meals</title>
<g id="a_meals"><a xlink:title=" ">
<path fill="white" stroke="black" d="M539.9,-646.48C539.9,-646.48 510.56,-646.48 510.56,-646.48 507.23,-646.48 503.9,-643.15 503.9,-639.82 503.9,-639.82 503.9,-633.15 503.9,-633.15 503.9,-629.82 507.23,-626.48 510.56,-626.48 510.56,-626.48 539.9,-626.48 539.9,-626.48 543.24,-626.48 546.57,-629.82 546.57,-633.15 546.57,-633.15 546.57,-639.82 546.57,-639.82 546.57,-643.15 543.24,-646.48 539.9,-646.48"/>
<text text-anchor="middle" x="525.23" y="-633.48" font-family="Helvetica,sans-Serif" font-size="10.00">meals</text>
</a>
</g>
</g>

<g id="cook_for_each_other___meals" class="edge">
<title>cook_for_each_other-&gt;meals</title>
<path fill="none" stroke="forestgreen" stroke-width="2" d="M525.23,-562.99C525.23,-575.15 525.23,-596.72 525.23,-613.18"/>
<polygon fill="forestgreen" stroke="forestgreen" stroke-width="2" points="521.73,-613.17 525.23,-623.17 528.73,-613.17 521.73,-613.17"/>
</g>

<g id="cook_smarter___consume_responsibly_w" class="edge">
<title>cook_smarter-&gt;consume_responsibly_w</title>
<path fill="none" stroke="forestgreen" stroke-width="2" d="M235.64,-562.99C248.86,-576.2 273.21,-600.51 290.04,-617.31"/>
<polygon fill="forestgreen" stroke="forestgreen" stroke-width="2" points="287.25,-619.47 296.8,-624.06 292.19,-614.52 287.25,-619.47"/>
</g>

<g id="cook_smarter___consume_responsibly_e" class="edge">
<title>cook_smarter-&gt;consume_responsibly_e</title>
<path fill="none" stroke="forestgreen" stroke-width="2" d="M229.86,-562.82C236.88,-580.63 252.91,-620.92 267.23,-654.48 269.6,-660.02 272.22,-665.97 274.68,-671.49"/>
<polygon fill="forestgreen" stroke="forestgreen" stroke-width="2" points="271.4,-672.72 278.71,-680.4 277.78,-669.84 271.4,-672.72"/>
</g>

<g id="cook_smarter___meals" class="edge">
<title>cook_smarter-&gt;meals</title>
<path fill="none" stroke="forestgreen" stroke-width="2" d="M239.65,-562.91C248.75,-568.84 261.27,-576.25 273.23,-580.88 348.02,-609.86 441.55,-625.02 490.96,-631.51"/>
<polygon fill="forestgreen" stroke="forestgreen" stroke-width="2" points="490.31,-634.96 500.67,-632.74 491.19,-628.01 490.31,-634.96"/>
</g>

<g id="in_one_place___cook_for_each_other" class="edge">
<title>in_one_place-&gt;cook_for_each_other</title>
<path fill="none" stroke="forestgreen" stroke-width="2" d="M403.18,-464.44C425.9,-480.67 473.26,-514.48 501.84,-534.9"/>
<polygon fill="forestgreen" stroke="forestgreen" stroke-width="2" points="499.49,-537.52 509.67,-540.48 503.56,-531.82 499.49,-537.52"/>
</g>

<g id="clean_dishes_with_silicone_spoon" class="node">
<title>clean_dishes_with_silicone_spoon</title>
<g id="a_clean_dishes_with_silicone_spoon"><a xlink:title=" ">
<path fill="#edf8e9" stroke="black" d="M445.29,-562.6C445.29,-562.6 289.18,-562.6 289.18,-562.6 285.85,-562.6 282.52,-559.27 282.52,-555.93 282.52,-555.93 282.52,-549.27 282.52,-549.27 282.52,-545.93 285.85,-542.6 289.18,-542.6 289.18,-542.6 445.29,-542.6 445.29,-542.6 448.62,-542.6 451.95,-545.93 451.95,-549.27 451.95,-549.27 451.95,-555.93 451.95,-555.93 451.95,-559.27 448.62,-562.6 445.29,-562.6"/>
<text text-anchor="middle" x="367.23" y="-549.6" font-family="Helvetica,sans-Serif" font-size="10.00">clean_dishes_with_silicone_spoon</text>
</a>
</g>
</g>

<g id="clean_dishes_with_silicone_spoon___consume_responsibly_w" class="edge">
<title>clean_dishes_with_silicone_spoon-&gt;consume_responsibly_w</title>
<path fill="none" stroke="forestgreen" stroke-width="2" d="M360.47,-562.99C351.22,-575.83 334.41,-599.15 322.36,-615.88"/>
<polygon fill="forestgreen" stroke="forestgreen" stroke-width="2" points="319.7,-613.59 316.69,-623.74 325.38,-617.68 319.7,-613.59"/>
</g>

<g id="no_alcohol" class="node">
<title>no_alcohol</title>
<g id="a_no_alcohol"><a xlink:title=" ">
<path fill="#edf8e9" stroke="black" d="M1387.75,-464.2C1387.75,-464.2 1336.71,-464.2 1336.71,-464.2 1333.38,-464.2 1330.05,-460.87 1330.05,-457.53 1330.05,-457.53 1330.05,-450.87 1330.05,-450.87 1330.05,-447.53 1333.38,-444.2 1336.71,-444.2 1336.71,-444.2 1387.75,-444.2 1387.75,-444.2 1391.09,-444.2 1394.42,-447.53 1394.42,-450.87 1394.42,-450.87 1394.42,-457.53 1394.42,-457.53 1394.42,-460.87 1391.09,-464.2 1387.75,-464.2"/>
<text text-anchor="middle" x="1362.23" y="-451.2" font-family="Helvetica,sans-Serif" font-size="10.00">no_alcohol</text>
</a>
</g>
</g>

<g id="no_alcohol___prevent_accidents" class="edge">
<title>no_alcohol-&gt;prevent_accidents</title>
<path fill="none" stroke="forestgreen" stroke-width="2" d="M1394.53,-457.29C1443.45,-461.12 1533.1,-470.88 1556.23,-492.2 1615,-546.35 1545.95,-610.81 1604.23,-665.48 1614.29,-674.92 1643.48,-681.46 1671.55,-685.73"/>
<polygon fill="forestgreen" stroke="forestgreen" stroke-width="2" points="1670.91,-689.17 1681.3,-687.11 1671.89,-682.24 1670.91,-689.17"/>
</g>

<g id="come_prepared" class="node">
<title>come_prepared</title>
<g id="a_come_prepared"><a xlink:title=" ">
<path fill="#edf8e9" stroke="black" d="M1293.59,-562.6C1293.59,-562.6 1220.88,-562.6 1220.88,-562.6 1217.55,-562.6 1214.21,-559.27 1214.21,-555.93 1214.21,-555.93 1214.21,-549.27 1214.21,-549.27 1214.21,-545.93 1217.55,-542.6 1220.88,-542.6 1220.88,-542.6 1293.59,-542.6 1293.59,-542.6 1296.92,-542.6 1300.26,-545.93 1300.26,-549.27 1300.26,-549.27 1300.26,-555.93 1300.26,-555.93 1300.26,-559.27 1296.92,-562.6 1293.59,-562.6"/>
<text text-anchor="middle" x="1257.23" y="-549.6" font-family="Helvetica,sans-Serif" font-size="10.00">come_prepared</text>
</a>
</g>
</g>


<g id="come_on_time" class="node">
<title>come_on_time</title>
<g id="a_come_on_time"><a xlink:title=" ">
<path fill="#edf8e9" stroke="black" d="M881.36,-646.48C881.36,-646.48 813.11,-646.48 813.11,-646.48 809.77,-646.48 806.44,-643.15 806.44,-639.82 806.44,-639.82 806.44,-633.15 806.44,-633.15 806.44,-629.82 809.77,-626.48 813.11,-626.48 813.11,-626.48 881.36,-626.48 881.36,-626.48 884.7,-626.48 888.03,-629.82 888.03,-633.15 888.03,-633.15 888.03,-639.82 888.03,-639.82 888.03,-643.15 884.7,-646.48 881.36,-646.48"/>
<text text-anchor="middle" x="847.23" y="-633.48" font-family="Helvetica,sans-Serif" font-size="10.00">come_on_time</text>
</a>
</g>
</g>

<g id="come_on_time___serve_each_other" class="edge">
<title>come_on_time-&gt;serve_each_other</title>
<path fill="none" stroke="forestgreen" stroke-width="2" d="M855.99,-646.57C863.15,-654.01 873.53,-664.77 882.43,-674.01"/>
<polygon fill="forestgreen" stroke="forestgreen" stroke-width="2" points="879.73,-676.25 889.19,-681.03 884.77,-671.4 879.73,-676.25"/>
</g>

<g id="bring_all_stuff" class="node">
<title>bring_all_stuff</title>
<g id="a_bring_all_stuff"><a xlink:title=" ">
<path fill="#edf8e9" stroke="black" d="M1293.7,-646.48C1293.7,-646.48 1228.77,-646.48 1228.77,-646.48 1225.44,-646.48 1222.1,-643.15 1222.1,-639.82 1222.1,-639.82 1222.1,-633.15 1222.1,-633.15 1222.1,-629.82 1225.44,-626.48 1228.77,-626.48 1228.77,-626.48 1293.7,-626.48 1293.7,-626.48 1297.03,-626.48 1300.36,-629.82 1300.36,-633.15 1300.36,-633.15 1300.36,-639.82 1300.36,-639.82 1300.36,-643.15 1297.03,-646.48 1293.7,-646.48"/>
<text text-anchor="middle" x="1261.23" y="-633.48" font-family="Helvetica,sans-Serif" font-size="10.00">bring_all_stuff</text>
</a>
</g>
</g>

<g id="bring_all_stuff___Efficiency" class="edge">
<title>bring_all_stuff-&gt;Efficiency</title>
<path fill="none" stroke="forestgreen" stroke-width="2" d="M1244.19,-646.83C1203.89,-668.94 1102.4,-724.61 1052.63,-751.91"/>
<polygon fill="forestgreen" stroke="forestgreen" stroke-width="2" points="1051.18,-748.71 1044.1,-756.59 1054.55,-754.85 1051.18,-748.71"/>
</g>

<g id="bring_all_stuff___prevent_accidents" class="edge">
<title>bring_all_stuff-&gt;prevent_accidents</title>
<path fill="none" stroke="forestgreen" stroke-width="2" d="M1284.36,-646.84C1292.15,-649.68 1300.97,-652.55 1309.23,-654.48 1349.33,-663.86 1360.26,-661.37 1401.23,-665.48 1495.37,-674.94 1604.77,-683.33 1671.48,-688.16"/>
<polygon fill="forestgreen" stroke="forestgreen" stroke-width="2" points="1671,-691.64 1681.22,-688.87 1671.5,-684.66 1671,-691.64"/>
</g>

<g id="come_prepared___Efficiency" class="edge">
<title>come_prepared-&gt;Efficiency</title>
<path fill="none" stroke="forestgreen" stroke-width="2" d="M1241.49,-563.09C1231.19,-568.94 1217.28,-576.19 1204.23,-580.88 1114.77,-613.05 1054.87,-552.44 995.23,-626.48 980.57,-644.7 1002.84,-711.64 1015.89,-746.33"/>
<polygon fill="forestgreen" stroke="forestgreen" stroke-width="2" points="1012.53,-747.35 1019.4,-755.42 1019.06,-744.83 1012.53,-747.35"/>
</g>


<g id="dont_step_on_ropes" class="node">
<title>dont_step_on_ropes</title>
<g id="a_dont_step_on_ropes"><a xlink:title=" ">
<path fill="#edf8e9" stroke="black" d="M1827.16,-374.4C1827.16,-374.4 1733.31,-374.4 1733.31,-374.4 1729.97,-374.4 1726.64,-371.07 1726.64,-367.73 1726.64,-367.73 1726.64,-361.07 1726.64,-361.07 1726.64,-357.73 1729.97,-354.4 1733.31,-354.4 1733.31,-354.4 1827.16,-354.4 1827.16,-354.4 1830.49,-354.4 1833.83,-357.73 1833.83,-361.07 1833.83,-361.07 1833.83,-367.73 1833.83,-367.73 1833.83,-371.07 1830.49,-374.4 1827.16,-374.4"/>
<text text-anchor="middle" x="1780.23" y="-361.4" font-family="Helvetica,sans-Serif" font-size="10.00">dont_step_on_ropes</text>
</a>
</g>
</g>

<g id="dont_step_on_ropes___respect_the_boat" class="edge">
<title>dont_step_on_ropes-&gt;respect_the_boat</title>
<path fill="none" stroke="forestgreen" stroke-width="2" d="M1766.32,-374.8C1744.43,-389.58 1701.64,-418.48 1674.58,-436.76"/>
<polygon fill="forestgreen" stroke="forestgreen" stroke-width="2" points="1672.88,-433.68 1666.55,-442.18 1676.8,-439.48 1672.88,-433.68"/>
</g>

<g id="dont_step_on_ropes___prevent_accidents" class="edge">
<title>dont_step_on_ropes-&gt;prevent_accidents</title>
<path fill="none" stroke="forestgreen" stroke-width="2" d="M1776.64,-374.6C1768.63,-394.35 1747.84,-441.61 1720.23,-474.2 1703.75,-493.66 1686.34,-486.85 1675.23,-509.8 1647.88,-566.31 1692.35,-638.75 1717.63,-672.95"/>
<polygon fill="forestgreen" stroke="forestgreen" stroke-width="2" points="1714.64,-674.79 1723.5,-680.6 1720.19,-670.53 1714.64,-674.79"/>
</g>

<g id="coil_ropes" class="node">
<title>coil_ropes</title>
<g id="a_coil_ropes"><a xlink:title=" ">
<path fill="#edf8e9" stroke="black" d="M1865.36,-562.6C1865.36,-562.6 1817.11,-562.6 1817.11,-562.6 1813.78,-562.6 1810.44,-559.27 1810.44,-555.93 1810.44,-555.93 1810.44,-549.27 1810.44,-549.27 1810.44,-545.93 1813.78,-542.6 1817.11,-542.6 1817.11,-542.6 1865.36,-542.6 1865.36,-542.6 1868.69,-542.6 1872.02,-545.93 1872.02,-549.27 1872.02,-549.27 1872.02,-555.93 1872.02,-555.93 1872.02,-559.27 1868.69,-562.6 1865.36,-562.6"/>
<text text-anchor="middle" x="1841.23" y="-549.6" font-family="Helvetica,sans-Serif" font-size="10.00">coil_ropes</text>
</a>
</g>
</g>

<g id="coil_ropes___no_traps" class="edge">
<title>coil_ropes-&gt;no_traps</title>
<path fill="none" stroke="forestgreen" stroke-width="2" d="M1841.23,-562.99C1841.23,-575.15 1841.23,-596.72 1841.23,-613.18"/>
<polygon fill="forestgreen" stroke="forestgreen" stroke-width="2" points="1837.73,-613.17 1841.23,-623.17 1844.73,-613.17 1837.73,-613.17"/>
</g>

<g id="dry_and_ventilate" class="node">
<title>dry_and_ventilate</title>
<g id="a_dry_and_ventilate"><a xlink:title="ventilate cabins, ventilate mattresses, wipe cabin walls dry">
<path fill="#edf8e9" stroke="black" d="M1672.04,-240.4C1672.04,-240.4 1590.43,-240.4 1590.43,-240.4 1587.09,-240.4 1583.76,-237.07 1583.76,-233.73 1583.76,-233.73 1583.76,-227.07 1583.76,-227.07 1583.76,-223.73 1587.09,-220.4 1590.43,-220.4 1590.43,-220.4 1672.04,-220.4 1672.04,-220.4 1675.37,-220.4 1678.71,-223.73 1678.71,-227.07 1678.71,-227.07 1678.71,-233.73 1678.71,-233.73 1678.71,-237.07 1675.37,-240.4 1672.04,-240.4"/>
<text text-anchor="middle" x="1631.23" y="-227.4" font-family="Helvetica,sans-Serif" font-size="10.00">dry_and_ventilate</text>
</a>
</g>
</g>

<g id="dry_and_ventilate___respect_the_boat" class="edge">
<title>dry_and_ventilate-&gt;respect_the_boat</title>
<path fill="none" stroke="forestgreen" stroke-width="2" d="M1625.11,-240.44C1615.84,-255.33 1600.63,-285.55 1613.23,-307.4 1629.65,-335.86 1660.81,-315.94 1677.23,-344.4 1686.12,-359.8 1680.54,-366.93 1677.23,-384.4 1674.09,-401.04 1667.01,-418.81 1660.89,-432.13"/>
<polygon fill="forestgreen" stroke="forestgreen" stroke-width="2" points="1657.79,-430.49 1656.58,-441.02 1664.09,-433.54 1657.79,-430.49"/>
</g>

<g id="wipe_cabin_floors_dry" class="node">
<title>wipe_cabin_floors_dry</title>
<g id="a_wipe_cabin_floors_dry"><a xlink:title=" ">
<path fill="#edf8e9" stroke="black" d="M1559.32,-374.4C1559.32,-374.4 1457.15,-374.4 1457.15,-374.4 1453.82,-374.4 1450.48,-371.07 1450.48,-367.73 1450.48,-367.73 1450.48,-361.07 1450.48,-361.07 1450.48,-357.73 1453.82,-354.4 1457.15,-354.4 1457.15,-354.4 1559.32,-354.4 1559.32,-354.4 1562.65,-354.4 1565.98,-357.73 1565.98,-361.07 1565.98,-361.07 1565.98,-367.73 1565.98,-367.73 1565.98,-371.07 1562.65,-374.4 1559.32,-374.4"/>
<text text-anchor="middle" x="1508.23" y="-361.4" font-family="Helvetica,sans-Serif" font-size="10.00">wipe_cabin_floors_dry</text>
</a>
</g>
</g>

<g id="wipe_cabin_floors_dry___respect_the_boat" class="edge">
<title>wipe_cabin_floors_dry-&gt;respect_the_boat</title>
<path fill="none" stroke="forestgreen" stroke-width="2" d="M1525.22,-374.9C1538.2,-382.23 1556.49,-392.73 1572.23,-402.4 1590.34,-413.52 1610.42,-426.62 1625.68,-436.73"/>
<polygon fill="forestgreen" stroke="forestgreen" stroke-width="2" points="1623.5,-439.49 1633.77,-442.12 1627.38,-433.66 1623.5,-439.49"/>
</g>

<g id="wipe_cabin_floors_dry___prevent_accidents" class="edge">
<title>wipe_cabin_floors_dry-&gt;prevent_accidents</title>
<path fill="none" stroke="forestgreen" stroke-width="2" d="M1513.64,-374.74C1540.79,-421.57 1661.91,-629.71 1684.23,-654.48 1691.17,-662.18 1699.82,-669.46 1707.91,-675.55"/>
<polygon fill="forestgreen" stroke="forestgreen" stroke-width="2" points="1705.75,-678.31 1715.92,-681.28 1709.83,-672.62 1705.75,-678.31"/>
</g>

<g id="wear_gloves" class="node">
<title>wear_gloves</title>
<g id="a_wear_gloves"><a xlink:title=" ">
<path fill="#edf8e9" stroke="black" d="M1305.64,-464.2C1305.64,-464.2 1246.83,-464.2 1246.83,-464.2 1243.5,-464.2 1240.16,-460.87 1240.16,-457.53 1240.16,-457.53 1240.16,-450.87 1240.16,-450.87 1240.16,-447.53 1243.5,-444.2 1246.83,-444.2 1246.83,-444.2 1305.64,-444.2 1305.64,-444.2 1308.97,-444.2 1312.31,-447.53 1312.31,-450.87 1312.31,-450.87 1312.31,-457.53 1312.31,-457.53 1312.31,-460.87 1308.97,-464.2 1305.64,-464.2"/>
<text text-anchor="middle" x="1276.23" y="-451.2" font-family="Helvetica,sans-Serif" font-size="10.00">wear_gloves</text>
</a>
</g>
</g>

<g id="wear_gloves___Health" class="edge">
<title>wear_gloves-&gt;Health</title>
<path fill="none" stroke="forestgreen" stroke-width="2" d="M1257.87,-464.58C1249.89,-468.23 1240.31,-472.04 1231.23,-474.2 1117.04,-501.36 805.1,-449.78 704.23,-509.8 634.29,-551.42 606.23,-583.1 606.23,-664.48 606.23,-664.48 606.23,-664.48 606.23,-844.48 606.23,-855.64 603.85,-867.79 601.2,-877.82"/>
<polygon fill="forestgreen" stroke="forestgreen" stroke-width="2" points="597.86,-876.79 598.37,-887.37 604.57,-878.78 597.86,-876.79"/>
</g>

<g id="wear_gloves___prevent_accidents" class="edge">
<title>wear_gloves-&gt;prevent_accidents</title>
<path fill="none" stroke="forestgreen" stroke-width="2" d="M1295.6,-464.5C1303.42,-467.96 1312.61,-471.66 1321.23,-474.2 1408.67,-500 1453.16,-451.49 1523.23,-509.8 1575.99,-553.7 1530.9,-603.84 1577.23,-654.48 1590.12,-668.57 1633.9,-678.47 1671.81,-684.62"/>
<polygon fill="forestgreen" stroke="forestgreen" stroke-width="2" points="1670.98,-688.03 1681.4,-686.1 1672.05,-681.11 1670.98,-688.03"/>
</g>

<g id="wear_lifevest" class="node">
<title>wear_lifevest</title>
<g id="a_wear_lifevest"><a xlink:title=" ">
<path fill="#edf8e9" stroke="black" d="M1385.75,-562.6C1385.75,-562.6 1324.72,-562.6 1324.72,-562.6 1321.39,-562.6 1318.05,-559.27 1318.05,-555.93 1318.05,-555.93 1318.05,-549.27 1318.05,-549.27 1318.05,-545.93 1321.39,-542.6 1324.72,-542.6 1324.72,-542.6 1385.75,-542.6 1385.75,-542.6 1389.08,-542.6 1392.41,-545.93 1392.41,-549.27 1392.41,-549.27 1392.41,-555.93 1392.41,-555.93 1392.41,-559.27 1389.08,-562.6 1385.75,-562.6"/>
<text text-anchor="middle" x="1355.23" y="-549.6" font-family="Helvetica,sans-Serif" font-size="10.00">wear_lifevest</text>
</a>
</g>
</g>


<g id="wear_lifevest___prevent_accidents" class="edge">
<title>wear_lifevest-&gt;prevent_accidents</title>
<path fill="none" stroke="forestgreen" stroke-width="2" d="M1365.65,-562.78C1391.24,-584.75 1460.09,-640.42 1528.23,-665.48 1574.29,-682.43 1629.62,-688.97 1671.18,-691.4"/>
<polygon fill="forestgreen" stroke="forestgreen" stroke-width="2" points="1670.97,-694.89 1681.14,-691.9 1671.32,-687.9 1670.97,-694.89"/>
</g>

<g id="wear_helmet" class="node">
<title>wear_helmet</title>
<g id="a_wear_helmet"><a xlink:title=" ">
<path fill="#edf8e9" stroke="black" d="M1385.19,-646.48C1385.19,-646.48 1325.28,-646.48 1325.28,-646.48 1321.94,-646.48 1318.61,-643.15 1318.61,-639.82 1318.61,-639.82 1318.61,-633.15 1318.61,-633.15 1318.61,-629.82 1321.94,-626.48 1325.28,-626.48 1325.28,-626.48 1385.19,-626.48 1385.19,-626.48 1388.53,-626.48 1391.86,-629.82 1391.86,-633.15 1391.86,-633.15 1391.86,-639.82 1391.86,-639.82 1391.86,-643.15 1388.53,-646.48 1385.19,-646.48"/>
<text text-anchor="middle" x="1355.23" y="-633.48" font-family="Helvetica,sans-Serif" font-size="10.00">wear_helmet</text>
</a>
</g>
</g>


<g id="wear_helmet___prevent_accidents" class="edge">
<title>wear_helmet-&gt;prevent_accidents</title>
<path fill="none" stroke="forestgreen" stroke-width="2" d="M1369.25,-646.72C1379.79,-653.17 1394.83,-661.33 1409.23,-665.48 1456.82,-679.21 1591.41,-686.8 1671.36,-690.22"/>
<polygon fill="forestgreen" stroke="forestgreen" stroke-width="2" points="1671.02,-693.71 1681.16,-690.63 1671.31,-686.72 1671.02,-693.71"/>
</g>

<g id="clip_in" class="node">
<title>clip_in</title>
<g id="a_clip_in"><a xlink:title=" ">
<path fill="#edf8e9" stroke="black" d="M1788.74,-646.48C1788.74,-646.48 1757.73,-646.48 1757.73,-646.48 1754.39,-646.48 1751.06,-643.15 1751.06,-639.82 1751.06,-639.82 1751.06,-633.15 1751.06,-633.15 1751.06,-629.82 1754.39,-626.48 1757.73,-626.48 1757.73,-626.48 1788.74,-626.48 1788.74,-626.48 1792.08,-626.48 1795.41,-629.82 1795.41,-633.15 1795.41,-633.15 1795.41,-639.82 1795.41,-639.82 1795.41,-643.15 1792.08,-646.48 1788.74,-646.48"/>
<text text-anchor="middle" x="1773.23" y="-633.48" font-family="Helvetica,sans-Serif" font-size="10.00">clip_in</text>
</a>
</g>
</g>

<g id="clip_in___prevent_accidents" class="edge">
<title>clip_in-&gt;prevent_accidents</title>
<path fill="none" stroke="forestgreen" stroke-width="2" d="M1766.63,-646.57C1761.45,-653.69 1754.05,-663.86 1747.53,-672.82"/>
<polygon fill="forestgreen" stroke="forestgreen" stroke-width="2" points="1744.81,-670.61 1741.76,-680.76 1750.48,-674.73 1744.81,-670.61"/>
</g>

<g id="move_in_safe_areas" class="node">
<title>move_in_safe_areas</title>
<g id="a_move_in_safe_areas"><a xlink:title=" ">
<path fill="#edf8e9" stroke="black" d="M1785.99,-562.6C1785.99,-562.6 1690.48,-562.6 1690.48,-562.6 1687.15,-562.6 1683.82,-559.27 1683.82,-555.93 1683.82,-555.93 1683.82,-549.27 1683.82,-549.27 1683.82,-545.93 1687.15,-542.6 1690.48,-542.6 1690.48,-542.6 1785.99,-542.6 1785.99,-542.6 1789.32,-542.6 1792.65,-545.93 1792.65,-549.27 1792.65,-549.27 1792.65,-555.93 1792.65,-555.93 1792.65,-559.27 1789.32,-562.6 1785.99,-562.6"/>
<text text-anchor="middle" x="1738.23" y="-549.6" font-family="Helvetica,sans-Serif" font-size="10.00">move_in_safe_areas</text>
</a>
</g>
</g>

<g id="move_in_safe_areas___prevent_accidents" class="edge">
<title>move_in_safe_areas-&gt;prevent_accidents</title>
<path fill="none" stroke="forestgreen" stroke-width="2" d="M1737.91,-562.71C1737.13,-584.38 1735.14,-639.5 1734.03,-670.48"/>
<polygon fill="forestgreen" stroke="forestgreen" stroke-width="2" points="1730.54,-670.01 1733.68,-680.13 1737.54,-670.26 1730.54,-670.01"/>
</g>

<g id="el_engines___propulsion" class="edge">
<title>el_engines-&gt;propulsion</title>
<path fill="none" stroke="forestgreen" d="M1138.92,-464.44C1143.36,-479.74 1152.34,-510.65 1158.32,-531.25"/>
<polygon fill="forestgreen" stroke="forestgreen" points="1154.94,-532.16 1161.09,-540.79 1161.67,-530.21 1154.94,-532.16"/>
<text text-anchor="middle" x="1160.57" y="-494.6" font-family="Times,serif" font-size="8.00">limited</text>
</g>

<g id="propulsion___travel_by_wind" class="edge">
<title>propulsion-&gt;travel_by_wind</title>
<path fill="none" stroke="forestgreen" stroke-width="2" d="M1164.12,-562.99C1163.97,-575.15 1163.71,-596.72 1163.51,-613.18"/>
<polygon fill="forestgreen" stroke="forestgreen" stroke-width="2" points="1160.01,-613.13 1163.38,-623.17 1167.01,-613.22 1160.01,-613.13"/>
</g>

<g id="sails" class="node">
<title>sails</title>
<g id="a_sails"><a xlink:title=" ">
<path fill="white" stroke="black" d="M1215.57,-464.2C1215.57,-464.2 1192.9,-464.2 1192.9,-464.2 1189.56,-464.2 1186.23,-460.87 1186.23,-457.53 1186.23,-457.53 1186.23,-450.87 1186.23,-450.87 1186.23,-447.53 1189.56,-444.2 1192.9,-444.2 1192.9,-444.2 1215.57,-444.2 1215.57,-444.2 1218.9,-444.2 1222.24,-447.53 1222.24,-450.87 1222.24,-450.87 1222.24,-457.53 1222.24,-457.53 1222.24,-460.87 1218.9,-464.2 1215.57,-464.2"/>
<text text-anchor="middle" x="1204.23" y="-451.2" font-family="Helvetica,sans-Serif" font-size="10.00">sails</text>
</a>
</g>
</g>

<g id="sails___propulsion" class="edge">
<title>sails-&gt;propulsion</title>
<path fill="none" stroke="forestgreen" stroke-width="2" d="M1200.4,-464.44C1194.14,-479.52 1181.58,-509.78 1173.04,-530.37"/>
<polygon fill="forestgreen" stroke="forestgreen" stroke-width="2" points="1169.88,-528.87 1169.28,-539.45 1176.34,-531.55 1169.88,-528.87"/>
</g>

<g id="rules" class="node">
<title>rules</title>
<g id="a_rules"><a xlink:title=" ">
<polygon fill="white" stroke="black" points="865.74,-562.6 831.4,-562.6 831.4,-542.6 869.07,-542.6 869.07,-559.27 865.74,-562.6"/>
<polyline fill="none" stroke="black" points="865.74,-562.6 865.74,-559.27"/>
<polyline fill="none" stroke="black" points="869.07,-559.27 865.74,-559.27"/>
<text text-anchor="middle" x="850.23" y="-549.6" font-family="Helvetica,sans-Serif" font-size="10.00">rules</text>
</a>
</g>
</g>

<g id="rules___follow" class="edge">
<title>rules-&gt;follow</title>
<path fill="none" stroke="forestgreen" stroke-width="2" d="M859.07,-562.99C871.37,-576.07 893.92,-600.06 909.7,-616.84"/>
<polygon fill="forestgreen" stroke="forestgreen" stroke-width="2" points="907.03,-619.11 916.43,-624 912.13,-614.31 907.03,-619.11"/>
<text text-anchor="middle" x="915.56" y="-601.28" font-family="Times,serif" font-size="8.00">short term</text>
</g>

<g id="rules___be_sceptical" class="edge">
<title>rules-&gt;be_sceptical</title>
<path fill="none" stroke="forestgreen" stroke-width="2" d="M838.99,-562.99C822.97,-576.38 793.27,-601.19 773.14,-618.02"/>
<polygon fill="forestgreen" stroke="forestgreen" stroke-width="2" points="771.1,-615.16 765.67,-624.26 775.59,-620.53 771.1,-615.16"/>
</g>

<g id="improvements___Growth" class="edge">
<title>improvements-&gt;Growth</title>
<path fill="none" stroke="forestgreen" stroke-width="2" d="M759.46,-778.73C757.45,-789.2 754.11,-806.63 751.43,-820.62"/>
<polygon fill="forestgreen" stroke="forestgreen" stroke-width="2" points="748.05,-819.63 749.61,-830.11 754.93,-820.95 748.05,-819.63"/>
</g>

<g id="meals___serve_each_other" class="edge">
<title>meals-&gt;serve_each_other</title>
<path fill="none" stroke="forestgreen" stroke-width="2" d="M546.84,-640.51C596.43,-647.48 722.53,-665.32 839.04,-682.87"/>
<polygon fill="forestgreen" stroke="forestgreen" stroke-width="2" points="838.33,-686.3 848.74,-684.33 839.37,-679.38 838.33,-686.3"/>
</g>

<g id="solar_stove" class="node">
<title>solar_stove</title>
<g id="a_solar_stove"><a xlink:title=" ">
<path fill="white" stroke="black" d="M539.14,-464.2C539.14,-464.2 485.33,-464.2 485.33,-464.2 482,-464.2 478.67,-460.87 478.67,-457.53 478.67,-457.53 478.67,-450.87 478.67,-450.87 478.67,-447.53 482,-444.2 485.33,-444.2 485.33,-444.2 539.14,-444.2 539.14,-444.2 542.47,-444.2 545.8,-447.53 545.8,-450.87 545.8,-450.87 545.8,-457.53 545.8,-457.53 545.8,-460.87 542.47,-464.2 539.14,-464.2"/>
<text text-anchor="middle" x="512.23" y="-451.2" font-family="Helvetica,sans-Serif" font-size="10.00">solar_stove</text>
</a>
</g>
</g>

<g id="solar_stove___cook_smarter" class="edge">
<title>solar_stove-&gt;cook_smarter</title>
<path fill="none" stroke="forestgreen" stroke-width="2" d="M478.32,-464.05C465.47,-467.34 450.7,-471.03 437.23,-474.2 364.63,-491.27 339.72,-476 273.23,-509.8 261.88,-515.57 251.12,-524.75 242.77,-533.05"/>
<polygon fill="forestgreen" stroke="forestgreen" stroke-width="2" points="240.3,-530.56 235.98,-540.23 245.39,-535.37 240.3,-530.56"/>
</g>



<g id="i1___i2" class="edge">
<title>i1-&gt;i2</title>
<path fill="none" stroke="forestgreen" stroke-width="2" d="M1065.61,-60.8C1076.27,-60.8 1092,-60.8 1105.27,-60.8"/>
<polygon fill="forestgreen" stroke="forestgreen" stroke-width="2" points="1104.87,-64.3 1114.87,-60.8 1104.87,-57.3 1104.87,-64.3"/>
<text text-anchor="middle" x="1091.73" y="-50.6" font-family="Times,serif" font-size="8.00">contributes</text>
</g>



<g id="i3___i4" class="edge">
<title>i3-&gt;i4</title>
<path fill="none" stroke="red" stroke-width="2" stroke-dasharray="5,2" d="M955.39,-60.8C964,-60.8 975.84,-60.8 986.41,-60.8"/>
<polygon fill="red" stroke="red" stroke-width="2" points="986.16,-64.3 996.16,-60.8 986.15,-57.3 986.16,-64.3"/>
<text text-anchor="middle" x="977.23" y="-50.6" font-family="Times,serif" font-size="8.00">prevents</text>
</g>

<g id="Wind" class="node">
<title>Wind</title>
<g id="a_Wind"><a xlink:title=" ">
<path fill="white" stroke="black" d="M797.96,-160.6C797.96,-160.6 772.51,-160.6 772.51,-160.6 769.18,-160.6 765.84,-157.27 765.84,-153.93 765.84,-153.93 765.84,-147.27 765.84,-147.27 765.84,-143.93 769.18,-140.6 772.51,-140.6 772.51,-140.6 797.96,-140.6 797.96,-140.6 801.29,-140.6 804.63,-143.93 804.63,-147.27 804.63,-147.27 804.63,-153.93 804.63,-153.93 804.63,-157.27 801.29,-160.6 797.96,-160.6"/>
<text text-anchor="middle" x="785.23" y="-147.6" font-family="Helvetica,sans-Serif" font-size="10.00">Wind</text>
</a>
</g>
</g>

<g id="Wind___sails" class="edge">
<title>Wind-&gt;sails</title>
<path fill="none" stroke="forestgreen" stroke-width="2" d="M790.32,-160.88C801.08,-179.8 827.83,-223.35 860.23,-250.4 981.53,-351.68 1059.86,-305.6 1177.23,-411.4 1183.81,-417.33 1189.45,-425.21 1193.85,-432.53"/>
<polygon fill="forestgreen" stroke="forestgreen" stroke-width="2" points="1190.72,-434.11 1198.58,-441.22 1196.87,-430.76 1190.72,-434.11"/>
</g>

<g id="turbine" class="node">
<title>turbine</title>
<g id="a_turbine"><a xlink:title=" ">
<path fill="white" stroke="black" d="M801.86,-307.4C801.86,-307.4 768.61,-307.4 768.61,-307.4 765.28,-307.4 761.95,-304.07 761.95,-300.73 761.95,-300.73 761.95,-294.07 761.95,-294.07 761.95,-290.73 765.28,-287.4 768.61,-287.4 768.61,-287.4 801.86,-287.4 801.86,-287.4 805.19,-287.4 808.52,-290.73 808.52,-294.07 808.52,-294.07 808.52,-300.73 808.52,-300.73 808.52,-304.07 805.19,-307.4 801.86,-307.4"/>
<text text-anchor="middle" x="785.23" y="-294.4" font-family="Helvetica,sans-Serif" font-size="10.00">turbine</text>
</a>
</g>
</g>

<g id="Wind___turbine" class="edge">
<title>Wind-&gt;turbine</title>
<path fill="none" stroke="forestgreen" stroke-width="2" d="M785.23,-160.66C785.23,-183.1 785.23,-241.8 785.23,-274.18"/>
<polygon fill="forestgreen" stroke="forestgreen" stroke-width="2" points="781.73,-273.94 785.23,-283.94 788.73,-273.94 781.73,-273.94"/>
</g>

<g id="Risk" class="node">
<title>Risk</title>
<g id="a_Risk"><a xlink:title=" ">
<path fill="white" stroke="black" d="M1033.29,-160.6C1033.29,-160.6 1011.18,-160.6 1011.18,-160.6 1007.85,-160.6 1004.51,-157.27 1004.51,-153.93 1004.51,-153.93 1004.51,-147.27 1004.51,-147.27 1004.51,-143.93 1007.85,-140.6 1011.18,-140.6 1011.18,-140.6 1033.29,-140.6 1033.29,-140.6 1036.62,-140.6 1039.96,-143.93 1039.96,-147.27 1039.96,-147.27 1039.96,-153.93 1039.96,-153.93 1039.96,-157.27 1036.62,-160.6 1033.29,-160.6"/>
<text text-anchor="middle" x="1022.23" y="-147.6" font-family="Helvetica,sans-Serif" font-size="10.00">Risk</text>
</a>
</g>
</g>

<g id="Risk___mercilessness_of_nature" class="edge">
<title>Risk-&gt;mercilessness_of_nature</title>
<path fill="none" stroke="forestgreen" stroke-width="2" d="M1040.27,-151.86C1135.87,-153.36 1584.2,-161.67 1720.23,-187.6 1751.59,-193.58 1785.88,-205.58 1810.44,-215.2"/>
<polygon fill="forestgreen" stroke="forestgreen" stroke-width="2" points="1808.93,-218.37 1819.52,-218.84 1811.54,-211.87 1808.93,-218.37"/>
</g>

<g id="Sun" class="node">
<title>Sun</title>
<g id="a_Sun"><a xlink:title=" ">
<path fill="white" stroke="black" d="M741.46,-160.6C741.46,-160.6 721,-160.6 721,-160.6 717.67,-160.6 714.34,-157.27 714.34,-153.93 714.34,-153.93 714.34,-147.27 714.34,-147.27 714.34,-143.93 717.67,-140.6 721,-140.6 721,-140.6 741.46,-140.6 741.46,-140.6 744.8,-140.6 748.13,-143.93 748.13,-147.27 748.13,-147.27 748.13,-153.93 748.13,-153.93 748.13,-157.27 744.8,-160.6 741.46,-160.6"/>
<text text-anchor="middle" x="731.23" y="-147.6" font-family="Helvetica,sans-Serif" font-size="10.00">Sun</text>
</a>
</g>
</g>

<g id="Sun___solar_stove" class="edge">
<title>Sun-&gt;solar_stove</title>
<path fill="none" stroke="forestgreen" stroke-width="2" d="M718.08,-161.02C714.07,-163.67 709.57,-166.42 705.23,-168.6 635.42,-203.72 540.23,-151.25 540.23,-229.4 540.23,-229.4 540.23,-229.4 540.23,-365.4 540.23,-389.11 530.85,-414.8 522.94,-432.23"/>
<polygon fill="forestgreen" stroke="forestgreen" stroke-width="2" points="519.88,-430.52 518.69,-441.05 526.19,-433.56 519.88,-430.52"/>
</g>

<g id="panels" class="node">
<title>panels</title>
<g id="a_panels"><a xlink:title=" ">
<path fill="white" stroke="black" d="M737.3,-307.4C737.3,-307.4 705.17,-307.4 705.17,-307.4 701.83,-307.4 698.5,-304.07 698.5,-300.73 698.5,-300.73 698.5,-294.07 698.5,-294.07 698.5,-290.73 701.83,-287.4 705.17,-287.4 705.17,-287.4 737.3,-287.4 737.3,-287.4 740.63,-287.4 743.97,-290.73 743.97,-294.07 743.97,-294.07 743.97,-300.73 743.97,-300.73 743.97,-304.07 740.63,-307.4 737.3,-307.4"/>
<text text-anchor="middle" x="721.23" y="-294.4" font-family="Helvetica,sans-Serif" font-size="10.00">panels</text>
</a>
</g>
</g>

<g id="Sun___panels" class="edge">
<title>Sun-&gt;panels</title>
<path fill="none" stroke="forestgreen" stroke-width="2" d="M730.61,-160.66C729.06,-183.1 725,-241.8 722.77,-274.18"/>
<polygon fill="forestgreen" stroke="forestgreen" stroke-width="2" points="719.29,-273.73 722.09,-283.95 726.27,-274.22 719.29,-273.73"/>
</g>

<g id="Water" class="node">
<title>Water</title>
<g id="a_Water"><a xlink:title=" ">
<path fill="white" stroke="black" d="M689.9,-160.6C689.9,-160.6 660.57,-160.6 660.57,-160.6 657.23,-160.6 653.9,-157.27 653.9,-153.93 653.9,-153.93 653.9,-147.27 653.9,-147.27 653.9,-143.93 657.23,-140.6 660.57,-140.6 660.57,-140.6 689.9,-140.6 689.9,-140.6 693.24,-140.6 696.57,-143.93 696.57,-147.27 696.57,-147.27 696.57,-153.93 696.57,-153.93 696.57,-157.27 693.24,-160.6 689.9,-160.6"/>
<text text-anchor="middle" x="675.23" y="-147.6" font-family="Helvetica,sans-Serif" font-size="10.00">Water</text>
</a>
</g>
</g>

<g id="Water___water" class="edge">
<title>Water-&gt;water</title>
<path fill="none" stroke="forestgreen" stroke-width="2" d="M653.78,-155.35C602.72,-164.89 478.23,-191.98 478.23,-229.4 478.23,-229.4 478.23,-229.4 478.23,-365.4 478.23,-428.79 403.02,-390.35 343.23,-411.4 316.14,-420.94 285.58,-432.06 262.78,-440.44"/>
<polygon fill="forestgreen" stroke="forestgreen" stroke-width="2" points="261.68,-437.11 253.5,-443.85 264.1,-443.68 261.68,-437.11"/>
</g>

<g id="Happiness" class="node">
<title>Happiness</title>
<g id="a_Happiness"><a xlink:title=" ">
<path fill="white" stroke="black" d="M832.19,-1047.28C832.19,-1047.28 782.28,-1047.28 782.28,-1047.28 778.94,-1047.28 775.61,-1043.95 775.61,-1040.62 775.61,-1040.62 775.61,-1033.95 775.61,-1033.95 775.61,-1030.62 778.94,-1027.28 782.28,-1027.28 782.28,-1027.28 832.19,-1027.28 832.19,-1027.28 835.53,-1027.28 838.86,-1030.62 838.86,-1033.95 838.86,-1033.95 838.86,-1040.62 838.86,-1040.62 838.86,-1043.95 835.53,-1047.28 832.19,-1047.28"/>
<text text-anchor="middle" x="807.23" y="-1034.28" font-family="Helvetica,sans-Serif" font-size="10.00">Happiness</text>
</a>
</g>
</g>

<g id="Sustainability___Happiness" class="edge">
<title>Sustainability-&gt;Happiness</title>
<path fill="none" stroke="forestgreen" stroke-width="2" d="M733.2,-967.71C746.64,-980.16 770.86,-1002.6 787.93,-1018.41"/>
<polygon fill="forestgreen" stroke="forestgreen" stroke-width="2" points="785.08,-1020.54 794.8,-1024.77 789.84,-1015.4 785.08,-1020.54"/>
</g>

<g id="Freedom___Happiness" class="edge">
<title>Freedom-&gt;Happiness</title>
<path fill="none" stroke="forestgreen" stroke-width="2" d="M874.52,-967.66C867.18,-976.27 855.74,-989.41 845.23,-1000.28 839.41,-1006.31 832.85,-1012.67 826.83,-1018.34"/>
<polygon fill="forestgreen" stroke="forestgreen" stroke-width="2" points="824.63,-1015.61 819.68,-1024.98 829.39,-1020.74 824.63,-1015.61"/>
</g>

<g id="Solidarity___Happiness" class="edge">
<title>Solidarity-&gt;Happiness</title>
<path fill="none" stroke="forestgreen" stroke-width="2" d="M807.23,-967.71C807.23,-979.06 807.23,-998.7 807.23,-1014.06"/>
<polygon fill="forestgreen" stroke="forestgreen" stroke-width="2" points="803.73,-1014.04 807.23,-1024.04 810.73,-1014.04 803.73,-1014.04"/>
</g>

<g id="Boat___Missions" class="edge">
<title>Boat-&gt;Missions</title>
<path fill="none" stroke="forestgreen" stroke-width="2" d="M1455.4,-575.48C1439.79,-622.15 1397.29,-732.4 1326.23,-796.48 1268.46,-848.59 1180.21,-877.36 1129.28,-890.51"/>
<polygon fill="forestgreen" stroke="forestgreen" stroke-width="2" points="1128.68,-887.05 1119.82,-892.86 1130.36,-893.85 1128.68,-887.05"/>
</g>

<g id="Boat___travel_by_wind" class="edge">
<title>Boat-&gt;travel_by_wind</title>
<path fill="none" stroke="forestgreen" stroke-width="2" d="M1441.98,-564.88C1431.55,-570.33 1418.48,-576.59 1406.23,-580.88 1372.02,-592.88 1278.36,-612.59 1217.81,-624.76"/>
<polygon fill="forestgreen" stroke="forestgreen" stroke-width="2" points="1217.15,-621.32 1208.03,-626.72 1218.52,-628.19 1217.15,-621.32"/>
</g>

<g id="turbine___battery" class="edge">
<title>turbine-&gt;battery</title>
<path fill="none" stroke="forestgreen" stroke-width="2" d="M779.65,-307.71C775.06,-315.36 768.32,-326.59 762.09,-336.97"/>
<polygon fill="forestgreen" stroke="forestgreen" stroke-width="2" points="759.13,-335.11 756.98,-345.49 765.13,-338.71 759.13,-335.11"/>
</g>

<g id="panels___battery" class="edge">
<title>panels-&gt;battery</title>
<path fill="none" stroke="forestgreen" stroke-width="2" d="M724.82,-307.71C727.57,-314.87 731.53,-325.16 735.29,-334.95"/>
<polygon fill="forestgreen" stroke="forestgreen" stroke-width="2" points="731.91,-335.91 738.77,-343.99 738.44,-333.4 731.91,-335.91"/>
</g>
</g>
</svg>